<svg width="800" height="450" xmlns="http://www.w3.org/2000/svg" id="chart"><g transform="translate(80,40)"><text x="280" y="-10" text-anchor="middle" font-size="20px" font-weight="bold" fill="currentColor">synthetic-varying-cluster-50 - Per-Entry Size</text><g opacity="0.1" fill="none" font-size="10" text-anchor="end"><g class="tick" opacity="1" transform="translate(0,330.5)"><line stroke="currentColor" x2="560"></line><text fill="currentColor" x="-3" dy="0.32em"></text></g><g class="tick" opacity="1" transform="translate(0,308.5)"><line stroke="currentColor" x2="560"></line><text fill="currentColor" x="-3" dy="0.32em"></text></g><g class="tick" opacity="1" transform="translate(0,286.5)"><line stroke="currentColor" x2="560"></line><text fill="currentColor" x="-3" dy="0.32em"></text></g><g class="tick" opacity="1" transform="translate(0,264.5)"><line stroke="currentColor" x2="560"></line><text fill="currentColor" x="-3" dy="0.32em"></text></g><g class="tick" opacity="1" transform="translate(0,242.50000000000003)"><line stroke="currentColor" x2="560"></line><text fill="currentColor" x="-3" dy="0.32em"></text></g><g class="tick" opacity="1" transform="translate(0,220.50000000000003)"><line stroke="currentColor" x2="560"></line><text fill="currentColor" x="-3" dy="0.32em"></text></g><g class="tick" opacity="1" transform="translate(0,198.5)"><line stroke="currentColor" x2="560"></line><text fill="currentColor" x="-3" dy="0.32em"></text></g><g class="tick" opacity="1" transform="translate(0,176.5)"><line stroke="currentColor" x2="560"></line><text fill="currentColor" x="-3" dy="0.32em"></text></g><g class="tick" opacity="1" transform="translate(0,154.5)"><line stroke="currentColor" x2="560"></line><text fill="currentColor" x="-3" dy="0.32em"></text></g><g class="tick" opacity="1" transform="translate(0,132.5)"><line stroke="currentColor" x2="560"></line><text fill="currentColor" x="-3" dy="0.32em"></text></g><g class="tick" opacity="1" transform="translate(0,110.50000000000001)"><line stroke="currentColor" x2="560"></line><text fill="currentColor" x="-3" dy="0.32em"></text></g><g class="tick" opacity="1" transform="translate(0,88.50000000000001)"><line stroke="currentColor" x2="560"></line><text fill="currentColor" x="-3" dy="0.32em"></text></g><g class="tick" opacity="1" transform="translate(0,66.49999999999999)"><line stroke="currentColor" x2="560"></line><text fill="currentColor" x="-3" dy="0.32em"></text></g><g class="tick" opacity="1" transform="translate(0,44.49999999999999)"><line stroke="currentColor" x2="560"></line><text fill="currentColor" x="-3" dy="0.32em"></text></g><g class="tick" opacity="1" transform="translate(0,22.499999999999996)"><line stroke="currentColor" x2="560"></line><text fill="currentColor" x="-3" dy="0.32em"></text></g><g class="tick" opacity="1" transform="translate(0,0.5)"><line stroke="currentColor" x2="560"></line><text fill="currentColor" x="-3" dy="0.32em"></text></g></g><g font-size="10" transform="translate(0,330)" fill="none" text-anchor="middle"><path class="domain" stroke="currentColor" d="M0.5,6V0.5H560.5V6"></path><g class="tick" opacity="1" transform="translate(0.5,0)"><line stroke="currentColor" y2="6"></line><text fill="currentColor" y="9" dy="0.5em" transform="rotate(-35)" dx="-0.5em" font-size="9px" style="font-stretch: condensed; text-anchor: end;">50% density, avg_run=1.0</text></g><g class="tick" opacity="1" transform="translate(22.900000000000002,0)"><line stroke="currentColor" y2="6"></line><text fill="currentColor" y="9" dy="0.5em" transform="rotate(-35)" dx="-0.5em" font-size="9px" style="font-stretch: condensed; text-anchor: end;">50% density, avg_run=1.2</text></g><g class="tick" opacity="1" transform="translate(45.300000000000004,0)"><line stroke="currentColor" y2="6"></line><text fill="currentColor" y="9" dy="0.5em" transform="rotate(-35)" dx="-0.5em" font-size="9px" style="font-stretch: condensed; text-anchor: end;">50% density, avg_run=1.5</text></g><g class="tick" opacity="1" transform="translate(67.7,0)"><line stroke="currentColor" y2="6"></line><text fill="currentColor" y="9" dy="0.5em" transform="rotate(-35)" dx="-0.5em" font-size="9px" style="font-stretch: condensed; text-anchor: end;">50% density, avg_run=1.8</text></g><g class="tick" opacity="1" transform="translate(90.10000000000001,0)"><line stroke="currentColor" y2="6"></line><text fill="currentColor" y="9" dy="0.5em" transform="rotate(-35)" dx="-0.5em" font-size="9px" style="font-stretch: condensed; text-anchor: end;">50% density, avg_run=2.2</text></g><g class="tick" opacity="1" transform="translate(112.5,0)"><line stroke="currentColor" y2="6"></line><text fill="currentColor" y="9" dy="0.5em" transform="rotate(-35)" dx="-0.5em" font-size="9px" style="font-stretch: condensed; text-anchor: end;">50% density, avg_run=2.6</text></g><g class="tick" opacity="1" transform="translate(134.9,0)"><line stroke="currentColor" y2="6"></line><text fill="currentColor" y="9" dy="0.5em" transform="rotate(-35)" dx="-0.5em" font-size="9px" style="font-stretch: condensed; text-anchor: end;">50% density, avg_run=3.2</text></g><g class="tick" opacity="1" transform="translate(157.3,0)"><line stroke="currentColor" y2="6"></line><text fill="currentColor" y="9" dy="0.5em" transform="rotate(-35)" dx="-0.5em" font-size="9px" style="font-stretch: condensed; text-anchor: end;">50% density, avg_run=3.9</text></g><g class="tick" opacity="1" transform="translate(179.70000000000002,0)"><line stroke="currentColor" y2="6"></line><text fill="currentColor" y="9" dy="0.5em" transform="rotate(-35)" dx="-0.5em" font-size="9px" style="font-stretch: condensed; text-anchor: end;">50% density, avg_run=4.7</text></g><g class="tick" opacity="1" transform="translate(202.1,0)"><line stroke="currentColor" y2="6"></line><text fill="currentColor" y="9" dy="0.5em" transform="rotate(-35)" dx="-0.5em" font-size="9px" style="font-stretch: condensed; text-anchor: end;">50% density, avg_run=5.7</text></g><g class="tick" opacity="1" transform="translate(224.5,0)"><line stroke="currentColor" y2="6"></line><text fill="currentColor" y="9" dy="0.5em" transform="rotate(-35)" dx="-0.5em" font-size="9px" style="font-stretch: condensed; text-anchor: end;">50% density, avg_run=7.0</text></g><g class="tick" opacity="1" transform="translate(246.9,0)"><line stroke="currentColor" y2="6"></line><text fill="currentColor" y="9" dy="0.5em" transform="rotate(-35)" dx="-0.5em" font-size="9px" style="font-stretch: condensed; text-anchor: end;">50% density, avg_run=8.5</text></g><g class="tick" opacity="1" transform="translate(269.3,0)"><line stroke="currentColor" y2="6"></line><text fill="currentColor" y="9" dy="0.5em" transform="rotate(-35)" dx="-0.5em" font-size="9px" style="font-stretch: condensed; text-anchor: end;">50% density, avg_run=10.3</text></g><g class="tick" opacity="1" transform="translate(291.7,0)"><line stroke="currentColor" y2="6"></line><text fill="currentColor" y="9" dy="0.5em" transform="rotate(-35)" dx="-0.5em" font-size="9px" style="font-stretch: condensed; text-anchor: end;">50% density, avg_run=12.5</text></g><g class="tick" opacity="1" transform="translate(314.1,0)"><line stroke="currentColor" y2="6"></line><text fill="currentColor" y="9" dy="0.5em" transform="rotate(-35)" dx="-0.5em" font-size="9px" style="font-stretch: condensed; text-anchor: end;">50% density, avg_run=15.1</text></g><g class="tick" opacity="1" transform="translate(336.5,0)"><line stroke="currentColor" y2="6"></line><text fill="currentColor" y="9" dy="0.5em" transform="rotate(-35)" dx="-0.5em" font-size="9px" style="font-stretch: condensed; text-anchor: end;">50% density, avg_run=18.4</text></g><g class="tick" opacity="1" transform="translate(358.90000000000003,0)"><line stroke="currentColor" y2="6"></line><text fill="currentColor" y="9" dy="0.5em" transform="rotate(-35)" dx="-0.5em" font-size="9px" style="font-stretch: condensed; text-anchor: end;">50% density, avg_run=22.3</text></g><g class="tick" opacity="1" transform="translate(381.3,0)"><line stroke="currentColor" y2="6"></line><text fill="currentColor" y="9" dy="0.5em" transform="rotate(-35)" dx="-0.5em" font-size="9px" style="font-stretch: condensed; text-anchor: end;">50% density, avg_run=27.1</text></g><g class="tick" opacity="1" transform="translate(403.7,0)"><line stroke="currentColor" y2="6"></line><text fill="currentColor" y="9" dy="0.5em" transform="rotate(-35)" dx="-0.5em" font-size="9px" style="font-stretch: condensed; text-anchor: end;">50% density, avg_run=32.9</text></g><g class="tick" opacity="1" transform="translate(426.1,0)"><line stroke="currentColor" y2="6"></line><text fill="currentColor" y="9" dy="0.5em" transform="rotate(-35)" dx="-0.5em" font-size="9px" style="font-stretch: condensed; text-anchor: end;">50% density, avg_run=39.9</text></g><g class="tick" opacity="1" transform="translate(448.5,0)"><line stroke="currentColor" y2="6"></line><text fill="currentColor" y="9" dy="0.5em" transform="rotate(-35)" dx="-0.5em" font-size="9px" style="font-stretch: condensed; text-anchor: end;">50% density, avg_run=48.5</text></g><g class="tick" opacity="1" transform="translate(470.9,0)"><line stroke="currentColor" y2="6"></line><text fill="currentColor" y="9" dy="0.5em" transform="rotate(-35)" dx="-0.5em" font-size="9px" style="font-stretch: condensed; text-anchor: end;">50% density, avg_run=58.9</text></g><g class="tick" opacity="1" transform="translate(493.3,0)"><line stroke="currentColor" y2="6"></line><text fill="currentColor" y="9" dy="0.5em" transform="rotate(-35)" dx="-0.5em" font-size="9px" style="font-stretch: condensed; text-anchor: end;">50% density, avg_run=71.5</text></g><g class="tick" opacity="1" transform="translate(515.7,0)"><line stroke="currentColor" y2="6"></line><text fill="currentColor" y="9" dy="0.5em" transform="rotate(-35)" dx="-0.5em" font-size="9px" style="font-stretch: condensed; text-anchor: end;">50% density, avg_run=86.8</text></g><g class="tick" opacity="1" transform="translate(538.1,0)"><line stroke="currentColor" y2="6"></line><text fill="currentColor" y="9" dy="0.5em" transform="rotate(-35)" dx="-0.5em" font-size="9px" style="font-stretch: condensed; text-anchor: end;">50% density, avg_run=105.4</text></g><g class="tick" opacity="1" transform="translate(560.5,0)"><line stroke="currentColor" y2="6"></line><text fill="currentColor" y="9" dy="0.5em" transform="rotate(-35)" dx="-0.5em" font-size="9px" style="font-stretch: condensed; text-anchor: end;">50% density, avg_run=128.0</text></g></g><g font-size="10" fill="none" text-anchor="end"><path class="domain" stroke="currentColor" d="M-6,330.5H0.5V0.5H-6"></path><g class="tick" opacity="1" transform="translate(0,330.5)"><line stroke="currentColor" x2="-6"></line><text fill="currentColor" x="-9" dy="0.32em">0</text></g><g class="tick" opacity="1" transform="translate(0,308.5)"><line stroke="currentColor" x2="-6"></line><text fill="currentColor" x="-9" dy="0.32em">2,000</text></g><g class="tick" opacity="1" transform="translate(0,286.5)"><line stroke="currentColor" x2="-6"></line><text fill="currentColor" x="-9" dy="0.32em">4,000</text></g><g class="tick" opacity="1" transform="translate(0,264.5)"><line stroke="currentColor" x2="-6"></line><text fill="currentColor" x="-9" dy="0.32em">6,000</text></g><g class="tick" opacity="1" transform="translate(0,242.50000000000003)"><line stroke="currentColor" x2="-6"></line><text fill="currentColor" x="-9" dy="0.32em">8,000</text></g><g class="tick" opacity="1" transform="translate(0,220.50000000000003)"><line stroke="currentColor" x2="-6"></line><text fill="currentColor" x="-9" dy="0.32em">10,000</text></g><g class="tick" opacity="1" transform="translate(0,198.5)"><line stroke="currentColor" x2="-6"></line><text fill="currentColor" x="-9" dy="0.32em">12,000</text></g><g class="tick" opacity="1" transform="translate(0,176.5)"><line stroke="currentColor" x2="-6"></line><text fill="currentColor" x="-9" dy="0.32em">14,000</text></g><g class="tick" opacity="1" transform="translate(0,154.5)"><line stroke="currentColor" x2="-6"></line><text fill="currentColor" x="-9" dy="0.32em">16,000</text></g><g class="tick" opacity="1" transform="translate(0,132.5)"><line stroke="currentColor" x2="-6"></line><text fill="currentColor" x="-9" dy="0.32em">18,000</text></g><g class="tick" opacity="1" transform="translate(0,110.50000000000001)"><line stroke="currentColor" x2="-6"></line><text fill="currentColor" x="-9" dy="0.32em">20,000</text></g><g class="tick" opacity="1" transform="translate(0,88.50000000000001)"><line stroke="currentColor" x2="-6"></line><text fill="currentColor" x="-9" dy="0.32em">22,000</text></g><g class="tick" opacity="1" transform="translate(0,66.49999999999999)"><line stroke="currentColor" x2="-6"></line><text fill="currentColor" x="-9" dy="0.32em">24,000</text></g><g class="tick" opacity="1" transform="translate(0,44.49999999999999)"><line stroke="currentColor" x2="-6"></line><text fill="currentColor" x="-9" dy="0.32em">26,000</text></g><g class="tick" opacity="1" transform="translate(0,22.499999999999996)"><line stroke="currentColor" x2="-6"></line><text fill="currentColor" x="-9" dy="0.32em">28,000</text></g><g class="tick" opacity="1" transform="translate(0,0.5)"><line stroke="currentColor" x2="-6"></line><text fill="currentColor" x="-9" dy="0.32em">30,000</text></g></g><text transform="rotate(-90)" y="-80" x="-165" dy="1em" text-anchor="middle" font-size="14px" fill="currentColor">Size (bytes)</text><g class="lines-group"><path class="line-path series-0" fill="none" stroke="#1f9bd9" stroke-width="2" d="M0,18.37L11.2,27.093L22.4,35.244L33.6,42.988L44.8,50.93L56,57.354L67.2,63.47L78.4,70.774L89.6,76.659L100.8,83.226L112,88.22L123.2,93.016L134.4,99.506L145.6,103.664L156.8,108.493L168,113.3L179.2,117.601L190.4,122.298L201.6,125.84L212.8,129.833L224,132.495L235.2,136.246L246.4,141.174L257.6,143.341L268.8,145.772L280,151.47L291.2,153.703L302.4,154.792L313.6,157.003L324.8,158.455L336,158.796L347.2,163.174L358.4,165.605L369.6,168.806L380.8,170.313L392,172.887L403.2,169.983L414.4,172.15L425.6,171.831L436.8,177.815L448,174.416L459.2,176.297L470.4,175.769L481.6,178.519L492.8,178.761L504,185.823L515.2,188.287L526.4,181.478L537.6,183.766L548.8,186.23L560,185.207"></path><path class="line-path series-1" fill="none" stroke="#ff6d22" stroke-width="2" d="M0,18.612L11.2,24.442L22.4,31.46L33.6,39.424L44.8,49.566L56,58.498L67.2,68.035L78.4,78.705L89.6,89.056L100.8,99.242L112,108.603L123.2,118.69L134.4,130.273L145.6,139.469L156.8,148.907L168,158.774L179.2,168.696L190.4,177.452L201.6,183.821L212.8,193.523L224,202.378L235.2,207.724L246.4,217.107L257.6,222.629L268.8,228.415L280,235.719L291.2,242.264L302.4,247.852L313.6,251.416L324.8,257.499L336,261.778L347.2,268.004L358.4,271.744L369.6,274.945L380.8,279.367L392,281.831L403.2,286.011L414.4,289.707L425.6,291.918L436.8,294.569L448,296.593L459.2,299.442L470.4,302.28L481.6,304.986L492.8,304.887L504,307.109L515.2,308.418L526.4,310.519L537.6,311.729L548.8,313.83L560,313.929"></path><path class="line-path series-2" fill="none" stroke="#48bc7f" stroke-width="2" d="M0,18.799L11.2,25.916L22.4,33.286L33.6,40.557L44.8,50.006L56,58.223L67.2,66.77L78.4,76.241L89.6,84.909L100.8,94.182L112,102.707L123.2,112.717L134.4,122.848L145.6,131.747L156.8,140.899L168,150.095L179.2,160.204L190.4,168.718L201.6,175.01L212.8,185.042L224,194.205L235.2,199.32L246.4,209.319L257.6,214.918L268.8,220.913L280,228.602L291.2,235.609L302.4,241.571L313.6,245.454L324.8,251.889L336,256.542L347.2,263.164L358.4,267.201L369.6,270.699L380.8,275.517L392,278.278L403.2,282.689L414.4,286.671L425.6,289.058L436.8,291.929L448,294.173L459.2,297.242L470.4,300.322L481.6,303.204L492.8,303.16L504,305.492L515.2,306.955L526.4,309.188L537.6,310.497L548.8,312.752L560,312.873"></path><path class="line-path series-3" fill="none" stroke="#f43550" stroke-width="2" d="M0,54.934L11.2,55.11L22.4,58.586L33.6,64.262L44.8,71.61L56,78.837L67.2,86.328L78.4,93.038L89.6,100.507L100.8,107.514L112,114.081L123.2,121.473L134.4,130.35L145.6,136.906L156.8,146.102L168,155.738L179.2,164.846L190.4,172.887L201.6,179.718L212.8,188.815L224,198.132L235.2,203.445L246.4,212.872L257.6,218.559L268.8,224.114L280,232.122L291.2,238.931L302.4,244.233L313.6,247.896L324.8,253.759L336,258.742L347.2,264.88L358.4,269.401L369.6,272.635L380.8,277.266L392,279.334L403.2,284.471L414.4,288.167L425.6,290.125L436.8,293.095L448,295.317L459.2,298.023L470.4,301.367L481.6,304.128L492.8,303.886L504,306.229L515.2,307.417L526.4,309.837L537.6,310.497L548.8,312.774L560,313.005"></path><path class="line-path series-4" fill="none" stroke="#b834cc" stroke-width="2" d="M0,54.879L11.2,54.604L22.4,54.318L33.6,53.537L44.8,52.316L56,50.545L67.2,48.763L78.4,46.761L89.6,44.99L100.8,44.33L112,43.846L123.2,46.244L134.4,51.095L145.6,59.466L156.8,69.784L168,84.524L179.2,100.463L190.4,118.283L201.6,131.45L212.8,151.635L224,169.686L235.2,181.654L246.4,198.935L257.6,208.934L268.8,219.615L280,232.001L291.2,241.406L302.4,249.117L313.6,254.815L324.8,262.46L336,267.674L347.2,274.516L358.4,278.487L369.6,281.776L380.8,286.154L392,288.31L403.2,292.006L414.4,295.141L425.6,296.538L436.8,298.98L448,300.63L459.2,303.116L470.4,305.558L481.6,307.901L492.8,307.736L504,309.628L515.2,310.805L526.4,312.62L537.6,313.775L548.8,315.414L560,315.436"></path><path class="line-path series-5" fill="none" stroke="#ff77b9" stroke-width="2" d="M0,35.684L11.2,38.005L22.4,40.777L33.6,44.132L44.8,49.049L56,53.735L67.2,58.883L78.4,65.252L89.6,70.785L100.8,77.264L112,82.973L123.2,89.716L134.4,97.691L145.6,104.577L156.8,111.628L168,118.569L179.2,126.786L190.4,133.507L201.6,139.128L212.8,147.851L224,156.354L235.2,160.666L246.4,169.939L257.6,175.098L268.8,180.994L280,188.705L291.2,195.503L302.4,202.213L313.6,205.854L324.8,213.213L336,218.273L347.2,225.742L358.4,230.34L369.6,234.201L380.8,240.02L392,243.65L403.2,249.205L414.4,254.716L425.6,258.346L436.8,261.965L448,264.792L459.2,269.269L470.4,273.812L481.6,278.047L492.8,278.201L504,281.512L515.2,283.91L526.4,287.309L537.6,290.004L548.8,293.557L560,293.843"></path><path class="line-path series-6" fill="none" stroke="#7f7f7f" stroke-width="2" d="M0,55L11.2,56.694L22.4,61.204L33.6,67.782L44.8,75.889L56,85.074L67.2,94.996L78.4,105.38L89.6,116.017L100.8,126.731L112,137.401L123.2,147.906L134.4,158.191L145.6,168.168L156.8,177.826L168,187.11L179.2,195.998L190.4,204.49L201.6,212.575L212.8,220.264L224,227.535L235.2,234.41L246.4,240.9L257.6,247.016L268.8,252.758L280,258.159L291.2,263.23L302.4,267.971L313.6,272.415L324.8,276.562L336,280.445L347.2,284.064L358.4,287.441L369.6,290.587L380.8,293.513L392,296.23L403.2,298.771L414.4,301.114L425.6,303.303L436.8,305.338L448,307.219L459.2,308.957L470.4,310.574L481.6,312.07L492.8,313.456L504,314.743L515.2,315.931L526.4,317.031L537.6,318.043L548.8,318.989L560,319.858"></path></g><g class="highlight-group"></g><g transform="translate(570, 20)" style="font-stretch: condensed;"><g transform="translate(0,0)" class="legend-item"><rect width="15" height="15" fill="#1f9bd9"></rect><text x="20" y="12" font-size="12px" fill="currentColor">gamma-coded gaps</text></g><g transform="translate(0,20)" class="legend-item"><rect width="15" height="15" fill="#ff6d22"></rect><text x="20" y="12" font-size="12px" fill="currentColor">gamma-coded run lengths</text></g><g transform="translate(0,40)" class="legend-item"><rect width="15" height="15" fill="#48bc7f"></rect><text x="20" y="12" font-size="12px" fill="currentColor">flip coding (gamma)</text></g><g transform="translate(0,60)" class="legend-item"><rect width="15" height="15" fill="#f43550"></rect><text x="20" y="12" font-size="12px" fill="currentColor">zlib'd bitset</text></g><g transform="translate(0,80)" class="legend-item"><rect width="15" height="15" fill="#b834cc"></rect><text x="20" y="12" font-size="12px" fill="currentColor">triple partitioned</text></g><g transform="translate(0,100)" class="legend-item"><rect width="15" height="15" fill="#ff77b9"></rect><text x="20" y="12" font-size="12px" fill="currentColor">seq. binary interp. (leftmost)</text></g><g transform="translate(0,120)" class="legend-item"><rect width="15" height="15" fill="#7f7f7f"></rect><text x="20" y="12" font-size="12px" fill="currentColor">lower bound</text></g></g></g></svg>