<svg width="800" height="450" xmlns="http://www.w3.org/2000/svg" id="chart"><g transform="translate(80,40)"><text x="280" y="-10" text-anchor="middle" font-size="20px" font-weight="bold" fill="currentColor">synthetic - Per-Entry Size</text><g opacity="0.1" fill="none" font-size="10" text-anchor="end"><g class="tick" opacity="1" transform="translate(0,330.5)"><line stroke="currentColor" x2="560"></line><text fill="currentColor" x="-3" dy="0.32em"></text></g><g class="tick" opacity="1" transform="translate(0,308.5)"><line stroke="currentColor" x2="560"></line><text fill="currentColor" x="-3" dy="0.32em"></text></g><g class="tick" opacity="1" transform="translate(0,286.5)"><line stroke="currentColor" x2="560"></line><text fill="currentColor" x="-3" dy="0.32em"></text></g><g class="tick" opacity="1" transform="translate(0,264.5)"><line stroke="currentColor" x2="560"></line><text fill="currentColor" x="-3" dy="0.32em"></text></g><g class="tick" opacity="1" transform="translate(0,242.50000000000003)"><line stroke="currentColor" x2="560"></line><text fill="currentColor" x="-3" dy="0.32em"></text></g><g class="tick" opacity="1" transform="translate(0,220.50000000000003)"><line stroke="currentColor" x2="560"></line><text fill="currentColor" x="-3" dy="0.32em"></text></g><g class="tick" opacity="1" transform="translate(0,198.5)"><line stroke="currentColor" x2="560"></line><text fill="currentColor" x="-3" dy="0.32em"></text></g><g class="tick" opacity="1" transform="translate(0,176.5)"><line stroke="currentColor" x2="560"></line><text fill="currentColor" x="-3" dy="0.32em"></text></g><g class="tick" opacity="1" transform="translate(0,154.5)"><line stroke="currentColor" x2="560"></line><text fill="currentColor" x="-3" dy="0.32em"></text></g><g class="tick" opacity="1" transform="translate(0,132.5)"><line stroke="currentColor" x2="560"></line><text fill="currentColor" x="-3" dy="0.32em"></text></g><g class="tick" opacity="1" transform="translate(0,110.50000000000001)"><line stroke="currentColor" x2="560"></line><text fill="currentColor" x="-3" dy="0.32em"></text></g><g class="tick" opacity="1" transform="translate(0,88.50000000000001)"><line stroke="currentColor" x2="560"></line><text fill="currentColor" x="-3" dy="0.32em"></text></g><g class="tick" opacity="1" transform="translate(0,66.49999999999999)"><line stroke="currentColor" x2="560"></line><text fill="currentColor" x="-3" dy="0.32em"></text></g><g class="tick" opacity="1" transform="translate(0,44.49999999999999)"><line stroke="currentColor" x2="560"></line><text fill="currentColor" x="-3" dy="0.32em"></text></g><g class="tick" opacity="1" transform="translate(0,22.499999999999996)"><line stroke="currentColor" x2="560"></line><text fill="currentColor" x="-3" dy="0.32em"></text></g><g class="tick" opacity="1" transform="translate(0,0.5)"><line stroke="currentColor" x2="560"></line><text fill="currentColor" x="-3" dy="0.32em"></text></g></g><g font-size="10" transform="translate(0,330)" fill="none" text-anchor="middle"><path class="domain" stroke="currentColor" d="M0.5,6V0.5H560.5V6"></path><g class="tick" opacity="1" transform="translate(0.5,0)"><line stroke="currentColor" y2="6"></line><text fill="currentColor" y="9" dy="0.5em" transform="rotate(-35)" dx="-0.5em" font-size="9px" style="font-stretch: condensed; text-anchor: end;">0% density (uniform)</text></g><g class="tick" opacity="1" transform="translate(22.900000000000002,0)"><line stroke="currentColor" y2="6"></line><text fill="currentColor" y="9" dy="0.5em" transform="rotate(-35)" dx="-0.5em" font-size="9px" style="font-stretch: condensed; text-anchor: end;">4% density (uniform)</text></g><g class="tick" opacity="1" transform="translate(45.300000000000004,0)"><line stroke="currentColor" y2="6"></line><text fill="currentColor" y="9" dy="0.5em" transform="rotate(-35)" dx="-0.5em" font-size="9px" style="font-stretch: condensed; text-anchor: end;">8% density (uniform)</text></g><g class="tick" opacity="1" transform="translate(67.7,0)"><line stroke="currentColor" y2="6"></line><text fill="currentColor" y="9" dy="0.5em" transform="rotate(-35)" dx="-0.5em" font-size="9px" style="font-stretch: condensed; text-anchor: end;">12% density (uniform)</text></g><g class="tick" opacity="1" transform="translate(90.10000000000001,0)"><line stroke="currentColor" y2="6"></line><text fill="currentColor" y="9" dy="0.5em" transform="rotate(-35)" dx="-0.5em" font-size="9px" style="font-stretch: condensed; text-anchor: end;">16% density (uniform)</text></g><g class="tick" opacity="1" transform="translate(112.5,0)"><line stroke="currentColor" y2="6"></line><text fill="currentColor" y="9" dy="0.5em" transform="rotate(-35)" dx="-0.5em" font-size="9px" style="font-stretch: condensed; text-anchor: end;">20% density (uniform)</text></g><g class="tick" opacity="1" transform="translate(134.9,0)"><line stroke="currentColor" y2="6"></line><text fill="currentColor" y="9" dy="0.5em" transform="rotate(-35)" dx="-0.5em" font-size="9px" style="font-stretch: condensed; text-anchor: end;">24% density (uniform)</text></g><g class="tick" opacity="1" transform="translate(157.3,0)"><line stroke="currentColor" y2="6"></line><text fill="currentColor" y="9" dy="0.5em" transform="rotate(-35)" dx="-0.5em" font-size="9px" style="font-stretch: condensed; text-anchor: end;">28% density (uniform)</text></g><g class="tick" opacity="1" transform="translate(179.70000000000002,0)"><line stroke="currentColor" y2="6"></line><text fill="currentColor" y="9" dy="0.5em" transform="rotate(-35)" dx="-0.5em" font-size="9px" style="font-stretch: condensed; text-anchor: end;">32% density (uniform)</text></g><g class="tick" opacity="1" transform="translate(202.1,0)"><line stroke="currentColor" y2="6"></line><text fill="currentColor" y="9" dy="0.5em" transform="rotate(-35)" dx="-0.5em" font-size="9px" style="font-stretch: condensed; text-anchor: end;">36% density (uniform)</text></g><g class="tick" opacity="1" transform="translate(224.5,0)"><line stroke="currentColor" y2="6"></line><text fill="currentColor" y="9" dy="0.5em" transform="rotate(-35)" dx="-0.5em" font-size="9px" style="font-stretch: condensed; text-anchor: end;">40% density (uniform)</text></g><g class="tick" opacity="1" transform="translate(246.9,0)"><line stroke="currentColor" y2="6"></line><text fill="currentColor" y="9" dy="0.5em" transform="rotate(-35)" dx="-0.5em" font-size="9px" style="font-stretch: condensed; text-anchor: end;">44% density (uniform)</text></g><g class="tick" opacity="1" transform="translate(269.3,0)"><line stroke="currentColor" y2="6"></line><text fill="currentColor" y="9" dy="0.5em" transform="rotate(-35)" dx="-0.5em" font-size="9px" style="font-stretch: condensed; text-anchor: end;">48% density (uniform)</text></g><g class="tick" opacity="1" transform="translate(291.7,0)"><line stroke="currentColor" y2="6"></line><text fill="currentColor" y="9" dy="0.5em" transform="rotate(-35)" dx="-0.5em" font-size="9px" style="font-stretch: condensed; text-anchor: end;">52% density (uniform)</text></g><g class="tick" opacity="1" transform="translate(314.1,0)"><line stroke="currentColor" y2="6"></line><text fill="currentColor" y="9" dy="0.5em" transform="rotate(-35)" dx="-0.5em" font-size="9px" style="font-stretch: condensed; text-anchor: end;">56% density (uniform)</text></g><g class="tick" opacity="1" transform="translate(336.5,0)"><line stroke="currentColor" y2="6"></line><text fill="currentColor" y="9" dy="0.5em" transform="rotate(-35)" dx="-0.5em" font-size="9px" style="font-stretch: condensed; text-anchor: end;">60% density (uniform)</text></g><g class="tick" opacity="1" transform="translate(358.90000000000003,0)"><line stroke="currentColor" y2="6"></line><text fill="currentColor" y="9" dy="0.5em" transform="rotate(-35)" dx="-0.5em" font-size="9px" style="font-stretch: condensed; text-anchor: end;">64% density (uniform)</text></g><g class="tick" opacity="1" transform="translate(381.3,0)"><line stroke="currentColor" y2="6"></line><text fill="currentColor" y="9" dy="0.5em" transform="rotate(-35)" dx="-0.5em" font-size="9px" style="font-stretch: condensed; text-anchor: end;">68% density (uniform)</text></g><g class="tick" opacity="1" transform="translate(403.7,0)"><line stroke="currentColor" y2="6"></line><text fill="currentColor" y="9" dy="0.5em" transform="rotate(-35)" dx="-0.5em" font-size="9px" style="font-stretch: condensed; text-anchor: end;">72% density (uniform)</text></g><g class="tick" opacity="1" transform="translate(426.1,0)"><line stroke="currentColor" y2="6"></line><text fill="currentColor" y="9" dy="0.5em" transform="rotate(-35)" dx="-0.5em" font-size="9px" style="font-stretch: condensed; text-anchor: end;">76% density (uniform)</text></g><g class="tick" opacity="1" transform="translate(448.5,0)"><line stroke="currentColor" y2="6"></line><text fill="currentColor" y="9" dy="0.5em" transform="rotate(-35)" dx="-0.5em" font-size="9px" style="font-stretch: condensed; text-anchor: end;">80% density (uniform)</text></g><g class="tick" opacity="1" transform="translate(470.9,0)"><line stroke="currentColor" y2="6"></line><text fill="currentColor" y="9" dy="0.5em" transform="rotate(-35)" dx="-0.5em" font-size="9px" style="font-stretch: condensed; text-anchor: end;">84% density (uniform)</text></g><g class="tick" opacity="1" transform="translate(493.3,0)"><line stroke="currentColor" y2="6"></line><text fill="currentColor" y="9" dy="0.5em" transform="rotate(-35)" dx="-0.5em" font-size="9px" style="font-stretch: condensed; text-anchor: end;">88% density (uniform)</text></g><g class="tick" opacity="1" transform="translate(515.7,0)"><line stroke="currentColor" y2="6"></line><text fill="currentColor" y="9" dy="0.5em" transform="rotate(-35)" dx="-0.5em" font-size="9px" style="font-stretch: condensed; text-anchor: end;">92% density (uniform)</text></g><g class="tick" opacity="1" transform="translate(538.1,0)"><line stroke="currentColor" y2="6"></line><text fill="currentColor" y="9" dy="0.5em" transform="rotate(-35)" dx="-0.5em" font-size="9px" style="font-stretch: condensed; text-anchor: end;">96% density (uniform)</text></g><g class="tick" opacity="1" transform="translate(560.5,0)"><line stroke="currentColor" y2="6"></line><text fill="currentColor" y="9" dy="0.5em" transform="rotate(-35)" dx="-0.5em" font-size="9px" style="font-stretch: condensed; text-anchor: end;">100% density (uniform)</text></g></g><g font-size="10" fill="none" text-anchor="end"><path class="domain" stroke="currentColor" d="M-6,330.5H0.5V0.5H-6"></path><g class="tick" opacity="1" transform="translate(0,330.5)"><line stroke="currentColor" x2="-6"></line><text fill="currentColor" x="-9" dy="0.32em">0</text></g><g class="tick" opacity="1" transform="translate(0,308.5)"><line stroke="currentColor" x2="-6"></line><text fill="currentColor" x="-9" dy="0.32em">2,000</text></g><g class="tick" opacity="1" transform="translate(0,286.5)"><line stroke="currentColor" x2="-6"></line><text fill="currentColor" x="-9" dy="0.32em">4,000</text></g><g class="tick" opacity="1" transform="translate(0,264.5)"><line stroke="currentColor" x2="-6"></line><text fill="currentColor" x="-9" dy="0.32em">6,000</text></g><g class="tick" opacity="1" transform="translate(0,242.50000000000003)"><line stroke="currentColor" x2="-6"></line><text fill="currentColor" x="-9" dy="0.32em">8,000</text></g><g class="tick" opacity="1" transform="translate(0,220.50000000000003)"><line stroke="currentColor" x2="-6"></line><text fill="currentColor" x="-9" dy="0.32em">10,000</text></g><g class="tick" opacity="1" transform="translate(0,198.5)"><line stroke="currentColor" x2="-6"></line><text fill="currentColor" x="-9" dy="0.32em">12,000</text></g><g class="tick" opacity="1" transform="translate(0,176.5)"><line stroke="currentColor" x2="-6"></line><text fill="currentColor" x="-9" dy="0.32em">14,000</text></g><g class="tick" opacity="1" transform="translate(0,154.5)"><line stroke="currentColor" x2="-6"></line><text fill="currentColor" x="-9" dy="0.32em">16,000</text></g><g class="tick" opacity="1" transform="translate(0,132.5)"><line stroke="currentColor" x2="-6"></line><text fill="currentColor" x="-9" dy="0.32em">18,000</text></g><g class="tick" opacity="1" transform="translate(0,110.50000000000001)"><line stroke="currentColor" x2="-6"></line><text fill="currentColor" x="-9" dy="0.32em">20,000</text></g><g class="tick" opacity="1" transform="translate(0,88.50000000000001)"><line stroke="currentColor" x2="-6"></line><text fill="currentColor" x="-9" dy="0.32em">22,000</text></g><g class="tick" opacity="1" transform="translate(0,66.49999999999999)"><line stroke="currentColor" x2="-6"></line><text fill="currentColor" x="-9" dy="0.32em">24,000</text></g><g class="tick" opacity="1" transform="translate(0,44.49999999999999)"><line stroke="currentColor" x2="-6"></line><text fill="currentColor" x="-9" dy="0.32em">26,000</text></g><g class="tick" opacity="1" transform="translate(0,22.499999999999996)"><line stroke="currentColor" x2="-6"></line><text fill="currentColor" x="-9" dy="0.32em">28,000</text></g><g class="tick" opacity="1" transform="translate(0,0.5)"><line stroke="currentColor" x2="-6"></line><text fill="currentColor" x="-9" dy="0.32em">30,000</text></g></g><text transform="rotate(-90)" y="-80" x="-165" dy="1em" text-anchor="middle" font-size="14px" fill="currentColor">Size (bytes)</text><g class="lines-group"><path class="line-path series-0" fill="none" stroke="#1f9bd9" stroke-width="2" d="M0,330L11.2,276.056L22.4,240.581L33.6,215.842L44.8,192.412L56,173.239L67.2,156.728L78.4,140.47L89.6,127.303L100.8,114.4L112,104.511L123.2,93.489L134.4,83.688L145.6,76.23L156.8,68.442L168,61.149L179.2,55.341L190.4,48.609L201.6,43.197L212.8,39.303L224,34.122L235.2,29.953L246.4,26.62L257.6,23.881L268.8,21.032L280,18.062L291.2,16.357L302.4,14.223L313.6,13.464L324.8,12.111L336,11.418L347.2,11.242L358.4,10.56L369.6,10.549L380.8,10.703L392,11.539L403.2,12.518L414.4,13.629L425.6,14.894L436.8,16.698L448,18.546L459.2,20.581L470.4,23.122L481.6,26.004L492.8,29.139L504,32.593L515.2,36.3L526.4,40.414L537.6,44.539L548.8,49.511L560,55"></path><path class="line-path series-1" fill="none" stroke="#ff6d22" stroke-width="2" d="M0,330L11.2,271.612L22.4,232.54L33.6,205.183L44.8,179.872L56,158.983L67.2,141.097L78.4,124.542L89.6,110.66L100.8,97.009L112,87.219L123.2,76.362L134.4,67.408L145.6,59.829L156.8,52.844L168,46.574L179.2,41.228L190.4,35.717L201.6,31.46L212.8,28.534L224,25.41L235.2,22.616L246.4,21.032L257.6,19.349L268.8,18.645L280,18.414L291.2,18.348L302.4,19.679L313.6,21.087L324.8,22.396L336,25.344L347.2,27.841L358.4,31.13L369.6,35.981L380.8,40.293L392,46.695L403.2,52.844L414.4,59.961L425.6,67.738L436.8,77.341L448,87.439L459.2,97.559L470.4,110.935L481.6,124.861L492.8,140.932L504,159.797L515.2,180.125L526.4,204.347L537.6,231.902L548.8,269.511L560,329.945"></path><path class="line-path series-2" fill="none" stroke="#48bc7f" stroke-width="2" d="M0,330L11.2,275.935L22.4,240.262L33.6,215.083L44.8,191.18L56,171.556L67.2,154.429L78.4,137.654L89.6,123.409L100.8,109.857L112,99.517L123.2,87.967L134.4,77.451L145.6,69.201L156.8,60.83L168,53.284L179.2,47.179L190.4,40.524L201.6,35.42L212.8,31.482L224,27.192L235.2,23.705L246.4,21.692L257.6,19.943L268.8,18.832L280,18.249L291.2,18.568L302.4,19.998L313.6,22.022L324.8,23.727L336,26.862L347.2,30.921L358.4,35.431L369.6,41.052L380.8,45.958L392,53.647L403.2,61.171L414.4,69.124L425.6,78.122L436.8,88.594L448,99.462L459.2,110.011L470.4,123.893L481.6,137.621L492.8,153.67L504,171.93L515.2,191.543L526.4,214.357L537.6,239.822L548.8,274.109L560,329.945"></path><path class="line-path series-3" fill="none" stroke="#f43550" stroke-width="2" d="M0,329.978L11.2,275.308L22.4,240.922L33.6,215.116L44.8,193.061L56,174.669L67.2,159.313L78.4,145.046L89.6,134.057L100.8,123.519L112,116.05L123.2,109.021L134.4,102.3L145.6,95.788L156.8,89.694L168,83.754L179.2,78.573L190.4,72.798L201.6,68.398L212.8,64.702L224,61.347L235.2,58.498L246.4,56.265L257.6,54.934L268.8,54.934L280,54.934L291.2,54.934L302.4,54.934L313.6,56.364L324.8,58.289L336,61.171L347.2,64.559L358.4,68.728L369.6,73.205L380.8,77.33L392,84.139L403.2,90.2L414.4,96.25L425.6,102.311L436.8,109.032L448,116.446L459.2,123.607L470.4,133.947L481.6,144.848L492.8,159.005L504,175.153L515.2,193.578L526.4,215.028L537.6,239.965L548.8,274.076L560,329.56"></path><path class="line-path series-4" fill="none" stroke="#b834cc" stroke-width="2" d="M0,329.967L11.2,279.895L22.4,225.797L33.6,173.932L44.8,128.315L56,96.602L67.2,75.955L78.4,61.501L89.6,54.098L100.8,50.776L112,50.083L123.2,49.5L134.4,49.632L145.6,50.226L156.8,51.139L168,51.755L179.2,52.327L190.4,53.141L201.6,53.471L212.8,54.01L224,54.351L235.2,54.714L246.4,54.494L257.6,54.824L268.8,54.824L280,54.813L291.2,54.923L302.4,54.769L313.6,54.67L324.8,54.791L336,54.406L347.2,54.439L358.4,53.702L369.6,52.844L380.8,51.744L392,50.985L403.2,48.686L414.4,45.452L425.6,42.163L436.8,38.379L448,34.122L459.2,30.547L470.4,26.081L481.6,25.377L492.8,27.709L504,39.611L515.2,59.51L526.4,100.166L537.6,159.368L548.8,237.545L560,329.923"></path><path class="line-path series-5" fill="none" stroke="#ff77b9" stroke-width="2" d="M0,330L11.2,289.773L22.4,259.611L33.6,236.181L44.8,214.181L56,194.491L67.2,177.529L78.4,161.084L89.6,145.97L100.8,131.241L112,120.285L123.2,108.702L134.4,98.373L145.6,89.474L156.8,80.421L168,72.259L179.2,65.802L190.4,58.85L201.6,53.812L212.8,49.885L224,46.189L235.2,42.394L246.4,39.688L257.6,37.345L268.8,35.915L280,35.706L291.2,36.223L302.4,38.181L313.6,39.809L324.8,41.987L336,45.133L347.2,48.279L358.4,52.382L369.6,58.08L380.8,64.108L392,72.083L403.2,79.761L414.4,87.758L425.6,97.339L436.8,107.69L448,119.097L459.2,130.68L470.4,145.618L481.6,159.555L492.8,175.758L504,194.293L515.2,213.917L526.4,235.158L537.6,258.643L548.8,288.387L560,329.956"></path><path class="line-path series-6" fill="none" stroke="#7f7f7f" stroke-width="2" d="M0,330L11.2,291.093L22.4,263.362L33.6,239.943L44.8,219.395L56,201.025L67.2,184.415L78.4,169.334L89.6,155.562L100.8,142.978L112,131.461L123.2,120.945L134.4,111.353L145.6,102.641L156.8,94.743L168,87.637L179.2,81.29L190.4,75.669L201.6,70.752L212.8,66.528L224,62.986L235.2,60.093L246.4,57.86L257.6,56.265L268.8,55.308L280,55L291.2,55.308L302.4,56.265L313.6,57.86L324.8,60.093L336,62.986L347.2,66.528L358.4,70.752L369.6,75.669L380.8,81.29L392,87.637L403.2,94.743L414.4,102.641L425.6,111.353L436.8,120.945L448,131.461L459.2,142.978L470.4,155.562L481.6,169.334L492.8,184.415L504,201.025L515.2,219.395L526.4,239.943L537.6,263.362L548.8,291.093L560,330"></path></g><g class="highlight-group"></g><g transform="translate(570, 20)" style="font-stretch: condensed;"><g transform="translate(0,0)" class="legend-item"><rect width="15" height="15" fill="#1f9bd9"></rect><text x="20" y="12" font-size="12px" fill="currentColor">gamma-coded gaps</text></g><g transform="translate(0,20)" class="legend-item"><rect width="15" height="15" fill="#ff6d22"></rect><text x="20" y="12" font-size="12px" fill="currentColor">gamma-coded run lengths</text></g><g transform="translate(0,40)" class="legend-item"><rect width="15" height="15" fill="#48bc7f"></rect><text x="20" y="12" font-size="12px" fill="currentColor">flip coding (gamma)</text></g><g transform="translate(0,60)" class="legend-item"><rect width="15" height="15" fill="#f43550"></rect><text x="20" y="12" font-size="12px" fill="currentColor">zlib'd bitset</text></g><g transform="translate(0,80)" class="legend-item"><rect width="15" height="15" fill="#b834cc"></rect><text x="20" y="12" font-size="12px" fill="currentColor">triple partitioned</text></g><g transform="translate(0,100)" class="legend-item"><rect width="15" height="15" fill="#ff77b9"></rect><text x="20" y="12" font-size="12px" fill="currentColor">seq. binary interp. (leftmost)</text></g><g transform="translate(0,120)" class="legend-item"><rect width="15" height="15" fill="#7f7f7f"></rect><text x="20" y="12" font-size="12px" fill="currentColor">lower bound</text></g></g></g></svg>