<svg width="800" height="450" xmlns="http://www.w3.org/2000/svg" id="chart"><g transform="translate(80,40)"><text x="280" y="-10" text-anchor="middle" font-size="20px" font-weight="bold" fill="currentColor">synthetic-varying-autocorr-90 - Per-Entry Size</text><g opacity="0.1" fill="none" font-size="10" text-anchor="end"><g class="tick" opacity="1" transform="translate(0,330.5)"><line stroke="currentColor" x2="560"></line><text fill="currentColor" x="-3" dy="0.32em"></text></g><g class="tick" opacity="1" transform="translate(0,283.3571428571429)"><line stroke="currentColor" x2="560"></line><text fill="currentColor" x="-3" dy="0.32em"></text></g><g class="tick" opacity="1" transform="translate(0,236.21428571428572)"><line stroke="currentColor" x2="560"></line><text fill="currentColor" x="-3" dy="0.32em"></text></g><g class="tick" opacity="1" transform="translate(0,189.07142857142856)"><line stroke="currentColor" x2="560"></line><text fill="currentColor" x="-3" dy="0.32em"></text></g><g class="tick" opacity="1" transform="translate(0,141.92857142857144)"><line stroke="currentColor" x2="560"></line><text fill="currentColor" x="-3" dy="0.32em"></text></g><g class="tick" opacity="1" transform="translate(0,94.78571428571428)"><line stroke="currentColor" x2="560"></line><text fill="currentColor" x="-3" dy="0.32em"></text></g><g class="tick" opacity="1" transform="translate(0,47.64285714285716)"><line stroke="currentColor" x2="560"></line><text fill="currentColor" x="-3" dy="0.32em"></text></g><g class="tick" opacity="1" transform="translate(0,0.5)"><line stroke="currentColor" x2="560"></line><text fill="currentColor" x="-3" dy="0.32em"></text></g></g><g font-size="10" transform="translate(0,330)" fill="none" text-anchor="middle"><path class="domain" stroke="currentColor" d="M0.5,6V0.5H560.5V6"></path><g class="tick" opacity="1" transform="translate(0.5,0)"><line stroke="currentColor" y2="6"></line><text fill="currentColor" y="9" dy="0.5em" transform="rotate(-35)" dx="-0.5em" font-size="9px" style="font-stretch: condensed; text-anchor: end;">autocorr=0.000, 90% density</text></g><g class="tick" opacity="1" transform="translate(22.900000000000002,0)"><line stroke="currentColor" y2="6"></line><text fill="currentColor" y="9" dy="0.5em" transform="rotate(-35)" dx="-0.5em" font-size="9px" style="font-stretch: condensed; text-anchor: end;">autocorr=0.040, 90% density</text></g><g class="tick" opacity="1" transform="translate(45.300000000000004,0)"><line stroke="currentColor" y2="6"></line><text fill="currentColor" y="9" dy="0.5em" transform="rotate(-35)" dx="-0.5em" font-size="9px" style="font-stretch: condensed; text-anchor: end;">autocorr=0.079, 90% density</text></g><g class="tick" opacity="1" transform="translate(67.7,0)"><line stroke="currentColor" y2="6"></line><text fill="currentColor" y="9" dy="0.5em" transform="rotate(-35)" dx="-0.5em" font-size="9px" style="font-stretch: condensed; text-anchor: end;">autocorr=0.119, 90% density</text></g><g class="tick" opacity="1" transform="translate(90.10000000000001,0)"><line stroke="currentColor" y2="6"></line><text fill="currentColor" y="9" dy="0.5em" transform="rotate(-35)" dx="-0.5em" font-size="9px" style="font-stretch: condensed; text-anchor: end;">autocorr=0.158, 90% density</text></g><g class="tick" opacity="1" transform="translate(112.5,0)"><line stroke="currentColor" y2="6"></line><text fill="currentColor" y="9" dy="0.5em" transform="rotate(-35)" dx="-0.5em" font-size="9px" style="font-stretch: condensed; text-anchor: end;">autocorr=0.198, 90% density</text></g><g class="tick" opacity="1" transform="translate(134.9,0)"><line stroke="currentColor" y2="6"></line><text fill="currentColor" y="9" dy="0.5em" transform="rotate(-35)" dx="-0.5em" font-size="9px" style="font-stretch: condensed; text-anchor: end;">autocorr=0.238, 90% density</text></g><g class="tick" opacity="1" transform="translate(157.3,0)"><line stroke="currentColor" y2="6"></line><text fill="currentColor" y="9" dy="0.5em" transform="rotate(-35)" dx="-0.5em" font-size="9px" style="font-stretch: condensed; text-anchor: end;">autocorr=0.277, 90% density</text></g><g class="tick" opacity="1" transform="translate(179.70000000000002,0)"><line stroke="currentColor" y2="6"></line><text fill="currentColor" y="9" dy="0.5em" transform="rotate(-35)" dx="-0.5em" font-size="9px" style="font-stretch: condensed; text-anchor: end;">autocorr=0.317, 90% density</text></g><g class="tick" opacity="1" transform="translate(202.1,0)"><line stroke="currentColor" y2="6"></line><text fill="currentColor" y="9" dy="0.5em" transform="rotate(-35)" dx="-0.5em" font-size="9px" style="font-stretch: condensed; text-anchor: end;">autocorr=0.356, 90% density</text></g><g class="tick" opacity="1" transform="translate(224.5,0)"><line stroke="currentColor" y2="6"></line><text fill="currentColor" y="9" dy="0.5em" transform="rotate(-35)" dx="-0.5em" font-size="9px" style="font-stretch: condensed; text-anchor: end;">autocorr=0.396, 90% density</text></g><g class="tick" opacity="1" transform="translate(246.9,0)"><line stroke="currentColor" y2="6"></line><text fill="currentColor" y="9" dy="0.5em" transform="rotate(-35)" dx="-0.5em" font-size="9px" style="font-stretch: condensed; text-anchor: end;">autocorr=0.436, 90% density</text></g><g class="tick" opacity="1" transform="translate(269.3,0)"><line stroke="currentColor" y2="6"></line><text fill="currentColor" y="9" dy="0.5em" transform="rotate(-35)" dx="-0.5em" font-size="9px" style="font-stretch: condensed; text-anchor: end;">autocorr=0.475, 90% density</text></g><g class="tick" opacity="1" transform="translate(291.7,0)"><line stroke="currentColor" y2="6"></line><text fill="currentColor" y="9" dy="0.5em" transform="rotate(-35)" dx="-0.5em" font-size="9px" style="font-stretch: condensed; text-anchor: end;">autocorr=0.515, 90% density</text></g><g class="tick" opacity="1" transform="translate(314.1,0)"><line stroke="currentColor" y2="6"></line><text fill="currentColor" y="9" dy="0.5em" transform="rotate(-35)" dx="-0.5em" font-size="9px" style="font-stretch: condensed; text-anchor: end;">autocorr=0.554, 90% density</text></g><g class="tick" opacity="1" transform="translate(336.5,0)"><line stroke="currentColor" y2="6"></line><text fill="currentColor" y="9" dy="0.5em" transform="rotate(-35)" dx="-0.5em" font-size="9px" style="font-stretch: condensed; text-anchor: end;">autocorr=0.594, 90% density</text></g><g class="tick" opacity="1" transform="translate(358.90000000000003,0)"><line stroke="currentColor" y2="6"></line><text fill="currentColor" y="9" dy="0.5em" transform="rotate(-35)" dx="-0.5em" font-size="9px" style="font-stretch: condensed; text-anchor: end;">autocorr=0.634, 90% density</text></g><g class="tick" opacity="1" transform="translate(381.3,0)"><line stroke="currentColor" y2="6"></line><text fill="currentColor" y="9" dy="0.5em" transform="rotate(-35)" dx="-0.5em" font-size="9px" style="font-stretch: condensed; text-anchor: end;">autocorr=0.673, 90% density</text></g><g class="tick" opacity="1" transform="translate(403.7,0)"><line stroke="currentColor" y2="6"></line><text fill="currentColor" y="9" dy="0.5em" transform="rotate(-35)" dx="-0.5em" font-size="9px" style="font-stretch: condensed; text-anchor: end;">autocorr=0.713, 90% density</text></g><g class="tick" opacity="1" transform="translate(426.1,0)"><line stroke="currentColor" y2="6"></line><text fill="currentColor" y="9" dy="0.5em" transform="rotate(-35)" dx="-0.5em" font-size="9px" style="font-stretch: condensed; text-anchor: end;">autocorr=0.752, 90% density</text></g><g class="tick" opacity="1" transform="translate(448.5,0)"><line stroke="currentColor" y2="6"></line><text fill="currentColor" y="9" dy="0.5em" transform="rotate(-35)" dx="-0.5em" font-size="9px" style="font-stretch: condensed; text-anchor: end;">autocorr=0.792, 90% density</text></g><g class="tick" opacity="1" transform="translate(470.9,0)"><line stroke="currentColor" y2="6"></line><text fill="currentColor" y="9" dy="0.5em" transform="rotate(-35)" dx="-0.5em" font-size="9px" style="font-stretch: condensed; text-anchor: end;">autocorr=0.832, 90% density</text></g><g class="tick" opacity="1" transform="translate(493.3,0)"><line stroke="currentColor" y2="6"></line><text fill="currentColor" y="9" dy="0.5em" transform="rotate(-35)" dx="-0.5em" font-size="9px" style="font-stretch: condensed; text-anchor: end;">autocorr=0.871, 90% density</text></g><g class="tick" opacity="1" transform="translate(515.7,0)"><line stroke="currentColor" y2="6"></line><text fill="currentColor" y="9" dy="0.5em" transform="rotate(-35)" dx="-0.5em" font-size="9px" style="font-stretch: condensed; text-anchor: end;">autocorr=0.911, 90% density</text></g><g class="tick" opacity="1" transform="translate(538.1,0)"><line stroke="currentColor" y2="6"></line><text fill="currentColor" y="9" dy="0.5em" transform="rotate(-35)" dx="-0.5em" font-size="9px" style="font-stretch: condensed; text-anchor: end;">autocorr=0.950, 90% density</text></g><g class="tick" opacity="1" transform="translate(560.5,0)"><line stroke="currentColor" y2="6"></line><text fill="currentColor" y="9" dy="0.5em" transform="rotate(-35)" dx="-0.5em" font-size="9px" style="font-stretch: condensed; text-anchor: end;">autocorr=0.990, 90% density</text></g></g><g font-size="10" fill="none" text-anchor="end"><path class="domain" stroke="currentColor" d="M-6,330.5H0.5V0.5H-6"></path><g class="tick" opacity="1" transform="translate(0,330.5)"><line stroke="currentColor" x2="-6"></line><text fill="currentColor" x="-9" dy="0.32em">0</text></g><g class="tick" opacity="1" transform="translate(0,283.3571428571429)"><line stroke="currentColor" x2="-6"></line><text fill="currentColor" x="-9" dy="0.32em">5,000</text></g><g class="tick" opacity="1" transform="translate(0,236.21428571428572)"><line stroke="currentColor" x2="-6"></line><text fill="currentColor" x="-9" dy="0.32em">10,000</text></g><g class="tick" opacity="1" transform="translate(0,189.07142857142856)"><line stroke="currentColor" x2="-6"></line><text fill="currentColor" x="-9" dy="0.32em">15,000</text></g><g class="tick" opacity="1" transform="translate(0,141.92857142857144)"><line stroke="currentColor" x2="-6"></line><text fill="currentColor" x="-9" dy="0.32em">20,000</text></g><g class="tick" opacity="1" transform="translate(0,94.78571428571428)"><line stroke="currentColor" x2="-6"></line><text fill="currentColor" x="-9" dy="0.32em">25,000</text></g><g class="tick" opacity="1" transform="translate(0,47.64285714285716)"><line stroke="currentColor" x2="-6"></line><text fill="currentColor" x="-9" dy="0.32em">30,000</text></g><g class="tick" opacity="1" transform="translate(0,0.5)"><line stroke="currentColor" x2="-6"></line><text fill="currentColor" x="-9" dy="0.32em">35,000</text></g></g><text transform="rotate(-90)" y="-80" x="-165" dy="1em" text-anchor="middle" font-size="14px" fill="currentColor">Size (bytes)</text><g class="lines-group"><path class="line-path series-0" fill="none" stroke="#1f9bd9" stroke-width="2" d="M0,75.004L11.2,75.843L22.4,76.277L33.6,77.163L44.8,77.559L56,78.059L67.2,78.719L78.4,79.511L89.6,79.954L100.8,80.661L112,81.208L123.2,81.727L134.4,82.047L145.6,82.67L156.8,83.33L168,84.141L179.2,84.461L190.4,85.121L201.6,85.63L212.8,86.064L224,86.667L235.2,87.299L246.4,87.657L257.6,88.27L268.8,88.808L280,89.524L291.2,89.854L302.4,90.571L313.6,91.137L324.8,91.957L336,92.711L347.2,93.371L358.4,93.852L369.6,94.569L380.8,95.53L392,95.889L403.2,96.728L414.4,97.671L425.6,98.331L436.8,99.396L448,100.367L459.2,100.669L470.4,102.281L481.6,102.932L492.8,104.742L504,105.76L515.2,107.608L526.4,108.429L537.6,109.626L548.8,112.379L560,118.866"></path><path class="line-path series-1" fill="none" stroke="#ff6d22" stroke-width="2" d="M0,183.48L11.2,185.309L22.4,185.517L33.6,187.732L44.8,188.025L56,188.241L67.2,189.844L78.4,192.805L89.6,192.899L100.8,194.889L112,195.765L123.2,198.009L134.4,198.481L145.6,201.328L156.8,203.638L168,206.156L179.2,205.42L190.4,207.975L201.6,210.559L212.8,211.728L224,213.557L235.2,217.725L246.4,217.696L257.6,219.629L268.8,222.005L280,224.994L291.2,225.418L302.4,228.294L313.6,231.038L324.8,234.093L336,236.695L347.2,239.778L358.4,242.597L369.6,244.294L380.8,247.962L392,250.272L403.2,254.76L414.4,256.947L425.6,261.237L436.8,264.019L448,267.922L459.2,272.627L470.4,276.097L481.6,281.235L492.8,285.903L504,290.343L515.2,295.312L526.4,300.705L537.6,307.428L548.8,314.594L560,323.079"></path><path class="line-path series-2" fill="none" stroke="#48bc7f" stroke-width="2" d="M0,193.927L11.2,195.53L22.4,196.029L33.6,197.84L44.8,197.925L56,198.019L67.2,199.207L78.4,201.809L89.6,201.951L100.8,203.252L112,203.978L123.2,206.127L134.4,206.297L145.6,208.447L156.8,210.304L168,212.35L179.2,211.417L190.4,213.425L201.6,215.565L212.8,216.254L224,217.8L235.2,221.609L246.4,221.109L257.6,222.307L268.8,224.419L280,227.266L291.2,227.238L302.4,229.633L313.6,232.065L324.8,234.555L336,236.846L347.2,239.259L358.4,241.918L369.6,243.493L380.8,246.595L392,248.829L403.2,253.157L414.4,254.788L425.6,259.116L436.8,261.473L448,265.32L459.2,270.091L470.4,273.381L481.6,278.746L492.8,283.338L504,287.892L515.2,293.059L526.4,298.707L537.6,305.787L548.8,313.519L560,322.655"></path><path class="line-path series-3" fill="none" stroke="#ffb92d" stroke-width="2" d="M0,7.43L11.2,15.689L22.4,18.735L33.6,28.144L44.8,30.69L56,34.311L67.2,41.759L78.4,51.169L89.6,54.327L100.8,62.37L112,67.424L123.2,74.853L134.4,77.597L145.6,86.554L156.8,93.767L168,103.054L179.2,104.252L190.4,112.294L201.6,119.498L212.8,124.419L224,130.275L235.2,140.731L246.4,142.466L257.6,149.367L268.8,155.986L280,163.548L291.2,166.16L302.4,173.646L313.6,180.897L324.8,187.949L336,195.049L347.2,202.281L358.4,208.164L369.6,212.746L380.8,220.629L392,224.937L403.2,233.404L414.4,238.269L425.6,245.482L436.8,250.753L448,257.787L459.2,264.141L470.4,269.808L481.6,277.219L492.8,283.677L504,289.287L515.2,294.897L526.4,301.243L537.6,308.352L548.8,315.442L560,323.739"></path><path class="line-path series-4" fill="none" stroke="#f43550" stroke-width="2" d="M0,196.425L11.2,196.869L22.4,196.963L33.6,197.811L44.8,197.321L56,197.029L67.2,197.519L78.4,199.047L89.6,199.065L100.8,200.169L112,200.027L123.2,202.714L134.4,202.205L145.6,204.063L156.8,205.203L168,207.617L179.2,206.891L190.4,208.692L201.6,210.502L212.8,211.407L224,212.539L235.2,216.857L246.4,216.141L257.6,217.989L268.8,220.374L280,223.099L291.2,223.099L302.4,225.654L313.6,228.322L324.8,231.075L336,233.659L347.2,236.733L358.4,238.892L369.6,240.768L380.8,244.257L392,246.369L403.2,250.847L414.4,252.733L425.6,257.183L436.8,259.239L448,263.906L459.2,268.007L470.4,271.675L481.6,276.823L492.8,281.641L504,286.393L515.2,291.503L526.4,297.311L537.6,304.873L548.8,313.01L560,322.325"></path><path class="line-path series-5" fill="none" stroke="#b834cc" stroke-width="2" d="M0,79.813L11.2,80.775L22.4,82.868L33.6,85.404L44.8,86.95L56,86.441L67.2,89.383L78.4,92.711L89.6,95.464L100.8,96.53L112,100.367L123.2,102.357L134.4,105.459L145.6,109.89L156.8,113.067L168,118.725L179.2,119.535L190.4,124.599L201.6,130.218L212.8,132.943L224,137.817L235.2,145.671L246.4,146.407L257.6,152.158L268.8,157.448L280,163.944L291.2,165.962L302.4,172.863L313.6,179.463L324.8,186.61L336,192.843L347.2,200.244L358.4,205.882L369.6,210.7L380.8,218.649L392,222.891L403.2,231.641L414.4,236.572L425.6,244.36L436.8,249.555L448,256.853L459.2,263.349L470.4,269.252L481.6,276.738L492.8,283.357L504,289.014L515.2,294.86L526.4,301.299L537.6,308.644L548.8,316.065L560,324.183"></path><path class="line-path series-6" fill="none" stroke="#ff77b9" stroke-width="2" d="M0,212.916L11.2,213.689L22.4,213.444L33.6,214.34L44.8,213.397L56,212.841L67.2,213.595L78.4,214.981L89.6,214.538L100.8,214.953L112,214.528L123.2,216.508L134.4,215.792L145.6,217.291L156.8,218.243L168,219.129L179.2,217.593L190.4,219.045L201.6,220.647L212.8,220.421L224,221.1L235.2,224.004L246.4,223.155L257.6,223.797L268.8,224.994L280,227.059L291.2,226.371L302.4,227.691L313.6,229.586L324.8,231.123L336,232.405L347.2,234.008L358.4,236.403L369.6,236.77L380.8,238.373L392,240.419L403.2,244.011L414.4,244.728L425.6,248.386L436.8,249.753L448,252.535L459.2,257.193L470.4,259.455L481.6,264.49L492.8,268.167L504,272.448L515.2,277.539L526.4,283.206L537.6,291.607L548.8,301.101L560,314.028"></path><path class="line-path series-7" fill="none" stroke="#7f7f7f" stroke-width="2" d="M0,219.45L11.2,219.507L22.4,219.695L33.6,219.978L44.8,220.365L56,220.836L67.2,221.402L78.4,222.043L89.6,222.759L100.8,223.551L112,224.419L123.2,225.352L134.4,226.361L145.6,227.427L156.8,228.567L168,229.774L179.2,231.038L190.4,232.367L201.6,233.763L212.8,235.224L224,236.751L235.2,238.345L246.4,239.995L257.6,241.72L268.8,243.502L280,245.36L291.2,247.283L302.4,249.273L313.6,251.337L324.8,253.478L336,255.684L347.2,257.975L358.4,260.351L369.6,262.803L380.8,265.339L392,267.969L403.2,270.694L414.4,273.513L425.6,276.446L436.8,279.482L448,282.65L459.2,285.94L470.4,289.372L481.6,292.955L492.8,296.727L504,300.687L515.2,304.892L526.4,309.37L537.6,314.226L548.8,319.581L560,325.833"></path></g><g class="highlight-group"></g><g transform="translate(570, 20)" style="font-stretch: condensed;"><g transform="translate(0,0)" class="legend-item"><rect width="15" height="15" fill="#1f9bd9"></rect><text x="20" y="12" font-size="12px" fill="currentColor">gamma-coded gaps</text></g><g transform="translate(0,20)" class="legend-item"><rect width="15" height="15" fill="#ff6d22"></rect><text x="20" y="12" font-size="12px" fill="currentColor">gamma-coded run lengths</text></g><g transform="translate(0,40)" class="legend-item"><rect width="15" height="15" fill="#48bc7f"></rect><text x="20" y="12" font-size="12px" fill="currentColor">flip coding (gamma)</text></g><g transform="translate(0,60)" class="legend-item"><rect width="15" height="15" fill="#ffb92d"></rect><text x="20" y="12" font-size="12px" fill="currentColor">LEB128 + ranges</text></g><g transform="translate(0,80)" class="legend-item"><rect width="15" height="15" fill="#f43550"></rect><text x="20" y="12" font-size="12px" fill="currentColor">zlib'd bitset</text></g><g transform="translate(0,100)" class="legend-item"><rect width="15" height="15" fill="#b834cc"></rect><text x="20" y="12" font-size="12px" fill="currentColor">triple partitioned</text></g><g transform="translate(0,120)" class="legend-item"><rect width="15" height="15" fill="#ff77b9"></rect><text x="20" y="12" font-size="12px" fill="currentColor">seq. binary interp. (leftmost)</text></g><g transform="translate(0,140)" class="legend-item"><rect width="15" height="15" fill="#7f7f7f"></rect><text x="20" y="12" font-size="12px" fill="currentColor">lower bound</text></g></g></g></svg>