<svg width="800" height="450" xmlns="http://www.w3.org/2000/svg" id="chart"><g transform="translate(80,40)"><text x="280" y="-10" text-anchor="middle" font-size="20px" font-weight="bold" fill="currentColor">synthetic-varying-cluster-90 - Per-Entry Size</text><g opacity="0.1" fill="none" font-size="10" text-anchor="end"><g class="tick" opacity="1" transform="translate(0,330.5)"><line stroke="currentColor" x2="560"></line><text fill="currentColor" x="-3" dy="0.32em"></text></g><g class="tick" opacity="1" transform="translate(0,283.3571428571429)"><line stroke="currentColor" x2="560"></line><text fill="currentColor" x="-3" dy="0.32em"></text></g><g class="tick" opacity="1" transform="translate(0,236.21428571428572)"><line stroke="currentColor" x2="560"></line><text fill="currentColor" x="-3" dy="0.32em"></text></g><g class="tick" opacity="1" transform="translate(0,189.07142857142856)"><line stroke="currentColor" x2="560"></line><text fill="currentColor" x="-3" dy="0.32em"></text></g><g class="tick" opacity="1" transform="translate(0,141.92857142857144)"><line stroke="currentColor" x2="560"></line><text fill="currentColor" x="-3" dy="0.32em"></text></g><g class="tick" opacity="1" transform="translate(0,94.78571428571428)"><line stroke="currentColor" x2="560"></line><text fill="currentColor" x="-3" dy="0.32em"></text></g><g class="tick" opacity="1" transform="translate(0,47.64285714285716)"><line stroke="currentColor" x2="560"></line><text fill="currentColor" x="-3" dy="0.32em"></text></g><g class="tick" opacity="1" transform="translate(0,0.5)"><line stroke="currentColor" x2="560"></line><text fill="currentColor" x="-3" dy="0.32em"></text></g></g><g font-size="10" transform="translate(0,330)" fill="none" text-anchor="middle"><path class="domain" stroke="currentColor" d="M0.5,6V0.5H560.5V6"></path><g class="tick" opacity="1" transform="translate(0.5,0)"><line stroke="currentColor" y2="6"></line><text fill="currentColor" y="9" dy="0.5em" transform="rotate(-35)" dx="-0.5em" font-size="9px" style="font-stretch: condensed; text-anchor: end;">90% density, avg_run=1.0</text></g><g class="tick" opacity="1" transform="translate(22.900000000000002,0)"><line stroke="currentColor" y2="6"></line><text fill="currentColor" y="9" dy="0.5em" transform="rotate(-35)" dx="-0.5em" font-size="9px" style="font-stretch: condensed; text-anchor: end;">90% density, avg_run=1.2</text></g><g class="tick" opacity="1" transform="translate(45.300000000000004,0)"><line stroke="currentColor" y2="6"></line><text fill="currentColor" y="9" dy="0.5em" transform="rotate(-35)" dx="-0.5em" font-size="9px" style="font-stretch: condensed; text-anchor: end;">90% density, avg_run=1.5</text></g><g class="tick" opacity="1" transform="translate(67.7,0)"><line stroke="currentColor" y2="6"></line><text fill="currentColor" y="9" dy="0.5em" transform="rotate(-35)" dx="-0.5em" font-size="9px" style="font-stretch: condensed; text-anchor: end;">90% density, avg_run=1.8</text></g><g class="tick" opacity="1" transform="translate(90.10000000000001,0)"><line stroke="currentColor" y2="6"></line><text fill="currentColor" y="9" dy="0.5em" transform="rotate(-35)" dx="-0.5em" font-size="9px" style="font-stretch: condensed; text-anchor: end;">90% density, avg_run=2.2</text></g><g class="tick" opacity="1" transform="translate(112.5,0)"><line stroke="currentColor" y2="6"></line><text fill="currentColor" y="9" dy="0.5em" transform="rotate(-35)" dx="-0.5em" font-size="9px" style="font-stretch: condensed; text-anchor: end;">90% density, avg_run=2.6</text></g><g class="tick" opacity="1" transform="translate(134.9,0)"><line stroke="currentColor" y2="6"></line><text fill="currentColor" y="9" dy="0.5em" transform="rotate(-35)" dx="-0.5em" font-size="9px" style="font-stretch: condensed; text-anchor: end;">90% density, avg_run=3.2</text></g><g class="tick" opacity="1" transform="translate(157.3,0)"><line stroke="currentColor" y2="6"></line><text fill="currentColor" y="9" dy="0.5em" transform="rotate(-35)" dx="-0.5em" font-size="9px" style="font-stretch: condensed; text-anchor: end;">90% density, avg_run=3.9</text></g><g class="tick" opacity="1" transform="translate(179.70000000000002,0)"><line stroke="currentColor" y2="6"></line><text fill="currentColor" y="9" dy="0.5em" transform="rotate(-35)" dx="-0.5em" font-size="9px" style="font-stretch: condensed; text-anchor: end;">90% density, avg_run=4.7</text></g><g class="tick" opacity="1" transform="translate(202.1,0)"><line stroke="currentColor" y2="6"></line><text fill="currentColor" y="9" dy="0.5em" transform="rotate(-35)" dx="-0.5em" font-size="9px" style="font-stretch: condensed; text-anchor: end;">90% density, avg_run=5.7</text></g><g class="tick" opacity="1" transform="translate(224.5,0)"><line stroke="currentColor" y2="6"></line><text fill="currentColor" y="9" dy="0.5em" transform="rotate(-35)" dx="-0.5em" font-size="9px" style="font-stretch: condensed; text-anchor: end;">90% density, avg_run=7.0</text></g><g class="tick" opacity="1" transform="translate(246.9,0)"><line stroke="currentColor" y2="6"></line><text fill="currentColor" y="9" dy="0.5em" transform="rotate(-35)" dx="-0.5em" font-size="9px" style="font-stretch: condensed; text-anchor: end;">90% density, avg_run=8.5</text></g><g class="tick" opacity="1" transform="translate(269.3,0)"><line stroke="currentColor" y2="6"></line><text fill="currentColor" y="9" dy="0.5em" transform="rotate(-35)" dx="-0.5em" font-size="9px" style="font-stretch: condensed; text-anchor: end;">90% density, avg_run=10.3</text></g><g class="tick" opacity="1" transform="translate(291.7,0)"><line stroke="currentColor" y2="6"></line><text fill="currentColor" y="9" dy="0.5em" transform="rotate(-35)" dx="-0.5em" font-size="9px" style="font-stretch: condensed; text-anchor: end;">90% density, avg_run=12.5</text></g><g class="tick" opacity="1" transform="translate(314.1,0)"><line stroke="currentColor" y2="6"></line><text fill="currentColor" y="9" dy="0.5em" transform="rotate(-35)" dx="-0.5em" font-size="9px" style="font-stretch: condensed; text-anchor: end;">90% density, avg_run=15.1</text></g><g class="tick" opacity="1" transform="translate(336.5,0)"><line stroke="currentColor" y2="6"></line><text fill="currentColor" y="9" dy="0.5em" transform="rotate(-35)" dx="-0.5em" font-size="9px" style="font-stretch: condensed; text-anchor: end;">90% density, avg_run=18.4</text></g><g class="tick" opacity="1" transform="translate(358.90000000000003,0)"><line stroke="currentColor" y2="6"></line><text fill="currentColor" y="9" dy="0.5em" transform="rotate(-35)" dx="-0.5em" font-size="9px" style="font-stretch: condensed; text-anchor: end;">90% density, avg_run=22.3</text></g><g class="tick" opacity="1" transform="translate(381.3,0)"><line stroke="currentColor" y2="6"></line><text fill="currentColor" y="9" dy="0.5em" transform="rotate(-35)" dx="-0.5em" font-size="9px" style="font-stretch: condensed; text-anchor: end;">90% density, avg_run=27.1</text></g><g class="tick" opacity="1" transform="translate(403.7,0)"><line stroke="currentColor" y2="6"></line><text fill="currentColor" y="9" dy="0.5em" transform="rotate(-35)" dx="-0.5em" font-size="9px" style="font-stretch: condensed; text-anchor: end;">90% density, avg_run=32.9</text></g><g class="tick" opacity="1" transform="translate(426.1,0)"><line stroke="currentColor" y2="6"></line><text fill="currentColor" y="9" dy="0.5em" transform="rotate(-35)" dx="-0.5em" font-size="9px" style="font-stretch: condensed; text-anchor: end;">90% density, avg_run=39.9</text></g><g class="tick" opacity="1" transform="translate(448.5,0)"><line stroke="currentColor" y2="6"></line><text fill="currentColor" y="9" dy="0.5em" transform="rotate(-35)" dx="-0.5em" font-size="9px" style="font-stretch: condensed; text-anchor: end;">90% density, avg_run=48.5</text></g><g class="tick" opacity="1" transform="translate(470.9,0)"><line stroke="currentColor" y2="6"></line><text fill="currentColor" y="9" dy="0.5em" transform="rotate(-35)" dx="-0.5em" font-size="9px" style="font-stretch: condensed; text-anchor: end;">90% density, avg_run=58.9</text></g><g class="tick" opacity="1" transform="translate(493.3,0)"><line stroke="currentColor" y2="6"></line><text fill="currentColor" y="9" dy="0.5em" transform="rotate(-35)" dx="-0.5em" font-size="9px" style="font-stretch: condensed; text-anchor: end;">90% density, avg_run=71.5</text></g><g class="tick" opacity="1" transform="translate(515.7,0)"><line stroke="currentColor" y2="6"></line><text fill="currentColor" y="9" dy="0.5em" transform="rotate(-35)" dx="-0.5em" font-size="9px" style="font-stretch: condensed; text-anchor: end;">90% density, avg_run=86.8</text></g><g class="tick" opacity="1" transform="translate(538.1,0)"><line stroke="currentColor" y2="6"></line><text fill="currentColor" y="9" dy="0.5em" transform="rotate(-35)" dx="-0.5em" font-size="9px" style="font-stretch: condensed; text-anchor: end;">90% density, avg_run=105.4</text></g><g class="tick" opacity="1" transform="translate(560.5,0)"><line stroke="currentColor" y2="6"></line><text fill="currentColor" y="9" dy="0.5em" transform="rotate(-35)" dx="-0.5em" font-size="9px" style="font-stretch: condensed; text-anchor: end;">90% density, avg_run=128.0</text></g></g><g font-size="10" fill="none" text-anchor="end"><path class="domain" stroke="currentColor" d="M-6,330.5H0.5V0.5H-6"></path><g class="tick" opacity="1" transform="translate(0,330.5)"><line stroke="currentColor" x2="-6"></line><text fill="currentColor" x="-9" dy="0.32em">0</text></g><g class="tick" opacity="1" transform="translate(0,283.3571428571429)"><line stroke="currentColor" x2="-6"></line><text fill="currentColor" x="-9" dy="0.32em">5,000</text></g><g class="tick" opacity="1" transform="translate(0,236.21428571428572)"><line stroke="currentColor" x2="-6"></line><text fill="currentColor" x="-9" dy="0.32em">10,000</text></g><g class="tick" opacity="1" transform="translate(0,189.07142857142856)"><line stroke="currentColor" x2="-6"></line><text fill="currentColor" x="-9" dy="0.32em">15,000</text></g><g class="tick" opacity="1" transform="translate(0,141.92857142857144)"><line stroke="currentColor" x2="-6"></line><text fill="currentColor" x="-9" dy="0.32em">20,000</text></g><g class="tick" opacity="1" transform="translate(0,94.78571428571428)"><line stroke="currentColor" x2="-6"></line><text fill="currentColor" x="-9" dy="0.32em">25,000</text></g><g class="tick" opacity="1" transform="translate(0,47.64285714285716)"><line stroke="currentColor" x2="-6"></line><text fill="currentColor" x="-9" dy="0.32em">30,000</text></g><g class="tick" opacity="1" transform="translate(0,0.5)"><line stroke="currentColor" x2="-6"></line><text fill="currentColor" x="-9" dy="0.32em">35,000</text></g></g><text transform="rotate(-90)" y="-80" x="-165" dy="1em" text-anchor="middle" font-size="14px" fill="currentColor">Size (bytes)</text><g class="lines-group"><path class="line-path series-0" fill="none" stroke="#1f9bd9" stroke-width="2" d="M0,74.967L11.2,77.861L22.4,80.577L33.6,82.83L44.8,84.48L56,86.319L67.2,87.921L78.4,89.336L89.6,90.675L100.8,92.174L112,93.447L123.2,94.983L134.4,95.832L145.6,96.926L156.8,97.944L168,99.047L179.2,99.933L190.4,101.282L201.6,101.442L212.8,102.979L224,103.13L235.2,104.11L246.4,105.817L257.6,106.147L268.8,105.902L280,107.42L291.2,108.825L302.4,108.683L313.6,107.655L324.8,109.645L336,109.852L347.2,109.089L358.4,109.503L369.6,110.55L380.8,111.663L392,111.021L403.2,112.577L414.4,113.265L425.6,111.191L436.8,113.68L448,114.972L459.2,113.661L470.4,116.301L481.6,113.709L492.8,116.858L504,112.671L515.2,115.773L526.4,114.595L537.6,116.499L548.8,116.999L560,116.405"></path><path class="line-path series-1" fill="none" stroke="#ff6d22" stroke-width="2" d="M0,183.735L11.2,187.977L22.4,194.785L33.6,202.177L44.8,206.467L56,213.425L67.2,217.847L78.4,224.155L89.6,229.331L100.8,235.799L112,241.4L123.2,246.963L134.4,250.121L145.6,254.996L156.8,257.853L168,264.198L179.2,267.46L190.4,269.883L201.6,274.136L212.8,277.228L224,281.245L235.2,284.271L246.4,286.676L257.6,289.844L268.8,292.465L280,294.841L291.2,296.953L302.4,299.791L313.6,301.629L324.8,304.269L336,305.523L347.2,308.107L358.4,310.615L369.6,310.879L380.8,312.095L392,313.792L403.2,314.556L414.4,316.017L425.6,317.366L436.8,318.375L448,318.459L459.2,318.799L470.4,320.289L481.6,321.288L492.8,320.873L504,322.646L515.2,322.966L526.4,323.362L537.6,324.013L548.8,324.211L560,324.305"></path><path class="line-path series-2" fill="none" stroke="#48bc7f" stroke-width="2" d="M0,194.276L11.2,197.849L22.4,203.355L33.6,209.418L44.8,212.209L56,217.753L67.2,221.109L78.4,226.201L89.6,230.566L100.8,235.997L112,241.145L123.2,245.812L134.4,248.603L145.6,253.063L156.8,255.712L168,261.794L179.2,264.905L190.4,267.045L201.6,271.467L212.8,274.456L224,278.652L235.2,281.631L246.4,284.092L257.6,287.345L268.8,290.117L280,292.578L291.2,294.737L302.4,297.811L313.6,299.829L324.8,302.516L336,303.911L347.2,306.636L358.4,309.257L369.6,309.549L380.8,310.869L392,312.708L403.2,313.509L414.4,315.103L425.6,316.517L436.8,317.592L448,317.705L459.2,318.054L470.4,319.666L481.6,320.732L492.8,320.307L504,322.203L515.2,322.57L526.4,322.957L537.6,323.664L548.8,323.862L560,323.966"></path><path class="line-path series-3" fill="none" stroke="#ffb92d" stroke-width="2" d="M0,8.156L11.2,32.227L22.4,61.314L33.6,88.581L44.8,106.081L56,128.832L67.2,144.945L78.4,161.719L89.6,175.994L100.8,191.928L112,205.062L123.2,217.366L134.4,224.494L145.6,234.357L156.8,240.127L168,250.715L179.2,256.646L190.4,260.766L201.6,266.904L212.8,271.948L224,276.776L235.2,281.481L246.4,285.016L257.6,288.524L268.8,291.569L280,294.775L291.2,297.339L302.4,300.083L313.6,302.073L324.8,304.948L336,306.146L347.2,308.993L358.4,311.331L369.6,311.633L380.8,312.887L392,314.613L403.2,315.348L414.4,316.847L425.6,318.092L436.8,319.082L448,319.233L459.2,319.534L470.4,320.779L481.6,321.873L492.8,321.495L504,323.334L515.2,323.485L526.4,323.89L537.6,324.522L548.8,324.739L560,324.833"></path><path class="line-path series-4" fill="none" stroke="#f43550" stroke-width="2" d="M0,196.869L11.2,196.416L22.4,199.565L33.6,205.288L44.8,207.278L56,212.69L67.2,216.744L78.4,221.939L89.6,226.748L100.8,232.537L112,238.241L123.2,243.031L134.4,246.812L145.6,250.989L156.8,253.6L168,259.889L179.2,263.302L190.4,265.263L201.6,269.497L212.8,272.882L224,276.568L235.2,279.934L246.4,282.508L257.6,285.686L268.8,288.571L280,291.211L291.2,293.606L302.4,296.151L313.6,298.556L324.8,301.488L336,302.421L347.2,305.712L358.4,308.163L369.6,308.861L380.8,310.002L392,311.85L403.2,312.736L414.4,314.481L425.6,315.782L436.8,317.149L448,317.13L459.2,317.733L470.4,319.11L481.6,320.27L492.8,320.053L504,321.637L515.2,322.005L526.4,322.551L537.6,322.844L548.8,323.268L560,323.259"></path><path class="line-path series-5" fill="none" stroke="#b834cc" stroke-width="2" d="M0,79.464L11.2,86.856L22.4,97.557L33.6,111.069L44.8,120.507L56,135.602L67.2,148.613L78.4,162.285L89.6,175.004L100.8,189.995L112,203.025L123.2,215.594L134.4,222.439L145.6,232.65L156.8,238.911L168,249.471L179.2,255.769L190.4,259.814L201.6,266.159L212.8,271.307L224,276.304L235.2,281.028L246.4,284.564L257.6,288.25L268.8,291.409L280,294.652L291.2,297.283L302.4,300.102L313.6,302.082L324.8,305.109L336,306.429L347.2,309.276L358.4,311.756L369.6,312.076L380.8,313.491L392,315.244L403.2,316.093L414.4,317.62L425.6,318.78L436.8,319.742L448,319.808L459.2,320.157L470.4,321.467L481.6,322.599L492.8,322.118L504,323.777L515.2,323.843L526.4,324.343L537.6,324.843L548.8,325.097L560,325.229"></path><path class="line-path series-6" fill="none" stroke="#ff77b9" stroke-width="2" d="M0,213.472L11.2,212.831L22.4,214.868L33.6,218.281L44.8,218.564L56,221.826L67.2,222.656L78.4,225.777L89.6,228.813L100.8,232.245L112,235.262L123.2,238.515L134.4,240.57L145.6,243.512L156.8,244.983L168,250.555L179.2,252.459L190.4,253.657L201.6,258.069L212.8,259.917L224,264.273L235.2,266.772L246.4,267.903L257.6,271.826L268.8,274.843L280,276.37L291.2,278.482L302.4,282.442L313.6,285.045L324.8,287.496L336,289.476L347.2,292.587L358.4,296.114L369.6,296.133L380.8,297.679L392,300.338L403.2,301.017L414.4,303.1L425.6,305.731L436.8,306.608L448,306.853L459.2,307.447L470.4,309.71L481.6,311.397L492.8,310.294L504,313.802L515.2,314.462L526.4,315.254L537.6,316.357L548.8,316.574L560,316.781"></path><path class="line-path series-7" fill="none" stroke="#7f7f7f" stroke-width="2" d="M0,219.45L11.2,220.676L22.4,223.476L33.6,227.163L44.8,231.358L56,235.856L67.2,240.485L78.4,245.171L89.6,249.819L100.8,254.392L112,258.843L123.2,263.142L134.4,267.291L145.6,271.251L156.8,275.041L168,278.633L179.2,282.046L190.4,285.28L201.6,288.326L212.8,291.192L224,293.898L235.2,296.434L246.4,298.81L257.6,301.035L268.8,303.119L280,305.071L291.2,306.881L302.4,308.578L313.6,310.162L324.8,311.633L336,313L347.2,314.283L358.4,315.461L369.6,316.564L380.8,317.583L392,318.535L403.2,319.412L414.4,320.223L425.6,320.977L436.8,321.675L448,322.325L459.2,322.919L470.4,323.475L481.6,323.985L492.8,324.456L504,324.89L515.2,325.295L526.4,325.672L537.6,326.012L548.8,326.332L560,326.625"></path></g><g class="highlight-group"></g><g transform="translate(570, 20)" style="font-stretch: condensed;"><g transform="translate(0,0)" class="legend-item"><rect width="15" height="15" fill="#1f9bd9"></rect><text x="20" y="12" font-size="12px" fill="currentColor">gamma-coded gaps</text></g><g transform="translate(0,20)" class="legend-item"><rect width="15" height="15" fill="#ff6d22"></rect><text x="20" y="12" font-size="12px" fill="currentColor">gamma-coded run lengths</text></g><g transform="translate(0,40)" class="legend-item"><rect width="15" height="15" fill="#48bc7f"></rect><text x="20" y="12" font-size="12px" fill="currentColor">flip coding (gamma)</text></g><g transform="translate(0,60)" class="legend-item"><rect width="15" height="15" fill="#ffb92d"></rect><text x="20" y="12" font-size="12px" fill="currentColor">LEB128 + ranges</text></g><g transform="translate(0,80)" class="legend-item"><rect width="15" height="15" fill="#f43550"></rect><text x="20" y="12" font-size="12px" fill="currentColor">zlib'd bitset</text></g><g transform="translate(0,100)" class="legend-item"><rect width="15" height="15" fill="#b834cc"></rect><text x="20" y="12" font-size="12px" fill="currentColor">triple partitioned</text></g><g transform="translate(0,120)" class="legend-item"><rect width="15" height="15" fill="#ff77b9"></rect><text x="20" y="12" font-size="12px" fill="currentColor">seq. binary interp. (leftmost)</text></g><g transform="translate(0,140)" class="legend-item"><rect width="15" height="15" fill="#7f7f7f"></rect><text x="20" y="12" font-size="12px" fill="currentColor">lower bound</text></g></g></g></svg>