<svg width="800" height="450" xmlns="http://www.w3.org/2000/svg" id="chart"><g transform="translate(80,40)"><text x="280" y="-10" text-anchor="middle" font-size="20px" font-weight="bold" fill="currentColor">synthetic-varying-cluster-10 - Per-Entry Size</text><g opacity="0.1" fill="none" font-size="10" text-anchor="end"><g class="tick" opacity="1" transform="translate(0,330.5)"><line stroke="currentColor" x2="560"></line><text fill="currentColor" x="-3" dy="0.32em"></text></g><g class="tick" opacity="1" transform="translate(0,300.5)"><line stroke="currentColor" x2="560"></line><text fill="currentColor" x="-3" dy="0.32em"></text></g><g class="tick" opacity="1" transform="translate(0,270.5)"><line stroke="currentColor" x2="560"></line><text fill="currentColor" x="-3" dy="0.32em"></text></g><g class="tick" opacity="1" transform="translate(0,240.5)"><line stroke="currentColor" x2="560"></line><text fill="currentColor" x="-3" dy="0.32em"></text></g><g class="tick" opacity="1" transform="translate(0,210.5)"><line stroke="currentColor" x2="560"></line><text fill="currentColor" x="-3" dy="0.32em"></text></g><g class="tick" opacity="1" transform="translate(0,180.5)"><line stroke="currentColor" x2="560"></line><text fill="currentColor" x="-3" dy="0.32em"></text></g><g class="tick" opacity="1" transform="translate(0,150.5)"><line stroke="currentColor" x2="560"></line><text fill="currentColor" x="-3" dy="0.32em"></text></g><g class="tick" opacity="1" transform="translate(0,120.5)"><line stroke="currentColor" x2="560"></line><text fill="currentColor" x="-3" dy="0.32em"></text></g><g class="tick" opacity="1" transform="translate(0,90.5)"><line stroke="currentColor" x2="560"></line><text fill="currentColor" x="-3" dy="0.32em"></text></g><g class="tick" opacity="1" transform="translate(0,60.499999999999986)"><line stroke="currentColor" x2="560"></line><text fill="currentColor" x="-3" dy="0.32em"></text></g><g class="tick" opacity="1" transform="translate(0,30.50000000000001)"><line stroke="currentColor" x2="560"></line><text fill="currentColor" x="-3" dy="0.32em"></text></g><g class="tick" opacity="1" transform="translate(0,0.5)"><line stroke="currentColor" x2="560"></line><text fill="currentColor" x="-3" dy="0.32em"></text></g></g><g font-size="10" transform="translate(0,330)" fill="none" text-anchor="middle"><path class="domain" stroke="currentColor" d="M0.5,6V0.5H560.5V6"></path><g class="tick" opacity="1" transform="translate(0.5,0)"><line stroke="currentColor" y2="6"></line><text fill="currentColor" y="9" dy="0.5em" transform="rotate(-35)" dx="-0.5em" font-size="9px" style="font-stretch: condensed; text-anchor: end;">10% density, avg_run=1.0</text></g><g class="tick" opacity="1" transform="translate(22.900000000000002,0)"><line stroke="currentColor" y2="6"></line><text fill="currentColor" y="9" dy="0.5em" transform="rotate(-35)" dx="-0.5em" font-size="9px" style="font-stretch: condensed; text-anchor: end;">10% density, avg_run=1.2</text></g><g class="tick" opacity="1" transform="translate(45.300000000000004,0)"><line stroke="currentColor" y2="6"></line><text fill="currentColor" y="9" dy="0.5em" transform="rotate(-35)" dx="-0.5em" font-size="9px" style="font-stretch: condensed; text-anchor: end;">10% density, avg_run=1.5</text></g><g class="tick" opacity="1" transform="translate(67.7,0)"><line stroke="currentColor" y2="6"></line><text fill="currentColor" y="9" dy="0.5em" transform="rotate(-35)" dx="-0.5em" font-size="9px" style="font-stretch: condensed; text-anchor: end;">10% density, avg_run=1.8</text></g><g class="tick" opacity="1" transform="translate(90.10000000000001,0)"><line stroke="currentColor" y2="6"></line><text fill="currentColor" y="9" dy="0.5em" transform="rotate(-35)" dx="-0.5em" font-size="9px" style="font-stretch: condensed; text-anchor: end;">10% density, avg_run=2.2</text></g><g class="tick" opacity="1" transform="translate(112.5,0)"><line stroke="currentColor" y2="6"></line><text fill="currentColor" y="9" dy="0.5em" transform="rotate(-35)" dx="-0.5em" font-size="9px" style="font-stretch: condensed; text-anchor: end;">10% density, avg_run=2.6</text></g><g class="tick" opacity="1" transform="translate(134.9,0)"><line stroke="currentColor" y2="6"></line><text fill="currentColor" y="9" dy="0.5em" transform="rotate(-35)" dx="-0.5em" font-size="9px" style="font-stretch: condensed; text-anchor: end;">10% density, avg_run=3.2</text></g><g class="tick" opacity="1" transform="translate(157.3,0)"><line stroke="currentColor" y2="6"></line><text fill="currentColor" y="9" dy="0.5em" transform="rotate(-35)" dx="-0.5em" font-size="9px" style="font-stretch: condensed; text-anchor: end;">10% density, avg_run=3.9</text></g><g class="tick" opacity="1" transform="translate(179.70000000000002,0)"><line stroke="currentColor" y2="6"></line><text fill="currentColor" y="9" dy="0.5em" transform="rotate(-35)" dx="-0.5em" font-size="9px" style="font-stretch: condensed; text-anchor: end;">10% density, avg_run=4.7</text></g><g class="tick" opacity="1" transform="translate(202.1,0)"><line stroke="currentColor" y2="6"></line><text fill="currentColor" y="9" dy="0.5em" transform="rotate(-35)" dx="-0.5em" font-size="9px" style="font-stretch: condensed; text-anchor: end;">10% density, avg_run=5.7</text></g><g class="tick" opacity="1" transform="translate(224.5,0)"><line stroke="currentColor" y2="6"></line><text fill="currentColor" y="9" dy="0.5em" transform="rotate(-35)" dx="-0.5em" font-size="9px" style="font-stretch: condensed; text-anchor: end;">10% density, avg_run=7.0</text></g><g class="tick" opacity="1" transform="translate(246.9,0)"><line stroke="currentColor" y2="6"></line><text fill="currentColor" y="9" dy="0.5em" transform="rotate(-35)" dx="-0.5em" font-size="9px" style="font-stretch: condensed; text-anchor: end;">10% density, avg_run=8.5</text></g><g class="tick" opacity="1" transform="translate(269.3,0)"><line stroke="currentColor" y2="6"></line><text fill="currentColor" y="9" dy="0.5em" transform="rotate(-35)" dx="-0.5em" font-size="9px" style="font-stretch: condensed; text-anchor: end;">10% density, avg_run=10.3</text></g><g class="tick" opacity="1" transform="translate(291.7,0)"><line stroke="currentColor" y2="6"></line><text fill="currentColor" y="9" dy="0.5em" transform="rotate(-35)" dx="-0.5em" font-size="9px" style="font-stretch: condensed; text-anchor: end;">10% density, avg_run=12.5</text></g><g class="tick" opacity="1" transform="translate(314.1,0)"><line stroke="currentColor" y2="6"></line><text fill="currentColor" y="9" dy="0.5em" transform="rotate(-35)" dx="-0.5em" font-size="9px" style="font-stretch: condensed; text-anchor: end;">10% density, avg_run=15.1</text></g><g class="tick" opacity="1" transform="translate(336.5,0)"><line stroke="currentColor" y2="6"></line><text fill="currentColor" y="9" dy="0.5em" transform="rotate(-35)" dx="-0.5em" font-size="9px" style="font-stretch: condensed; text-anchor: end;">10% density, avg_run=18.4</text></g><g class="tick" opacity="1" transform="translate(358.90000000000003,0)"><line stroke="currentColor" y2="6"></line><text fill="currentColor" y="9" dy="0.5em" transform="rotate(-35)" dx="-0.5em" font-size="9px" style="font-stretch: condensed; text-anchor: end;">10% density, avg_run=22.3</text></g><g class="tick" opacity="1" transform="translate(381.3,0)"><line stroke="currentColor" y2="6"></line><text fill="currentColor" y="9" dy="0.5em" transform="rotate(-35)" dx="-0.5em" font-size="9px" style="font-stretch: condensed; text-anchor: end;">10% density, avg_run=27.1</text></g><g class="tick" opacity="1" transform="translate(403.7,0)"><line stroke="currentColor" y2="6"></line><text fill="currentColor" y="9" dy="0.5em" transform="rotate(-35)" dx="-0.5em" font-size="9px" style="font-stretch: condensed; text-anchor: end;">10% density, avg_run=32.9</text></g><g class="tick" opacity="1" transform="translate(426.1,0)"><line stroke="currentColor" y2="6"></line><text fill="currentColor" y="9" dy="0.5em" transform="rotate(-35)" dx="-0.5em" font-size="9px" style="font-stretch: condensed; text-anchor: end;">10% density, avg_run=39.9</text></g><g class="tick" opacity="1" transform="translate(448.5,0)"><line stroke="currentColor" y2="6"></line><text fill="currentColor" y="9" dy="0.5em" transform="rotate(-35)" dx="-0.5em" font-size="9px" style="font-stretch: condensed; text-anchor: end;">10% density, avg_run=48.5</text></g><g class="tick" opacity="1" transform="translate(470.9,0)"><line stroke="currentColor" y2="6"></line><text fill="currentColor" y="9" dy="0.5em" transform="rotate(-35)" dx="-0.5em" font-size="9px" style="font-stretch: condensed; text-anchor: end;">10% density, avg_run=58.9</text></g><g class="tick" opacity="1" transform="translate(493.3,0)"><line stroke="currentColor" y2="6"></line><text fill="currentColor" y="9" dy="0.5em" transform="rotate(-35)" dx="-0.5em" font-size="9px" style="font-stretch: condensed; text-anchor: end;">10% density, avg_run=71.5</text></g><g class="tick" opacity="1" transform="translate(515.7,0)"><line stroke="currentColor" y2="6"></line><text fill="currentColor" y="9" dy="0.5em" transform="rotate(-35)" dx="-0.5em" font-size="9px" style="font-stretch: condensed; text-anchor: end;">10% density, avg_run=86.8</text></g><g class="tick" opacity="1" transform="translate(538.1,0)"><line stroke="currentColor" y2="6"></line><text fill="currentColor" y="9" dy="0.5em" transform="rotate(-35)" dx="-0.5em" font-size="9px" style="font-stretch: condensed; text-anchor: end;">10% density, avg_run=105.4</text></g><g class="tick" opacity="1" transform="translate(560.5,0)"><line stroke="currentColor" y2="6"></line><text fill="currentColor" y="9" dy="0.5em" transform="rotate(-35)" dx="-0.5em" font-size="9px" style="font-stretch: condensed; text-anchor: end;">10% density, avg_run=128.0</text></g></g><g font-size="10" fill="none" text-anchor="end"><path class="domain" stroke="currentColor" d="M-6,330.5H0.5V0.5H-6"></path><g class="tick" opacity="1" transform="translate(0,330.5)"><line stroke="currentColor" x2="-6"></line><text fill="currentColor" x="-9" dy="0.32em">0</text></g><g class="tick" opacity="1" transform="translate(0,300.5)"><line stroke="currentColor" x2="-6"></line><text fill="currentColor" x="-9" dy="0.32em">2,000</text></g><g class="tick" opacity="1" transform="translate(0,270.5)"><line stroke="currentColor" x2="-6"></line><text fill="currentColor" x="-9" dy="0.32em">4,000</text></g><g class="tick" opacity="1" transform="translate(0,240.5)"><line stroke="currentColor" x2="-6"></line><text fill="currentColor" x="-9" dy="0.32em">6,000</text></g><g class="tick" opacity="1" transform="translate(0,210.5)"><line stroke="currentColor" x2="-6"></line><text fill="currentColor" x="-9" dy="0.32em">8,000</text></g><g class="tick" opacity="1" transform="translate(0,180.5)"><line stroke="currentColor" x2="-6"></line><text fill="currentColor" x="-9" dy="0.32em">10,000</text></g><g class="tick" opacity="1" transform="translate(0,150.5)"><line stroke="currentColor" x2="-6"></line><text fill="currentColor" x="-9" dy="0.32em">12,000</text></g><g class="tick" opacity="1" transform="translate(0,120.5)"><line stroke="currentColor" x2="-6"></line><text fill="currentColor" x="-9" dy="0.32em">14,000</text></g><g class="tick" opacity="1" transform="translate(0,90.5)"><line stroke="currentColor" x2="-6"></line><text fill="currentColor" x="-9" dy="0.32em">16,000</text></g><g class="tick" opacity="1" transform="translate(0,60.499999999999986)"><line stroke="currentColor" x2="-6"></line><text fill="currentColor" x="-9" dy="0.32em">18,000</text></g><g class="tick" opacity="1" transform="translate(0,30.50000000000001)"><line stroke="currentColor" x2="-6"></line><text fill="currentColor" x="-9" dy="0.32em">20,000</text></g><g class="tick" opacity="1" transform="translate(0,0.5)"><line stroke="currentColor" x2="-6"></line><text fill="currentColor" x="-9" dy="0.32em">22,000</text></g></g><text transform="rotate(-90)" y="-80" x="-165" dy="1em" text-anchor="middle" font-size="14px" fill="currentColor">Size (bytes)</text><g class="lines-group"><path class="line-path series-0" fill="none" stroke="#1f9bd9" stroke-width="2" d="M0,115.53L11.2,125.685L22.4,135.96L33.6,143.925L44.8,155.4L56,162.975L67.2,167.31L78.4,177.12L89.6,185.415L100.8,190.035L112,195.03L123.2,203.325L134.4,209.385L145.6,210.27L156.8,219.87L168,222.57L179.2,228.96L190.4,232.935L201.6,235.455L212.8,241.44L224,243.54L235.2,247.515L246.4,252.285L257.6,253.68L268.8,256.365L280,260.1L291.2,264.285L302.4,258.885L313.6,268.875L324.8,265.095L336,266.55L347.2,268.995L358.4,275.85L369.6,274.395L380.8,276.585L392,277.41L403.2,277.455L414.4,277.305L425.6,280.35L436.8,283.02L448,275.895L459.2,276.465L470.4,285.54L481.6,284.085L492.8,279.465L504,287.79L515.2,287.445L526.4,288.6L537.6,283.395L548.8,291.405L560,286.71"></path><path class="line-path series-1" fill="none" stroke="#ff6d22" stroke-width="2" d="M0,95.895L11.2,105.78L22.4,115.5L33.6,123.405L44.8,136.2L56,144.525L67.2,150.225L78.4,161.685L89.6,171.915L100.8,178.125L112,184.665L123.2,194.61L134.4,203.265L145.6,206.235L156.8,217.455L168,222.48L179.2,230.595L190.4,236.385L201.6,240.6L212.8,248.97L224,253.17L235.2,257.19L246.4,263.985L257.6,267.285L268.8,271.035L280,276.615L291.2,280.23L302.4,279.975L313.6,286.77L324.8,287.985L336,290.58L347.2,294.3L358.4,297.945L369.6,299.34L380.8,301.905L392,303.84L403.2,304.95L414.4,306.495L425.6,308.265L436.8,310.98L448,310.41L459.2,310.995L470.4,315.495L481.6,315.165L492.8,315.135L504,317.655L515.2,318.765L526.4,320.025L537.6,319.845L548.8,321.54L560,320.595"></path><path class="line-path series-2" fill="none" stroke="#48bc7f" stroke-width="2" d="M0,113.1L11.2,121.05L22.4,128.97L33.6,135.075L44.8,145.38L56,151.71L67.2,155.28L78.4,165.15L89.6,173.4L100.8,178.86L112,183.945L123.2,193.245L134.4,200.865L145.6,202.68L156.8,213.96L168,218.235L179.2,226.92L190.4,232.26L201.6,236.19L212.8,244.89L224,248.79L235.2,253.035L246.4,260.145L257.6,263.385L268.8,267.27L280,273.135L291.2,277.11L302.4,276.675L313.6,283.845L324.8,285.27L336,287.835L347.2,291.75L358.4,295.845L369.6,297.255L380.8,299.985L392,302.115L403.2,303.24L414.4,304.875L425.6,306.9L436.8,309.765L448,309.12L459.2,309.795L470.4,314.58L481.6,314.205L492.8,314.175L504,316.86L515.2,318.045L526.4,319.38L537.6,319.23L548.8,321.03L560,320.01"></path><path class="line-path series-3" fill="none" stroke="#ffb92d" stroke-width="2" d="M0,31.695L11.2,39.405L22.4,50.61L33.6,59.34L44.8,76.5L56,88.395L67.2,95.73L78.4,114.12L89.6,128.4L100.8,138.39L112,146.895L123.2,160.59L134.4,173.58L145.6,178.77L156.8,193.02L168,200.355L179.2,211.845L190.4,219.09L201.6,224.505L212.8,236.205L224,241.485L235.2,247.17L246.4,255.555L257.6,260.04L268.8,264.705L280,272.19L291.2,276.36L302.4,277.215L313.6,284.58L324.8,287.01L336,289.62L347.2,294.255L358.4,298.185L369.6,300.135L380.8,302.745L392,305.28L403.2,306.63L414.4,308.19L425.6,309.975L436.8,312.63L448,312.465L459.2,312.855L470.4,317.265L481.6,316.92L492.8,316.995L504,319.26L515.2,320.325L526.4,321.585L537.6,321.375L548.8,322.695L560,322.02"></path><path class="line-path series-4" fill="none" stroke="#f43550" stroke-width="2" d="M0,117.525L11.2,119.505L22.4,123.945L33.6,128.715L44.8,137.55L56,143.34L67.2,147.93L78.4,158.13L89.6,167.655L100.8,174.075L112,179.43L123.2,187.8L134.4,197.115L145.6,200.265L156.8,211.515L168,215.4L179.2,223.185L190.4,229.215L201.6,233.55L212.8,241.53L224,245.955L235.2,249.945L246.4,257.43L257.6,260.94L268.8,264.405L280,271.185L291.2,274.89L302.4,274.545L313.6,281.76L324.8,283.29L336,286.125L347.2,290.82L358.4,294.18L369.6,296.01L380.8,298.92L392,301.08L403.2,302.175L414.4,303.945L425.6,305.97L436.8,308.505L448,308.43L459.2,308.7L470.4,313.575L481.6,313.53L492.8,313.605L504,315.945L515.2,317.355L526.4,318.555L537.6,318.36L548.8,320.055L560,319.23"></path><path class="line-path series-5" fill="none" stroke="#b834cc" stroke-width="2" d="M0,10.17L11.2,20.865L22.4,32.43L33.6,44.58L44.8,61.86L56,73.62L67.2,84.06L78.4,102.345L89.6,117.69L100.8,129.09L112,139.23L123.2,155.4L134.4,168.9L145.6,174.645L156.8,191.94L168,201.12L179.2,213.015L190.4,222.27L201.6,229.005L212.8,240.45L224,246.27L235.2,251.745L246.4,259.95L257.6,265.11L268.8,268.545L280,276.345L291.2,279.585L302.4,280.95L313.6,287.7L324.8,289.455L336,292.47L347.2,296.355L358.4,299.82L369.6,301.62L380.8,304.155L392,306.39L403.2,307.695L414.4,308.865L425.6,310.515L436.8,313.185L448,313.02L459.2,313.26L470.4,317.415L481.6,317.115L492.8,317.235L504,319.38L515.2,320.415L526.4,321.6L537.6,321.435L548.8,322.725L560,322.05"></path><path class="line-path series-6" fill="none" stroke="#9b7058" stroke-width="2" d="M0,132.345L11.2,133.245L22.4,133.605L33.6,131.79L44.8,135.225L56,134.01L67.2,128.925L78.4,132.615L89.6,132.66L100.8,131.85L112,130.11L123.2,134.49L134.4,132.87L145.6,123.165L156.8,133.14L168,128.535L179.2,133.395L190.4,132.36L201.6,129.36L212.8,133.14L224,128.805L235.2,134.265L246.4,135.615L257.6,131.61L268.8,132.495L280,133.53L291.2,141.705L302.4,118.44L313.6,143.1L324.8,124.005L336,122.85L347.2,123.42L358.4,143.685L369.6,133.185L380.8,136.335L392,134.31L403.2,131.73L414.4,126.825L425.6,135.135L436.8,140.055L448,111.195L459.2,112.83L470.4,138.75L481.6,134.205L492.8,114.915L504,142.98L515.2,138.945L526.4,140.7L537.6,119.79L548.8,148.185L560,131.625"></path><path class="line-path series-7" fill="none" stroke="#ff77b9" stroke-width="2" d="M0,144.765L11.2,146.535L22.4,148.83L33.6,149.79L44.8,155.415L56,157.35L67.2,156.585L78.4,163.455L89.6,168.195L100.8,171.54L112,173.64L123.2,180.6L134.4,185.775L145.6,184.53L156.8,194.58L168,197.07L179.2,205.23L190.4,208.455L201.6,211.485L212.8,219.885L224,222.57L235.2,227.25L246.4,234.165L257.6,236.25L268.8,240.36L280,246.63L291.2,251.46L302.4,249.06L313.6,259.05L324.8,258.915L336,262.005L347.2,266.415L358.4,273.36L369.6,274.155L380.8,277.62L392,280.425L403.2,281.835L414.4,283.725L425.6,287.04L436.8,292.035L448,289.8L459.2,290.88L470.4,298.995L481.6,297.96L492.8,297.465L504,302.925L515.2,304.905L526.4,306.855L537.6,306.12L548.8,310.38L560,307.695"></path><path class="line-path series-8" fill="none" stroke="#7f7f7f" stroke-width="2" d="M0,154.125L11.2,156.075L22.4,160.53L33.6,166.395L44.8,173.07L56,180.225L67.2,187.59L78.4,195.045L89.6,202.44L100.8,209.715L112,216.795L123.2,223.635L134.4,230.235L145.6,236.535L156.8,242.565L168,248.28L179.2,253.71L190.4,258.855L201.6,263.7L212.8,268.26L224,272.565L235.2,276.6L246.4,280.38L257.6,283.92L268.8,287.235L280,290.34L291.2,293.22L302.4,295.92L313.6,298.44L324.8,300.78L336,302.955L347.2,304.995L358.4,306.87L369.6,308.625L380.8,310.245L392,311.76L403.2,313.155L414.4,314.445L425.6,315.645L436.8,316.755L448,317.79L459.2,318.735L470.4,319.62L481.6,320.43L492.8,321.18L504,321.87L515.2,322.515L526.4,323.115L537.6,323.655L548.8,324.165L560,324.63"></path></g><g class="highlight-group"></g><g transform="translate(570, 20)" style="font-stretch: condensed;"><g transform="translate(0,0)" class="legend-item"><rect width="15" height="15" fill="#1f9bd9"></rect><text x="20" y="12" font-size="12px" fill="currentColor">gamma-coded gaps</text></g><g transform="translate(0,20)" class="legend-item"><rect width="15" height="15" fill="#ff6d22"></rect><text x="20" y="12" font-size="12px" fill="currentColor">gamma-coded run lengths</text></g><g transform="translate(0,40)" class="legend-item"><rect width="15" height="15" fill="#48bc7f"></rect><text x="20" y="12" font-size="12px" fill="currentColor">flip coding (gamma)</text></g><g transform="translate(0,60)" class="legend-item"><rect width="15" height="15" fill="#ffb92d"></rect><text x="20" y="12" font-size="12px" fill="currentColor">LEB128 + ranges</text></g><g transform="translate(0,80)" class="legend-item"><rect width="15" height="15" fill="#f43550"></rect><text x="20" y="12" font-size="12px" fill="currentColor">zlib'd bitset</text></g><g transform="translate(0,100)" class="legend-item"><rect width="15" height="15" fill="#b834cc"></rect><text x="20" y="12" font-size="12px" fill="currentColor">triple partitioned</text></g><g transform="translate(0,120)" class="legend-item"><rect width="15" height="15" fill="#9b7058"></rect><text x="20" y="12" font-size="12px" fill="currentColor">Elias-Fano</text></g><g transform="translate(0,140)" class="legend-item"><rect width="15" height="15" fill="#ff77b9"></rect><text x="20" y="12" font-size="12px" fill="currentColor">seq. binary interp. (leftmost)</text></g><g transform="translate(0,160)" class="legend-item"><rect width="15" height="15" fill="#7f7f7f"></rect><text x="20" y="12" font-size="12px" fill="currentColor">lower bound</text></g></g></g></svg>