<svg width="800" height="450" xmlns="http://www.w3.org/2000/svg" id="chart"><g transform="translate(80,40)"><text x="280" y="-10" text-anchor="middle" font-size="20px" font-weight="bold" fill="currentColor">synthetic-varying-autocorr-10 - Per-Entry Size</text><g opacity="0.1" fill="none" font-size="10" text-anchor="end"><g class="tick" opacity="1" transform="translate(0,330.5)"><line stroke="currentColor" x2="560"></line><text fill="currentColor" x="-3" dy="0.32em"></text></g><g class="tick" opacity="1" transform="translate(0,300.5)"><line stroke="currentColor" x2="560"></line><text fill="currentColor" x="-3" dy="0.32em"></text></g><g class="tick" opacity="1" transform="translate(0,270.5)"><line stroke="currentColor" x2="560"></line><text fill="currentColor" x="-3" dy="0.32em"></text></g><g class="tick" opacity="1" transform="translate(0,240.5)"><line stroke="currentColor" x2="560"></line><text fill="currentColor" x="-3" dy="0.32em"></text></g><g class="tick" opacity="1" transform="translate(0,210.5)"><line stroke="currentColor" x2="560"></line><text fill="currentColor" x="-3" dy="0.32em"></text></g><g class="tick" opacity="1" transform="translate(0,180.5)"><line stroke="currentColor" x2="560"></line><text fill="currentColor" x="-3" dy="0.32em"></text></g><g class="tick" opacity="1" transform="translate(0,150.5)"><line stroke="currentColor" x2="560"></line><text fill="currentColor" x="-3" dy="0.32em"></text></g><g class="tick" opacity="1" transform="translate(0,120.5)"><line stroke="currentColor" x2="560"></line><text fill="currentColor" x="-3" dy="0.32em"></text></g><g class="tick" opacity="1" transform="translate(0,90.5)"><line stroke="currentColor" x2="560"></line><text fill="currentColor" x="-3" dy="0.32em"></text></g><g class="tick" opacity="1" transform="translate(0,60.499999999999986)"><line stroke="currentColor" x2="560"></line><text fill="currentColor" x="-3" dy="0.32em"></text></g><g class="tick" opacity="1" transform="translate(0,30.50000000000001)"><line stroke="currentColor" x2="560"></line><text fill="currentColor" x="-3" dy="0.32em"></text></g><g class="tick" opacity="1" transform="translate(0,0.5)"><line stroke="currentColor" x2="560"></line><text fill="currentColor" x="-3" dy="0.32em"></text></g></g><g font-size="10" transform="translate(0,330)" fill="none" text-anchor="middle"><path class="domain" stroke="currentColor" d="M0.5,6V0.5H560.5V6"></path><g class="tick" opacity="1" transform="translate(0.5,0)"><line stroke="currentColor" y2="6"></line><text fill="currentColor" y="9" dy="0.5em" transform="rotate(-35)" dx="-0.5em" font-size="9px" style="font-stretch: condensed; text-anchor: end;">autocorr=0.000, 10% density</text></g><g class="tick" opacity="1" transform="translate(22.900000000000002,0)"><line stroke="currentColor" y2="6"></line><text fill="currentColor" y="9" dy="0.5em" transform="rotate(-35)" dx="-0.5em" font-size="9px" style="font-stretch: condensed; text-anchor: end;">autocorr=0.040, 10% density</text></g><g class="tick" opacity="1" transform="translate(45.300000000000004,0)"><line stroke="currentColor" y2="6"></line><text fill="currentColor" y="9" dy="0.5em" transform="rotate(-35)" dx="-0.5em" font-size="9px" style="font-stretch: condensed; text-anchor: end;">autocorr=0.079, 10% density</text></g><g class="tick" opacity="1" transform="translate(67.7,0)"><line stroke="currentColor" y2="6"></line><text fill="currentColor" y="9" dy="0.5em" transform="rotate(-35)" dx="-0.5em" font-size="9px" style="font-stretch: condensed; text-anchor: end;">autocorr=0.119, 10% density</text></g><g class="tick" opacity="1" transform="translate(90.10000000000001,0)"><line stroke="currentColor" y2="6"></line><text fill="currentColor" y="9" dy="0.5em" transform="rotate(-35)" dx="-0.5em" font-size="9px" style="font-stretch: condensed; text-anchor: end;">autocorr=0.158, 10% density</text></g><g class="tick" opacity="1" transform="translate(112.5,0)"><line stroke="currentColor" y2="6"></line><text fill="currentColor" y="9" dy="0.5em" transform="rotate(-35)" dx="-0.5em" font-size="9px" style="font-stretch: condensed; text-anchor: end;">autocorr=0.198, 10% density</text></g><g class="tick" opacity="1" transform="translate(134.9,0)"><line stroke="currentColor" y2="6"></line><text fill="currentColor" y="9" dy="0.5em" transform="rotate(-35)" dx="-0.5em" font-size="9px" style="font-stretch: condensed; text-anchor: end;">autocorr=0.238, 10% density</text></g><g class="tick" opacity="1" transform="translate(157.3,0)"><line stroke="currentColor" y2="6"></line><text fill="currentColor" y="9" dy="0.5em" transform="rotate(-35)" dx="-0.5em" font-size="9px" style="font-stretch: condensed; text-anchor: end;">autocorr=0.277, 10% density</text></g><g class="tick" opacity="1" transform="translate(179.70000000000002,0)"><line stroke="currentColor" y2="6"></line><text fill="currentColor" y="9" dy="0.5em" transform="rotate(-35)" dx="-0.5em" font-size="9px" style="font-stretch: condensed; text-anchor: end;">autocorr=0.317, 10% density</text></g><g class="tick" opacity="1" transform="translate(202.1,0)"><line stroke="currentColor" y2="6"></line><text fill="currentColor" y="9" dy="0.5em" transform="rotate(-35)" dx="-0.5em" font-size="9px" style="font-stretch: condensed; text-anchor: end;">autocorr=0.356, 10% density</text></g><g class="tick" opacity="1" transform="translate(224.5,0)"><line stroke="currentColor" y2="6"></line><text fill="currentColor" y="9" dy="0.5em" transform="rotate(-35)" dx="-0.5em" font-size="9px" style="font-stretch: condensed; text-anchor: end;">autocorr=0.396, 10% density</text></g><g class="tick" opacity="1" transform="translate(246.9,0)"><line stroke="currentColor" y2="6"></line><text fill="currentColor" y="9" dy="0.5em" transform="rotate(-35)" dx="-0.5em" font-size="9px" style="font-stretch: condensed; text-anchor: end;">autocorr=0.436, 10% density</text></g><g class="tick" opacity="1" transform="translate(269.3,0)"><line stroke="currentColor" y2="6"></line><text fill="currentColor" y="9" dy="0.5em" transform="rotate(-35)" dx="-0.5em" font-size="9px" style="font-stretch: condensed; text-anchor: end;">autocorr=0.475, 10% density</text></g><g class="tick" opacity="1" transform="translate(291.7,0)"><line stroke="currentColor" y2="6"></line><text fill="currentColor" y="9" dy="0.5em" transform="rotate(-35)" dx="-0.5em" font-size="9px" style="font-stretch: condensed; text-anchor: end;">autocorr=0.515, 10% density</text></g><g class="tick" opacity="1" transform="translate(314.1,0)"><line stroke="currentColor" y2="6"></line><text fill="currentColor" y="9" dy="0.5em" transform="rotate(-35)" dx="-0.5em" font-size="9px" style="font-stretch: condensed; text-anchor: end;">autocorr=0.554, 10% density</text></g><g class="tick" opacity="1" transform="translate(336.5,0)"><line stroke="currentColor" y2="6"></line><text fill="currentColor" y="9" dy="0.5em" transform="rotate(-35)" dx="-0.5em" font-size="9px" style="font-stretch: condensed; text-anchor: end;">autocorr=0.594, 10% density</text></g><g class="tick" opacity="1" transform="translate(358.90000000000003,0)"><line stroke="currentColor" y2="6"></line><text fill="currentColor" y="9" dy="0.5em" transform="rotate(-35)" dx="-0.5em" font-size="9px" style="font-stretch: condensed; text-anchor: end;">autocorr=0.634, 10% density</text></g><g class="tick" opacity="1" transform="translate(381.3,0)"><line stroke="currentColor" y2="6"></line><text fill="currentColor" y="9" dy="0.5em" transform="rotate(-35)" dx="-0.5em" font-size="9px" style="font-stretch: condensed; text-anchor: end;">autocorr=0.673, 10% density</text></g><g class="tick" opacity="1" transform="translate(403.7,0)"><line stroke="currentColor" y2="6"></line><text fill="currentColor" y="9" dy="0.5em" transform="rotate(-35)" dx="-0.5em" font-size="9px" style="font-stretch: condensed; text-anchor: end;">autocorr=0.713, 10% density</text></g><g class="tick" opacity="1" transform="translate(426.1,0)"><line stroke="currentColor" y2="6"></line><text fill="currentColor" y="9" dy="0.5em" transform="rotate(-35)" dx="-0.5em" font-size="9px" style="font-stretch: condensed; text-anchor: end;">autocorr=0.752, 10% density</text></g><g class="tick" opacity="1" transform="translate(448.5,0)"><line stroke="currentColor" y2="6"></line><text fill="currentColor" y="9" dy="0.5em" transform="rotate(-35)" dx="-0.5em" font-size="9px" style="font-stretch: condensed; text-anchor: end;">autocorr=0.792, 10% density</text></g><g class="tick" opacity="1" transform="translate(470.9,0)"><line stroke="currentColor" y2="6"></line><text fill="currentColor" y="9" dy="0.5em" transform="rotate(-35)" dx="-0.5em" font-size="9px" style="font-stretch: condensed; text-anchor: end;">autocorr=0.832, 10% density</text></g><g class="tick" opacity="1" transform="translate(493.3,0)"><line stroke="currentColor" y2="6"></line><text fill="currentColor" y="9" dy="0.5em" transform="rotate(-35)" dx="-0.5em" font-size="9px" style="font-stretch: condensed; text-anchor: end;">autocorr=0.871, 10% density</text></g><g class="tick" opacity="1" transform="translate(515.7,0)"><line stroke="currentColor" y2="6"></line><text fill="currentColor" y="9" dy="0.5em" transform="rotate(-35)" dx="-0.5em" font-size="9px" style="font-stretch: condensed; text-anchor: end;">autocorr=0.911, 10% density</text></g><g class="tick" opacity="1" transform="translate(538.1,0)"><line stroke="currentColor" y2="6"></line><text fill="currentColor" y="9" dy="0.5em" transform="rotate(-35)" dx="-0.5em" font-size="9px" style="font-stretch: condensed; text-anchor: end;">autocorr=0.950, 10% density</text></g><g class="tick" opacity="1" transform="translate(560.5,0)"><line stroke="currentColor" y2="6"></line><text fill="currentColor" y="9" dy="0.5em" transform="rotate(-35)" dx="-0.5em" font-size="9px" style="font-stretch: condensed; text-anchor: end;">autocorr=0.990, 10% density</text></g></g><g font-size="10" fill="none" text-anchor="end"><path class="domain" stroke="currentColor" d="M-6,330.5H0.5V0.5H-6"></path><g class="tick" opacity="1" transform="translate(0,330.5)"><line stroke="currentColor" x2="-6"></line><text fill="currentColor" x="-9" dy="0.32em">0</text></g><g class="tick" opacity="1" transform="translate(0,300.5)"><line stroke="currentColor" x2="-6"></line><text fill="currentColor" x="-9" dy="0.32em">2,000</text></g><g class="tick" opacity="1" transform="translate(0,270.5)"><line stroke="currentColor" x2="-6"></line><text fill="currentColor" x="-9" dy="0.32em">4,000</text></g><g class="tick" opacity="1" transform="translate(0,240.5)"><line stroke="currentColor" x2="-6"></line><text fill="currentColor" x="-9" dy="0.32em">6,000</text></g><g class="tick" opacity="1" transform="translate(0,210.5)"><line stroke="currentColor" x2="-6"></line><text fill="currentColor" x="-9" dy="0.32em">8,000</text></g><g class="tick" opacity="1" transform="translate(0,180.5)"><line stroke="currentColor" x2="-6"></line><text fill="currentColor" x="-9" dy="0.32em">10,000</text></g><g class="tick" opacity="1" transform="translate(0,150.5)"><line stroke="currentColor" x2="-6"></line><text fill="currentColor" x="-9" dy="0.32em">12,000</text></g><g class="tick" opacity="1" transform="translate(0,120.5)"><line stroke="currentColor" x2="-6"></line><text fill="currentColor" x="-9" dy="0.32em">14,000</text></g><g class="tick" opacity="1" transform="translate(0,90.5)"><line stroke="currentColor" x2="-6"></line><text fill="currentColor" x="-9" dy="0.32em">16,000</text></g><g class="tick" opacity="1" transform="translate(0,60.499999999999986)"><line stroke="currentColor" x2="-6"></line><text fill="currentColor" x="-9" dy="0.32em">18,000</text></g><g class="tick" opacity="1" transform="translate(0,30.50000000000001)"><line stroke="currentColor" x2="-6"></line><text fill="currentColor" x="-9" dy="0.32em">20,000</text></g><g class="tick" opacity="1" transform="translate(0,0.5)"><line stroke="currentColor" x2="-6"></line><text fill="currentColor" x="-9" dy="0.32em">22,000</text></g></g><text transform="rotate(-90)" y="-80" x="-165" dy="1em" text-anchor="middle" font-size="14px" fill="currentColor">Size (bytes)</text><g class="lines-group"><path class="line-path series-0" fill="none" stroke="#1f9bd9" stroke-width="2" d="M0,115.29L11.2,118.44L22.4,120.3L33.6,121.725L44.8,124.26L56,127.935L67.2,129.12L78.4,132.315L89.6,134.25L100.8,136.995L112,139.665L123.2,140.625L134.4,142.755L145.6,146.025L156.8,148.095L168,149.82L179.2,153.885L190.4,156.315L201.6,158.865L212.8,159.945L224,162.645L235.2,167.805L246.4,169.71L257.6,170.49L268.8,175.605L280,176.895L291.2,181.5L302.4,184.08L313.6,187.545L324.8,189.72L336,192.255L347.2,196.56L358.4,200.58L369.6,204.66L380.8,207.045L392,211.005L403.2,216.015L414.4,216.105L425.6,221.115L436.8,224.655L448,231.885L459.2,233.985L470.4,239.055L481.6,244.44L492.8,247.905L504,255.435L515.2,260.595L526.4,264.51L537.6,273.33L548.8,277.02L560,285.345"></path><path class="line-path series-1" fill="none" stroke="#ff6d22" stroke-width="2" d="M0,95.79L11.2,99.375L22.4,100.5L33.6,101.895L44.8,104.13L56,107.925L67.2,108.855L78.4,112.05L89.6,113.775L100.8,116.37L112,119.31L123.2,120.015L134.4,122.475L145.6,125.91L156.8,127.74L168,129.66L179.2,134.565L190.4,137.19L201.6,139.89L212.8,141.09L224,144.315L235.2,150.105L246.4,152.1L257.6,153.57L268.8,159.39L280,161.535L291.2,166.8L302.4,170.145L313.6,174.225L324.8,176.985L336,180.885L347.2,186.21L358.4,191.385L369.6,196.2L380.8,199.845L392,205.125L403.2,211.035L414.4,213.18L425.6,219.615L436.8,224.49L448,234.045L459.2,238.53L470.4,244.605L481.6,251.73L492.8,258.975L504,268.17L515.2,276.645L526.4,284.505L537.6,294.465L548.8,305.55L560,320.025"></path><path class="line-path series-2" fill="none" stroke="#48bc7f" stroke-width="2" d="M0,112.995L11.2,115.545L22.4,117.18L33.6,117.81L44.8,119.91L56,123.18L67.2,123.75L78.4,126.27L89.6,127.635L100.8,129.765L112,132.09L123.2,132.675L134.4,134.46L145.6,137.07L156.8,138.555L168,139.785L179.2,143.715L190.4,146.025L201.6,148.095L212.8,148.695L224,151.14L235.2,156.12L246.4,157.755L257.6,158.415L268.8,163.38L280,164.58L291.2,169.14L302.4,172.35L313.6,175.77L324.8,178.095L336,181.02L347.2,185.73L358.4,190.215L369.6,194.775L380.8,197.625L392,202.83L403.2,208.065L414.4,209.565L425.6,215.955L436.8,220.77L448,229.935L459.2,234.18L470.4,240.36L481.6,247.605L492.8,254.985L504,264.57L515.2,273.24L526.4,281.46L537.6,292.065L548.8,303.87L560,319.41"></path><path class="line-path series-3" fill="none" stroke="#ffb92d" stroke-width="2" d="M0,31.8L11.2,33.96L22.4,35.79L33.6,34.155L44.8,36.435L56,43.095L67.2,42.675L78.4,47.565L89.6,47.295L100.8,50.22L112,54.48L123.2,54.96L134.4,58.32L145.6,64.41L156.8,65.34L168,66.3L179.2,73.5L190.4,78.36L201.6,82.14L212.8,83.295L224,87.03L235.2,96.36L246.4,99.735L257.6,98.49L268.8,109.095L280,113.61L291.2,119.97L302.4,127.65L313.6,131.415L324.8,135.45L336,140.745L347.2,149.235L358.4,155.505L369.6,164.115L380.8,168.285L392,175.935L403.2,184.5L414.4,186.93L425.6,195.93L436.8,201.975L448,216.15L459.2,222.315L470.4,230.655L481.6,239.925L492.8,249.405L504,261.105L515.2,272.01L526.4,282.18L537.6,294.06L548.8,307.14L560,321.75"></path><path class="line-path series-4" fill="none" stroke="#f43550" stroke-width="2" d="M0,117.78L11.2,117.78L22.4,118.605L33.6,118.14L44.8,118.245L56,121.125L67.2,120.555L78.4,122.46L89.6,123.36L100.8,123.96L112,125.505L123.2,126.42L134.4,127.455L145.6,130.875L156.8,132L168,132.93L179.2,135.96L190.4,137.7L201.6,140.505L212.8,141.615L224,143.505L235.2,148.59L246.4,150.675L257.6,150.3L268.8,156.21L280,158.025L291.2,163.29L302.4,165.6L313.6,169.665L324.8,171.945L336,175.59L347.2,180.69L358.4,185.385L369.6,189.975L380.8,193.605L392,198.975L403.2,205.2L414.4,206.73L425.6,212.655L436.8,216.615L448,226.68L459.2,230.82L470.4,237.645L481.6,245.13L492.8,251.73L504,261.615L515.2,271.035L526.4,279.24L537.6,290.145L548.8,303.21L560,318.63"></path><path class="line-path series-5" fill="none" stroke="#b834cc" stroke-width="2" d="M0,9.87L11.2,13.725L22.4,15.315L33.6,16.32L44.8,18.39L56,22.515L67.2,24.015L78.4,28.26L89.6,29.805L100.8,34.02L112,35.82L123.2,40.095L134.4,42.57L145.6,47.55L156.8,49.59L168,52.32L179.2,59.07L190.4,65.7L201.6,69.555L212.8,70.38L224,73.56L235.2,82.38L246.4,87.15L257.6,88.83L268.8,99.24L280,102.345L291.2,110.265L302.4,117.45L313.6,123.465L324.8,127.395L336,132.63L347.2,142.26L358.4,148.92L369.6,158.625L380.8,164.79L392,172.95L403.2,182.82L414.4,185.145L425.6,195.825L436.8,202.845L448,218.16L459.2,224.685L470.4,234.18L481.6,244.02L492.8,253.89L504,265.98L515.2,275.955L526.4,285.36L537.6,296.175L548.8,308.145L560,321.87"></path><path class="line-path series-6" fill="none" stroke="#9b7058" stroke-width="2" d="M0,132.585L11.2,132.945L22.4,133.425L33.6,131.91L44.8,132.105L56,134.625L67.2,133.185L78.4,134.31L89.6,133.74L100.8,133.41L112,134.115L123.2,132.57L134.4,132.63L145.6,134.85L156.8,134.415L168,132.87L179.2,133.395L190.4,134.115L201.6,133.785L212.8,133.02L224,131.91L235.2,134.475L246.4,135.06L257.6,131.355L268.8,133.83L280,132.345L291.2,133.725L302.4,134.7L313.6,135.225L324.8,132.975L336,131.325L347.2,133.77L358.4,132.84L369.6,136.575L380.8,133.515L392,134.37L403.2,138.66L414.4,128.985L425.6,132.9L436.8,132.18L448,136.5L459.2,129.51L470.4,134.325L481.6,137.235L492.8,131.4L504,137.55L515.2,135.75L526.4,130.95L537.6,141.675L548.8,127.845L560,126.99"></path><path class="line-path series-7" fill="none" stroke="#ff77b9" stroke-width="2" d="M0,144.615L11.2,145.635L22.4,145.95L33.6,145.05L44.8,145.53L56,147.945L67.2,146.835L78.4,148.335L89.6,148.29L100.8,148.5L112,149.745L123.2,149.07L134.4,149.88L145.6,152.055L156.8,151.725L168,151.35L179.2,153.615L190.4,155.295L201.6,155.67L212.8,154.995L224,156.045L235.2,159.54L246.4,160.545L257.6,159.315L268.8,162.585L280,163.14L291.2,166.05L302.4,168.03L313.6,170.115L324.8,170.565L336,172.5L347.2,175.89L358.4,178.515L369.6,182.25L380.8,183.12L392,187.11L403.2,192.36L414.4,190.98L425.6,196.335L436.8,199.53L448,208.425L459.2,209.805L470.4,216L481.6,222.585L492.8,229.035L504,238.395L515.2,246.885L526.4,255.045L537.6,268.2L548.8,282.795L560,306.345"></path><path class="line-path series-8" fill="none" stroke="#7f7f7f" stroke-width="2" d="M0,154.125L11.2,154.215L22.4,154.515L33.6,154.965L44.8,155.58L56,156.33L67.2,157.23L78.4,158.25L89.6,159.39L100.8,160.65L112,162.03L123.2,163.515L134.4,165.12L145.6,166.815L156.8,168.63L168,170.55L179.2,172.56L190.4,174.675L201.6,176.895L212.8,179.22L224,181.65L235.2,184.185L246.4,186.81L257.6,189.555L268.8,192.39L280,195.345L291.2,198.405L302.4,201.57L313.6,204.855L324.8,208.26L336,211.77L347.2,215.415L358.4,219.195L369.6,223.095L380.8,227.13L392,231.315L403.2,235.65L414.4,240.135L425.6,244.8L436.8,249.63L448,254.67L459.2,259.905L470.4,265.365L481.6,271.065L492.8,277.065L504,283.365L515.2,290.055L526.4,297.18L537.6,304.905L548.8,313.425L560,323.37"></path></g><g class="highlight-group"></g><g transform="translate(570, 20)" style="font-stretch: condensed;"><g transform="translate(0,0)" class="legend-item"><rect width="15" height="15" fill="#1f9bd9"></rect><text x="20" y="12" font-size="12px" fill="currentColor">gamma-coded gaps</text></g><g transform="translate(0,20)" class="legend-item"><rect width="15" height="15" fill="#ff6d22"></rect><text x="20" y="12" font-size="12px" fill="currentColor">gamma-coded run lengths</text></g><g transform="translate(0,40)" class="legend-item"><rect width="15" height="15" fill="#48bc7f"></rect><text x="20" y="12" font-size="12px" fill="currentColor">flip coding (gamma)</text></g><g transform="translate(0,60)" class="legend-item"><rect width="15" height="15" fill="#ffb92d"></rect><text x="20" y="12" font-size="12px" fill="currentColor">LEB128 + ranges</text></g><g transform="translate(0,80)" class="legend-item"><rect width="15" height="15" fill="#f43550"></rect><text x="20" y="12" font-size="12px" fill="currentColor">zlib'd bitset</text></g><g transform="translate(0,100)" class="legend-item"><rect width="15" height="15" fill="#b834cc"></rect><text x="20" y="12" font-size="12px" fill="currentColor">triple partitioned</text></g><g transform="translate(0,120)" class="legend-item"><rect width="15" height="15" fill="#9b7058"></rect><text x="20" y="12" font-size="12px" fill="currentColor">Elias-Fano</text></g><g transform="translate(0,140)" class="legend-item"><rect width="15" height="15" fill="#ff77b9"></rect><text x="20" y="12" font-size="12px" fill="currentColor">seq. binary interp. (leftmost)</text></g><g transform="translate(0,160)" class="legend-item"><rect width="15" height="15" fill="#7f7f7f"></rect><text x="20" y="12" font-size="12px" fill="currentColor">lower bound</text></g></g></g></svg>