<svg width="800" height="450" xmlns="http://www.w3.org/2000/svg" id="chart"><g transform="translate(80,40)"><text x="280" y="-10" text-anchor="middle" font-size="20px" font-weight="bold" fill="currentColor">synthetic-varying-autocorr-50 - Per-Entry Size</text><g opacity="0.1" fill="none" font-size="10" text-anchor="end"><g class="tick" opacity="1" transform="translate(0,330.5)"><line stroke="currentColor" x2="560"></line><text fill="currentColor" x="-3" dy="0.32em"></text></g><g class="tick" opacity="1" transform="translate(0,308.5)"><line stroke="currentColor" x2="560"></line><text fill="currentColor" x="-3" dy="0.32em"></text></g><g class="tick" opacity="1" transform="translate(0,286.5)"><line stroke="currentColor" x2="560"></line><text fill="currentColor" x="-3" dy="0.32em"></text></g><g class="tick" opacity="1" transform="translate(0,264.5)"><line stroke="currentColor" x2="560"></line><text fill="currentColor" x="-3" dy="0.32em"></text></g><g class="tick" opacity="1" transform="translate(0,242.50000000000003)"><line stroke="currentColor" x2="560"></line><text fill="currentColor" x="-3" dy="0.32em"></text></g><g class="tick" opacity="1" transform="translate(0,220.50000000000003)"><line stroke="currentColor" x2="560"></line><text fill="currentColor" x="-3" dy="0.32em"></text></g><g class="tick" opacity="1" transform="translate(0,198.5)"><line stroke="currentColor" x2="560"></line><text fill="currentColor" x="-3" dy="0.32em"></text></g><g class="tick" opacity="1" transform="translate(0,176.5)"><line stroke="currentColor" x2="560"></line><text fill="currentColor" x="-3" dy="0.32em"></text></g><g class="tick" opacity="1" transform="translate(0,154.5)"><line stroke="currentColor" x2="560"></line><text fill="currentColor" x="-3" dy="0.32em"></text></g><g class="tick" opacity="1" transform="translate(0,132.5)"><line stroke="currentColor" x2="560"></line><text fill="currentColor" x="-3" dy="0.32em"></text></g><g class="tick" opacity="1" transform="translate(0,110.50000000000001)"><line stroke="currentColor" x2="560"></line><text fill="currentColor" x="-3" dy="0.32em"></text></g><g class="tick" opacity="1" transform="translate(0,88.50000000000001)"><line stroke="currentColor" x2="560"></line><text fill="currentColor" x="-3" dy="0.32em"></text></g><g class="tick" opacity="1" transform="translate(0,66.49999999999999)"><line stroke="currentColor" x2="560"></line><text fill="currentColor" x="-3" dy="0.32em"></text></g><g class="tick" opacity="1" transform="translate(0,44.49999999999999)"><line stroke="currentColor" x2="560"></line><text fill="currentColor" x="-3" dy="0.32em"></text></g><g class="tick" opacity="1" transform="translate(0,22.499999999999996)"><line stroke="currentColor" x2="560"></line><text fill="currentColor" x="-3" dy="0.32em"></text></g><g class="tick" opacity="1" transform="translate(0,0.5)"><line stroke="currentColor" x2="560"></line><text fill="currentColor" x="-3" dy="0.32em"></text></g></g><g font-size="10" transform="translate(0,330)" fill="none" text-anchor="middle"><path class="domain" stroke="currentColor" d="M0.5,6V0.5H560.5V6"></path><g class="tick" opacity="1" transform="translate(0.5,0)"><line stroke="currentColor" y2="6"></line><text fill="currentColor" y="9" dy="0.5em" transform="rotate(-35)" dx="-0.5em" font-size="9px" style="font-stretch: condensed; text-anchor: end;">autocorr=0.000, 50% density</text></g><g class="tick" opacity="1" transform="translate(22.900000000000002,0)"><line stroke="currentColor" y2="6"></line><text fill="currentColor" y="9" dy="0.5em" transform="rotate(-35)" dx="-0.5em" font-size="9px" style="font-stretch: condensed; text-anchor: end;">autocorr=0.040, 50% density</text></g><g class="tick" opacity="1" transform="translate(45.300000000000004,0)"><line stroke="currentColor" y2="6"></line><text fill="currentColor" y="9" dy="0.5em" transform="rotate(-35)" dx="-0.5em" font-size="9px" style="font-stretch: condensed; text-anchor: end;">autocorr=0.079, 50% density</text></g><g class="tick" opacity="1" transform="translate(67.7,0)"><line stroke="currentColor" y2="6"></line><text fill="currentColor" y="9" dy="0.5em" transform="rotate(-35)" dx="-0.5em" font-size="9px" style="font-stretch: condensed; text-anchor: end;">autocorr=0.119, 50% density</text></g><g class="tick" opacity="1" transform="translate(90.10000000000001,0)"><line stroke="currentColor" y2="6"></line><text fill="currentColor" y="9" dy="0.5em" transform="rotate(-35)" dx="-0.5em" font-size="9px" style="font-stretch: condensed; text-anchor: end;">autocorr=0.158, 50% density</text></g><g class="tick" opacity="1" transform="translate(112.5,0)"><line stroke="currentColor" y2="6"></line><text fill="currentColor" y="9" dy="0.5em" transform="rotate(-35)" dx="-0.5em" font-size="9px" style="font-stretch: condensed; text-anchor: end;">autocorr=0.198, 50% density</text></g><g class="tick" opacity="1" transform="translate(134.9,0)"><line stroke="currentColor" y2="6"></line><text fill="currentColor" y="9" dy="0.5em" transform="rotate(-35)" dx="-0.5em" font-size="9px" style="font-stretch: condensed; text-anchor: end;">autocorr=0.238, 50% density</text></g><g class="tick" opacity="1" transform="translate(157.3,0)"><line stroke="currentColor" y2="6"></line><text fill="currentColor" y="9" dy="0.5em" transform="rotate(-35)" dx="-0.5em" font-size="9px" style="font-stretch: condensed; text-anchor: end;">autocorr=0.277, 50% density</text></g><g class="tick" opacity="1" transform="translate(179.70000000000002,0)"><line stroke="currentColor" y2="6"></line><text fill="currentColor" y="9" dy="0.5em" transform="rotate(-35)" dx="-0.5em" font-size="9px" style="font-stretch: condensed; text-anchor: end;">autocorr=0.317, 50% density</text></g><g class="tick" opacity="1" transform="translate(202.1,0)"><line stroke="currentColor" y2="6"></line><text fill="currentColor" y="9" dy="0.5em" transform="rotate(-35)" dx="-0.5em" font-size="9px" style="font-stretch: condensed; text-anchor: end;">autocorr=0.356, 50% density</text></g><g class="tick" opacity="1" transform="translate(224.5,0)"><line stroke="currentColor" y2="6"></line><text fill="currentColor" y="9" dy="0.5em" transform="rotate(-35)" dx="-0.5em" font-size="9px" style="font-stretch: condensed; text-anchor: end;">autocorr=0.396, 50% density</text></g><g class="tick" opacity="1" transform="translate(246.9,0)"><line stroke="currentColor" y2="6"></line><text fill="currentColor" y="9" dy="0.5em" transform="rotate(-35)" dx="-0.5em" font-size="9px" style="font-stretch: condensed; text-anchor: end;">autocorr=0.436, 50% density</text></g><g class="tick" opacity="1" transform="translate(269.3,0)"><line stroke="currentColor" y2="6"></line><text fill="currentColor" y="9" dy="0.5em" transform="rotate(-35)" dx="-0.5em" font-size="9px" style="font-stretch: condensed; text-anchor: end;">autocorr=0.475, 50% density</text></g><g class="tick" opacity="1" transform="translate(291.7,0)"><line stroke="currentColor" y2="6"></line><text fill="currentColor" y="9" dy="0.5em" transform="rotate(-35)" dx="-0.5em" font-size="9px" style="font-stretch: condensed; text-anchor: end;">autocorr=0.515, 50% density</text></g><g class="tick" opacity="1" transform="translate(314.1,0)"><line stroke="currentColor" y2="6"></line><text fill="currentColor" y="9" dy="0.5em" transform="rotate(-35)" dx="-0.5em" font-size="9px" style="font-stretch: condensed; text-anchor: end;">autocorr=0.554, 50% density</text></g><g class="tick" opacity="1" transform="translate(336.5,0)"><line stroke="currentColor" y2="6"></line><text fill="currentColor" y="9" dy="0.5em" transform="rotate(-35)" dx="-0.5em" font-size="9px" style="font-stretch: condensed; text-anchor: end;">autocorr=0.594, 50% density</text></g><g class="tick" opacity="1" transform="translate(358.90000000000003,0)"><line stroke="currentColor" y2="6"></line><text fill="currentColor" y="9" dy="0.5em" transform="rotate(-35)" dx="-0.5em" font-size="9px" style="font-stretch: condensed; text-anchor: end;">autocorr=0.634, 50% density</text></g><g class="tick" opacity="1" transform="translate(381.3,0)"><line stroke="currentColor" y2="6"></line><text fill="currentColor" y="9" dy="0.5em" transform="rotate(-35)" dx="-0.5em" font-size="9px" style="font-stretch: condensed; text-anchor: end;">autocorr=0.673, 50% density</text></g><g class="tick" opacity="1" transform="translate(403.7,0)"><line stroke="currentColor" y2="6"></line><text fill="currentColor" y="9" dy="0.5em" transform="rotate(-35)" dx="-0.5em" font-size="9px" style="font-stretch: condensed; text-anchor: end;">autocorr=0.713, 50% density</text></g><g class="tick" opacity="1" transform="translate(426.1,0)"><line stroke="currentColor" y2="6"></line><text fill="currentColor" y="9" dy="0.5em" transform="rotate(-35)" dx="-0.5em" font-size="9px" style="font-stretch: condensed; text-anchor: end;">autocorr=0.752, 50% density</text></g><g class="tick" opacity="1" transform="translate(448.5,0)"><line stroke="currentColor" y2="6"></line><text fill="currentColor" y="9" dy="0.5em" transform="rotate(-35)" dx="-0.5em" font-size="9px" style="font-stretch: condensed; text-anchor: end;">autocorr=0.792, 50% density</text></g><g class="tick" opacity="1" transform="translate(470.9,0)"><line stroke="currentColor" y2="6"></line><text fill="currentColor" y="9" dy="0.5em" transform="rotate(-35)" dx="-0.5em" font-size="9px" style="font-stretch: condensed; text-anchor: end;">autocorr=0.832, 50% density</text></g><g class="tick" opacity="1" transform="translate(493.3,0)"><line stroke="currentColor" y2="6"></line><text fill="currentColor" y="9" dy="0.5em" transform="rotate(-35)" dx="-0.5em" font-size="9px" style="font-stretch: condensed; text-anchor: end;">autocorr=0.871, 50% density</text></g><g class="tick" opacity="1" transform="translate(515.7,0)"><line stroke="currentColor" y2="6"></line><text fill="currentColor" y="9" dy="0.5em" transform="rotate(-35)" dx="-0.5em" font-size="9px" style="font-stretch: condensed; text-anchor: end;">autocorr=0.911, 50% density</text></g><g class="tick" opacity="1" transform="translate(538.1,0)"><line stroke="currentColor" y2="6"></line><text fill="currentColor" y="9" dy="0.5em" transform="rotate(-35)" dx="-0.5em" font-size="9px" style="font-stretch: condensed; text-anchor: end;">autocorr=0.950, 50% density</text></g><g class="tick" opacity="1" transform="translate(560.5,0)"><line stroke="currentColor" y2="6"></line><text fill="currentColor" y="9" dy="0.5em" transform="rotate(-35)" dx="-0.5em" font-size="9px" style="font-stretch: condensed; text-anchor: end;">autocorr=0.990, 50% density</text></g></g><g font-size="10" fill="none" text-anchor="end"><path class="domain" stroke="currentColor" d="M-6,330.5H0.5V0.5H-6"></path><g class="tick" opacity="1" transform="translate(0,330.5)"><line stroke="currentColor" x2="-6"></line><text fill="currentColor" x="-9" dy="0.32em">0</text></g><g class="tick" opacity="1" transform="translate(0,308.5)"><line stroke="currentColor" x2="-6"></line><text fill="currentColor" x="-9" dy="0.32em">2,000</text></g><g class="tick" opacity="1" transform="translate(0,286.5)"><line stroke="currentColor" x2="-6"></line><text fill="currentColor" x="-9" dy="0.32em">4,000</text></g><g class="tick" opacity="1" transform="translate(0,264.5)"><line stroke="currentColor" x2="-6"></line><text fill="currentColor" x="-9" dy="0.32em">6,000</text></g><g class="tick" opacity="1" transform="translate(0,242.50000000000003)"><line stroke="currentColor" x2="-6"></line><text fill="currentColor" x="-9" dy="0.32em">8,000</text></g><g class="tick" opacity="1" transform="translate(0,220.50000000000003)"><line stroke="currentColor" x2="-6"></line><text fill="currentColor" x="-9" dy="0.32em">10,000</text></g><g class="tick" opacity="1" transform="translate(0,198.5)"><line stroke="currentColor" x2="-6"></line><text fill="currentColor" x="-9" dy="0.32em">12,000</text></g><g class="tick" opacity="1" transform="translate(0,176.5)"><line stroke="currentColor" x2="-6"></line><text fill="currentColor" x="-9" dy="0.32em">14,000</text></g><g class="tick" opacity="1" transform="translate(0,154.5)"><line stroke="currentColor" x2="-6"></line><text fill="currentColor" x="-9" dy="0.32em">16,000</text></g><g class="tick" opacity="1" transform="translate(0,132.5)"><line stroke="currentColor" x2="-6"></line><text fill="currentColor" x="-9" dy="0.32em">18,000</text></g><g class="tick" opacity="1" transform="translate(0,110.50000000000001)"><line stroke="currentColor" x2="-6"></line><text fill="currentColor" x="-9" dy="0.32em">20,000</text></g><g class="tick" opacity="1" transform="translate(0,88.50000000000001)"><line stroke="currentColor" x2="-6"></line><text fill="currentColor" x="-9" dy="0.32em">22,000</text></g><g class="tick" opacity="1" transform="translate(0,66.49999999999999)"><line stroke="currentColor" x2="-6"></line><text fill="currentColor" x="-9" dy="0.32em">24,000</text></g><g class="tick" opacity="1" transform="translate(0,44.49999999999999)"><line stroke="currentColor" x2="-6"></line><text fill="currentColor" x="-9" dy="0.32em">26,000</text></g><g class="tick" opacity="1" transform="translate(0,22.499999999999996)"><line stroke="currentColor" x2="-6"></line><text fill="currentColor" x="-9" dy="0.32em">28,000</text></g><g class="tick" opacity="1" transform="translate(0,0.5)"><line stroke="currentColor" x2="-6"></line><text fill="currentColor" x="-9" dy="0.32em">30,000</text></g></g><text transform="rotate(-90)" y="-80" x="-165" dy="1em" text-anchor="middle" font-size="14px" fill="currentColor">Size (bytes)</text><g class="lines-group"><path class="line-path series-0" fill="none" stroke="#1f9bd9" stroke-width="2" d="M0,18.073L11.2,20.097L22.4,21.901L33.6,23.782L44.8,25.828L56,27.907L67.2,29.744L78.4,32.076L89.6,33.99L100.8,35.222L112,37.906L123.2,39.534L134.4,41.646L145.6,43.692L156.8,45.397L168,48.202L179.2,49.929L190.4,51.799L201.6,54.087L212.8,56.32L224,58.388L235.2,61.182L246.4,64.229L257.6,65.703L268.8,68.079L280,70.818L291.2,74.415L302.4,76.747L313.6,78.87L324.8,82.016L336,85.217L347.2,88.33L358.4,90.178L369.6,94.16L380.8,95.634L392,100.573L403.2,104.544L414.4,105.303L425.6,110.143L436.8,113.641L448,119.438L459.2,121.121L470.4,126.984L481.6,132.055L492.8,139.293L504,143.429L515.2,149.171L526.4,157.113L537.6,164.285L548.8,173.855L560,187.187"></path><path class="line-path series-1" fill="none" stroke="#ff6d22" stroke-width="2" d="M0,18.073L11.2,20.053L22.4,20.306L33.6,22.649L44.8,23.584L56,25.047L67.2,26.752L78.4,29.106L89.6,30.305L100.8,31.812L112,34.254L123.2,35.717L134.4,38.368L145.6,40.062L156.8,42.702L168,45.826L179.2,48.268L190.4,50.721L201.6,54.494L212.8,57.013L224,60.016L235.2,64.064L246.4,66.979L257.6,70.994L268.8,74.349L280,78.551L291.2,84.26L302.4,88.033L313.6,91.531L324.8,96.217L336,102.135L347.2,108.174L358.4,113.366L369.6,118.668L380.8,124.058L392,131.208L403.2,138.875L414.4,145.255L425.6,152.944L436.8,160.699L448,170.038L459.2,177.694L470.4,187.308L481.6,198.836L492.8,210.056L504,222.222L515.2,235.07L526.4,250.459L537.6,266.893L548.8,287.254L560,311.949"></path><path class="line-path series-2" fill="none" stroke="#48bc7f" stroke-width="2" d="M0,18.271L11.2,19.921L22.4,21.175L33.6,22.957L44.8,24.816L56,26.675L67.2,27.885L78.4,30.118L89.6,31.691L100.8,33.594L112,35.739L123.2,37.455L134.4,39.611L145.6,41.844L156.8,44.055L168,46.222L179.2,48.884L190.4,51.469L201.6,54.34L212.8,56.694L224,59.202L235.2,63.261L246.4,65.901L257.6,69.08L268.8,72.061L280,76.285L291.2,81.147L302.4,84.711L313.6,87.703L324.8,91.674L336,97.218L347.2,102.399L358.4,107.36L369.6,112.387L380.8,117.26L392,124.278L403.2,131.34L414.4,137.115L425.6,144.595L436.8,152.372L448,161.48L459.2,168.993L470.4,178.321L481.6,190.168L492.8,201.74L504,214.456L515.2,227.931L526.4,244.222L537.6,261.943L548.8,284.086L560,310.739"></path><path class="line-path series-3" fill="none" stroke="#f43550" stroke-width="2" d="M0,54.934L11.2,54.934L22.4,54.934L33.6,54.934L44.8,54.934L56,55.242L67.2,55.924L78.4,56.903L89.6,57.827L100.8,58.773L112,60.203L123.2,61.347L134.4,63.184L145.6,64.427L156.8,66.473L168,68.607L179.2,70.895L190.4,72.589L201.6,75.493L212.8,77.792L224,79.893L235.2,82.819L246.4,85.041L257.6,87.516L268.8,90.409L280,93.423L291.2,96.756L302.4,99.847L313.6,102.179L324.8,105.358L336,109.791L347.2,114.114L358.4,117.513L369.6,121.649L380.8,125.367L392,131.043L403.2,137.148L414.4,143.055L425.6,149.776L436.8,157.498L448,166.309L459.2,173.481L470.4,183.139L481.6,194.755L492.8,206.052L504,218.405L515.2,230.923L526.4,246.851L537.6,263.89L548.8,285.626L560,311.157"></path><path class="line-path series-4" fill="none" stroke="#b834cc" stroke-width="2" d="M0,54.868L11.2,54.802L22.4,54.835L33.6,54.604L44.8,54.637L56,54.516L67.2,54.571L78.4,54.45L89.6,54.439L100.8,54.076L112,54.175L123.2,53.977L134.4,53.383L145.6,53.647L156.8,53.339L168,52.877L179.2,52.217L190.4,51.645L201.6,51.678L212.8,51.392L224,50.336L235.2,49.379L246.4,49.302L257.6,48.323L268.8,47.619L280,47.542L291.2,46.585L302.4,44.88L313.6,44.209L324.8,44.528L336,43.967L347.2,44.363L358.4,43.901L369.6,46.079L380.8,47.564L392,51.678L403.2,58.971L414.4,64.372L425.6,75.185L436.8,86.284L448,103.895L459.2,118.976L470.4,138.083L481.6,162.976L492.8,186.23L504,209.77L515.2,230.56L526.4,252.527L537.6,273.328L548.8,292.93L560,313.951"></path><path class="line-path series-5" fill="none" stroke="#ff77b9" stroke-width="2" d="M0,35.662L11.2,36.157L22.4,36.311L33.6,37.026L44.8,37.796L56,38.445L67.2,38.687L78.4,39.842L89.6,40.095L100.8,40.843L112,41.767L123.2,42.757L134.4,44.077L145.6,44.825L156.8,46.112L168,47.289L179.2,48.664L190.4,49.83L201.6,51.623L212.8,53.35L224,54.406L235.2,56.672L246.4,58.971L257.6,60.555L268.8,62.183L280,64.724L291.2,68.365L302.4,70.477L313.6,72.325L324.8,75.229L336,78.87L347.2,82.665L358.4,86.977L369.6,90.233L380.8,93.588L392,98.67L403.2,103.939L414.4,108.922L425.6,114.939L436.8,120.571L448,127.644L459.2,134.585L470.4,142.241L481.6,152.471L492.8,162.624L504,174.339L515.2,187.539L526.4,205.37L537.6,224.257L548.8,251.581L560,289.916"></path><path class="line-path series-6" fill="none" stroke="#7f7f7f" stroke-width="2" d="M0,55L11.2,55.077L22.4,55.308L33.6,55.693L44.8,56.243L56,56.947L67.2,57.805L78.4,58.817L89.6,59.994L100.8,61.325L112,62.821L123.2,64.482L134.4,66.297L145.6,68.288L156.8,70.444L168,72.754L179.2,75.251L190.4,77.913L201.6,80.751L212.8,83.776L224,86.966L235.2,90.354L246.4,93.929L257.6,97.691L268.8,101.651L280,105.809L291.2,110.176L302.4,114.752L313.6,119.548L324.8,124.575L336,129.822L347.2,135.322L358.4,141.064L369.6,147.059L380.8,153.34L392,159.896L403.2,166.76L414.4,173.932L425.6,181.445L436.8,189.31L448,197.571L459.2,206.239L470.4,215.369L481.6,225.005L492.8,235.213L504,246.059L515.2,257.664L526.4,270.193L537.6,283.899L548.8,299.255L560,317.504"></path></g><g class="highlight-group"></g><g transform="translate(570, 20)" style="font-stretch: condensed;"><g transform="translate(0,0)" class="legend-item"><rect width="15" height="15" fill="#1f9bd9"></rect><text x="20" y="12" font-size="12px" fill="currentColor">gamma-coded gaps</text></g><g transform="translate(0,20)" class="legend-item"><rect width="15" height="15" fill="#ff6d22"></rect><text x="20" y="12" font-size="12px" fill="currentColor">gamma-coded run lengths</text></g><g transform="translate(0,40)" class="legend-item"><rect width="15" height="15" fill="#48bc7f"></rect><text x="20" y="12" font-size="12px" fill="currentColor">flip coding (gamma)</text></g><g transform="translate(0,60)" class="legend-item"><rect width="15" height="15" fill="#f43550"></rect><text x="20" y="12" font-size="12px" fill="currentColor">zlib'd bitset</text></g><g transform="translate(0,80)" class="legend-item"><rect width="15" height="15" fill="#b834cc"></rect><text x="20" y="12" font-size="12px" fill="currentColor">triple partitioned</text></g><g transform="translate(0,100)" class="legend-item"><rect width="15" height="15" fill="#ff77b9"></rect><text x="20" y="12" font-size="12px" fill="currentColor">seq. binary interp. (leftmost)</text></g><g transform="translate(0,120)" class="legend-item"><rect width="15" height="15" fill="#7f7f7f"></rect><text x="20" y="12" font-size="12px" fill="currentColor">lower bound</text></g></g></g></svg>