<svg width="800" height="450" xmlns="http://www.w3.org/2000/svg" id="chart"><g transform="translate(80,40)"><text x="280" y="-10" text-anchor="middle" font-size="20px" font-weight="bold" fill="currentColor">synthetic-varying-autocorr-50 - Per-Entry Size</text><g opacity="0.1" fill="none" font-size="10" text-anchor="end"><g class="tick" opacity="1" transform="translate(0,330.5)"><line stroke="currentColor" x2="560"></line><text fill="currentColor" x="-3" dy="0.32em"></text></g><g class="tick" opacity="1" transform="translate(0,289.25)"><line stroke="currentColor" x2="560"></line><text fill="currentColor" x="-3" dy="0.32em"></text></g><g class="tick" opacity="1" transform="translate(0,248)"><line stroke="currentColor" x2="560"></line><text fill="currentColor" x="-3" dy="0.32em"></text></g><g class="tick" opacity="1" transform="translate(0,206.75)"><line stroke="currentColor" x2="560"></line><text fill="currentColor" x="-3" dy="0.32em"></text></g><g class="tick" opacity="1" transform="translate(0,165.5)"><line stroke="currentColor" x2="560"></line><text fill="currentColor" x="-3" dy="0.32em"></text></g><g class="tick" opacity="1" transform="translate(0,124.25)"><line stroke="currentColor" x2="560"></line><text fill="currentColor" x="-3" dy="0.32em"></text></g><g class="tick" opacity="1" transform="translate(0,83)"><line stroke="currentColor" x2="560"></line><text fill="currentColor" x="-3" dy="0.32em"></text></g><g class="tick" opacity="1" transform="translate(0,41.75)"><line stroke="currentColor" x2="560"></line><text fill="currentColor" x="-3" dy="0.32em"></text></g><g class="tick" opacity="1" transform="translate(0,0.5)"><line stroke="currentColor" x2="560"></line><text fill="currentColor" x="-3" dy="0.32em"></text></g></g><g font-size="10" transform="translate(0,330)" fill="none" text-anchor="middle"><path class="domain" stroke="currentColor" d="M0.5,6V0.5H560.5V6"></path><g class="tick" opacity="1" transform="translate(0.5,0)"><line stroke="currentColor" y2="6"></line><text fill="currentColor" y="9" dy="0.5em" transform="rotate(-35)" dx="-0.5em" font-size="9px" style="font-stretch: condensed; text-anchor: end;">autocorr=0.000, 50% density</text></g><g class="tick" opacity="1" transform="translate(22.900000000000002,0)"><line stroke="currentColor" y2="6"></line><text fill="currentColor" y="9" dy="0.5em" transform="rotate(-35)" dx="-0.5em" font-size="9px" style="font-stretch: condensed; text-anchor: end;">autocorr=0.040, 50% density</text></g><g class="tick" opacity="1" transform="translate(45.300000000000004,0)"><line stroke="currentColor" y2="6"></line><text fill="currentColor" y="9" dy="0.5em" transform="rotate(-35)" dx="-0.5em" font-size="9px" style="font-stretch: condensed; text-anchor: end;">autocorr=0.079, 50% density</text></g><g class="tick" opacity="1" transform="translate(67.7,0)"><line stroke="currentColor" y2="6"></line><text fill="currentColor" y="9" dy="0.5em" transform="rotate(-35)" dx="-0.5em" font-size="9px" style="font-stretch: condensed; text-anchor: end;">autocorr=0.119, 50% density</text></g><g class="tick" opacity="1" transform="translate(90.10000000000001,0)"><line stroke="currentColor" y2="6"></line><text fill="currentColor" y="9" dy="0.5em" transform="rotate(-35)" dx="-0.5em" font-size="9px" style="font-stretch: condensed; text-anchor: end;">autocorr=0.158, 50% density</text></g><g class="tick" opacity="1" transform="translate(112.5,0)"><line stroke="currentColor" y2="6"></line><text fill="currentColor" y="9" dy="0.5em" transform="rotate(-35)" dx="-0.5em" font-size="9px" style="font-stretch: condensed; text-anchor: end;">autocorr=0.198, 50% density</text></g><g class="tick" opacity="1" transform="translate(134.9,0)"><line stroke="currentColor" y2="6"></line><text fill="currentColor" y="9" dy="0.5em" transform="rotate(-35)" dx="-0.5em" font-size="9px" style="font-stretch: condensed; text-anchor: end;">autocorr=0.238, 50% density</text></g><g class="tick" opacity="1" transform="translate(157.3,0)"><line stroke="currentColor" y2="6"></line><text fill="currentColor" y="9" dy="0.5em" transform="rotate(-35)" dx="-0.5em" font-size="9px" style="font-stretch: condensed; text-anchor: end;">autocorr=0.277, 50% density</text></g><g class="tick" opacity="1" transform="translate(179.70000000000002,0)"><line stroke="currentColor" y2="6"></line><text fill="currentColor" y="9" dy="0.5em" transform="rotate(-35)" dx="-0.5em" font-size="9px" style="font-stretch: condensed; text-anchor: end;">autocorr=0.317, 50% density</text></g><g class="tick" opacity="1" transform="translate(202.1,0)"><line stroke="currentColor" y2="6"></line><text fill="currentColor" y="9" dy="0.5em" transform="rotate(-35)" dx="-0.5em" font-size="9px" style="font-stretch: condensed; text-anchor: end;">autocorr=0.356, 50% density</text></g><g class="tick" opacity="1" transform="translate(224.5,0)"><line stroke="currentColor" y2="6"></line><text fill="currentColor" y="9" dy="0.5em" transform="rotate(-35)" dx="-0.5em" font-size="9px" style="font-stretch: condensed; text-anchor: end;">autocorr=0.396, 50% density</text></g><g class="tick" opacity="1" transform="translate(246.9,0)"><line stroke="currentColor" y2="6"></line><text fill="currentColor" y="9" dy="0.5em" transform="rotate(-35)" dx="-0.5em" font-size="9px" style="font-stretch: condensed; text-anchor: end;">autocorr=0.436, 50% density</text></g><g class="tick" opacity="1" transform="translate(269.3,0)"><line stroke="currentColor" y2="6"></line><text fill="currentColor" y="9" dy="0.5em" transform="rotate(-35)" dx="-0.5em" font-size="9px" style="font-stretch: condensed; text-anchor: end;">autocorr=0.475, 50% density</text></g><g class="tick" opacity="1" transform="translate(291.7,0)"><line stroke="currentColor" y2="6"></line><text fill="currentColor" y="9" dy="0.5em" transform="rotate(-35)" dx="-0.5em" font-size="9px" style="font-stretch: condensed; text-anchor: end;">autocorr=0.515, 50% density</text></g><g class="tick" opacity="1" transform="translate(314.1,0)"><line stroke="currentColor" y2="6"></line><text fill="currentColor" y="9" dy="0.5em" transform="rotate(-35)" dx="-0.5em" font-size="9px" style="font-stretch: condensed; text-anchor: end;">autocorr=0.554, 50% density</text></g><g class="tick" opacity="1" transform="translate(336.5,0)"><line stroke="currentColor" y2="6"></line><text fill="currentColor" y="9" dy="0.5em" transform="rotate(-35)" dx="-0.5em" font-size="9px" style="font-stretch: condensed; text-anchor: end;">autocorr=0.594, 50% density</text></g><g class="tick" opacity="1" transform="translate(358.90000000000003,0)"><line stroke="currentColor" y2="6"></line><text fill="currentColor" y="9" dy="0.5em" transform="rotate(-35)" dx="-0.5em" font-size="9px" style="font-stretch: condensed; text-anchor: end;">autocorr=0.634, 50% density</text></g><g class="tick" opacity="1" transform="translate(381.3,0)"><line stroke="currentColor" y2="6"></line><text fill="currentColor" y="9" dy="0.5em" transform="rotate(-35)" dx="-0.5em" font-size="9px" style="font-stretch: condensed; text-anchor: end;">autocorr=0.673, 50% density</text></g><g class="tick" opacity="1" transform="translate(403.7,0)"><line stroke="currentColor" y2="6"></line><text fill="currentColor" y="9" dy="0.5em" transform="rotate(-35)" dx="-0.5em" font-size="9px" style="font-stretch: condensed; text-anchor: end;">autocorr=0.713, 50% density</text></g><g class="tick" opacity="1" transform="translate(426.1,0)"><line stroke="currentColor" y2="6"></line><text fill="currentColor" y="9" dy="0.5em" transform="rotate(-35)" dx="-0.5em" font-size="9px" style="font-stretch: condensed; text-anchor: end;">autocorr=0.752, 50% density</text></g><g class="tick" opacity="1" transform="translate(448.5,0)"><line stroke="currentColor" y2="6"></line><text fill="currentColor" y="9" dy="0.5em" transform="rotate(-35)" dx="-0.5em" font-size="9px" style="font-stretch: condensed; text-anchor: end;">autocorr=0.792, 50% density</text></g><g class="tick" opacity="1" transform="translate(470.9,0)"><line stroke="currentColor" y2="6"></line><text fill="currentColor" y="9" dy="0.5em" transform="rotate(-35)" dx="-0.5em" font-size="9px" style="font-stretch: condensed; text-anchor: end;">autocorr=0.832, 50% density</text></g><g class="tick" opacity="1" transform="translate(493.3,0)"><line stroke="currentColor" y2="6"></line><text fill="currentColor" y="9" dy="0.5em" transform="rotate(-35)" dx="-0.5em" font-size="9px" style="font-stretch: condensed; text-anchor: end;">autocorr=0.871, 50% density</text></g><g class="tick" opacity="1" transform="translate(515.7,0)"><line stroke="currentColor" y2="6"></line><text fill="currentColor" y="9" dy="0.5em" transform="rotate(-35)" dx="-0.5em" font-size="9px" style="font-stretch: condensed; text-anchor: end;">autocorr=0.911, 50% density</text></g><g class="tick" opacity="1" transform="translate(538.1,0)"><line stroke="currentColor" y2="6"></line><text fill="currentColor" y="9" dy="0.5em" transform="rotate(-35)" dx="-0.5em" font-size="9px" style="font-stretch: condensed; text-anchor: end;">autocorr=0.950, 50% density</text></g><g class="tick" opacity="1" transform="translate(560.5,0)"><line stroke="currentColor" y2="6"></line><text fill="currentColor" y="9" dy="0.5em" transform="rotate(-35)" dx="-0.5em" font-size="9px" style="font-stretch: condensed; text-anchor: end;">autocorr=0.990, 50% density</text></g></g><g font-size="10" fill="none" text-anchor="end"><path class="domain" stroke="currentColor" d="M-6,330.5H0.5V0.5H-6"></path><g class="tick" opacity="1" transform="translate(0,330.5)"><line stroke="currentColor" x2="-6"></line><text fill="currentColor" x="-9" dy="0.32em">0</text></g><g class="tick" opacity="1" transform="translate(0,289.25)"><line stroke="currentColor" x2="-6"></line><text fill="currentColor" x="-9" dy="0.32em">10,000</text></g><g class="tick" opacity="1" transform="translate(0,248)"><line stroke="currentColor" x2="-6"></line><text fill="currentColor" x="-9" dy="0.32em">20,000</text></g><g class="tick" opacity="1" transform="translate(0,206.75)"><line stroke="currentColor" x2="-6"></line><text fill="currentColor" x="-9" dy="0.32em">30,000</text></g><g class="tick" opacity="1" transform="translate(0,165.5)"><line stroke="currentColor" x2="-6"></line><text fill="currentColor" x="-9" dy="0.32em">40,000</text></g><g class="tick" opacity="1" transform="translate(0,124.25)"><line stroke="currentColor" x2="-6"></line><text fill="currentColor" x="-9" dy="0.32em">50,000</text></g><g class="tick" opacity="1" transform="translate(0,83)"><line stroke="currentColor" x2="-6"></line><text fill="currentColor" x="-9" dy="0.32em">60,000</text></g><g class="tick" opacity="1" transform="translate(0,41.75)"><line stroke="currentColor" x2="-6"></line><text fill="currentColor" x="-9" dy="0.32em">70,000</text></g><g class="tick" opacity="1" transform="translate(0,0.5)"><line stroke="currentColor" x2="-6"></line><text fill="currentColor" x="-9" dy="0.32em">80,000</text></g></g><text transform="rotate(-90)" y="-80" x="-165" dy="1em" text-anchor="middle" font-size="14px" fill="currentColor">Size (bytes)</text><g class="lines-group"><path class="line-path series-0" fill="none" stroke="#1f9bd9" stroke-width="2" d="M0,213.027L11.2,213.786L22.4,214.463L33.6,215.168L44.8,215.936L56,216.715L67.2,217.404L78.4,218.279L89.6,218.996L100.8,219.458L112,220.465L123.2,221.075L134.4,221.867L145.6,222.635L156.8,223.274L168,224.326L179.2,224.973L190.4,225.675L201.6,226.533L212.8,227.37L224,228.146L235.2,229.193L246.4,230.336L257.6,230.889L268.8,231.78L280,232.807L291.2,234.156L302.4,235.03L313.6,235.826L324.8,237.006L336,238.206L347.2,239.374L358.4,240.067L369.6,241.56L380.8,242.113L392,243.965L403.2,245.454L414.4,245.739L425.6,247.554L436.8,248.865L448,251.039L459.2,251.67L470.4,253.869L481.6,255.771L492.8,258.485L504,260.036L515.2,262.189L526.4,265.167L537.6,267.857L548.8,271.446L560,276.445"></path><path class="line-path series-1" fill="none" stroke="#ff6d22" stroke-width="2" d="M0,213.027L11.2,213.77L22.4,213.865L33.6,214.743L44.8,215.094L56,215.643L67.2,216.282L78.4,217.165L89.6,217.614L100.8,218.18L112,219.095L123.2,219.644L134.4,220.638L145.6,221.273L156.8,222.263L168,223.435L179.2,224.351L190.4,225.27L201.6,226.685L212.8,227.63L224,228.756L235.2,230.274L246.4,231.367L257.6,232.873L268.8,234.131L280,235.707L291.2,237.848L302.4,239.262L313.6,240.574L324.8,242.331L336,244.551L347.2,246.815L358.4,248.762L369.6,250.751L380.8,252.772L392,255.453L403.2,258.328L414.4,260.721L425.6,263.604L436.8,266.512L448,270.014L459.2,272.885L470.4,276.491L481.6,280.814L492.8,285.021L504,289.583L515.2,294.401L526.4,300.172L537.6,306.335L548.8,313.97L560,323.231"></path><path class="line-path series-2" fill="none" stroke="#48bc7f" stroke-width="2" d="M0,213.102L11.2,213.72L22.4,214.191L33.6,214.859L44.8,215.556L56,216.253L67.2,216.707L78.4,217.544L89.6,218.134L100.8,218.848L112,219.652L123.2,220.296L134.4,221.104L145.6,221.942L156.8,222.771L168,223.583L179.2,224.582L190.4,225.551L201.6,226.628L212.8,227.51L224,228.451L235.2,229.973L246.4,230.963L257.6,232.155L268.8,233.273L280,234.857L291.2,236.68L302.4,238.017L313.6,239.139L324.8,240.628L336,242.707L347.2,244.65L358.4,246.51L369.6,248.395L380.8,250.223L392,252.854L403.2,255.503L414.4,257.668L425.6,260.473L436.8,263.39L448,266.805L459.2,269.622L470.4,273.12L481.6,277.563L492.8,281.903L504,286.671L515.2,291.724L526.4,297.833L537.6,304.479L548.8,312.782L560,322.777"></path><path class="line-path series-3" fill="none" stroke="#ffb92d" stroke-width="2" d="M0,19.647L11.2,24.61L22.4,27.906L33.6,33.091L44.8,37.368L56,41.902L67.2,46.881L78.4,52.359L89.6,56.698L100.8,59.577L112,66.14L123.2,70.241L134.4,75.805L145.6,80.231L156.8,85.045L168,91.414L179.2,96.5L190.4,101.005L201.6,107.469L212.8,112.328L224,117.307L235.2,124.101L246.4,130.362L257.6,135.539L268.8,140.799L280,147.758L291.2,155.496L302.4,160.953L313.6,165.681L324.8,172.524L336,179.735L347.2,187.226L358.4,193.314L369.6,199.712L380.8,205.099L392,212.941L403.2,220.65L414.4,226.611L425.6,233.731L436.8,241.131L448,249.101L459.2,255.197L470.4,262.952L481.6,270.98L492.8,278.722L504,285.702L515.2,292.925L526.4,300.065L537.6,307.313L548.8,314.75L560,323.59"></path><path class="line-path series-4" fill="none" stroke="#f43550" stroke-width="2" d="M0,226.85L11.2,226.85L22.4,226.85L33.6,226.85L44.8,226.85L56,226.966L67.2,227.222L78.4,227.589L89.6,227.935L100.8,228.29L112,228.826L123.2,229.255L134.4,229.944L145.6,230.41L156.8,231.177L168,231.978L179.2,232.836L190.4,233.471L201.6,234.56L212.8,235.422L224,236.21L235.2,237.307L246.4,238.14L257.6,239.069L268.8,240.153L280,241.284L291.2,242.534L302.4,243.693L313.6,244.567L324.8,245.759L336,247.422L347.2,249.043L358.4,250.317L369.6,251.868L380.8,253.263L392,255.391L403.2,257.681L414.4,259.896L425.6,262.416L436.8,265.312L448,268.616L459.2,271.305L470.4,274.927L481.6,279.283L492.8,283.52L504,288.152L515.2,292.846L526.4,298.819L537.6,305.209L548.8,313.36L560,322.934"></path><path class="line-path series-5" fill="none" stroke="#b834cc" stroke-width="2" d="M0,226.826L11.2,226.801L22.4,226.813L33.6,226.727L44.8,226.739L56,226.693L67.2,226.714L78.4,226.669L89.6,226.665L100.8,226.529L112,226.566L123.2,226.491L134.4,226.269L145.6,226.368L156.8,226.252L168,226.079L179.2,225.831L190.4,225.617L201.6,225.629L212.8,225.522L224,225.126L235.2,224.767L246.4,224.738L257.6,224.371L268.8,224.107L280,224.078L291.2,223.719L302.4,223.08L313.6,222.828L324.8,222.948L336,222.738L347.2,222.886L358.4,222.713L369.6,223.53L380.8,224.086L392,225.629L403.2,228.364L414.4,230.39L425.6,234.444L436.8,238.606L448,245.211L459.2,250.866L470.4,258.031L481.6,267.366L492.8,276.086L504,284.914L515.2,292.71L526.4,300.948L537.6,308.748L548.8,316.099L560,323.982"></path><path class="line-path series-6" fill="none" stroke="#9b7058" stroke-width="2" d="M0,175.242L11.2,175.077L22.4,175.176L33.6,175.069L44.8,175.119L56,175.412L67.2,175.478L78.4,175.42L89.6,175.515L100.8,175.036L112,175.535L123.2,175.461L134.4,175.412L145.6,175.832L156.8,175.16L168,175.688L179.2,175.185L190.4,175.28L201.6,175.115L212.8,175.16L224,175.201L235.2,175.214L246.4,176.294L257.6,175.16L268.8,175.098L280,175.214L291.2,176.014L302.4,175.659L313.6,175.321L324.8,176.001L336,175.68L347.2,175.597L358.4,175.11L369.6,175.902L380.8,174.958L392,175.77L403.2,175.733L414.4,174.426L425.6,174.929L436.8,174.805L448,175.465L459.2,174.434L470.4,175.119L481.6,175.011L492.8,176.484L504,175.197L515.2,175.259L526.4,176.146L537.6,175.737L548.8,176.055L560,177.647"></path><path class="line-path series-7" fill="none" stroke="#ff77b9" stroke-width="2" d="M0,219.623L11.2,219.809L22.4,219.867L33.6,220.135L44.8,220.424L56,220.667L67.2,220.758L78.4,221.191L89.6,221.286L100.8,221.566L112,221.913L123.2,222.284L134.4,222.779L145.6,223.059L156.8,223.542L168,223.983L179.2,224.499L190.4,224.936L201.6,225.609L212.8,226.256L224,226.652L235.2,227.502L246.4,228.364L257.6,228.958L268.8,229.569L280,230.522L291.2,231.887L302.4,232.679L313.6,233.372L324.8,234.461L336,235.826L347.2,237.249L358.4,238.866L369.6,240.087L380.8,241.346L392,243.251L403.2,245.227L414.4,247.096L425.6,249.352L436.8,251.464L448,254.117L459.2,256.719L470.4,259.59L481.6,263.427L492.8,267.234L504,271.627L515.2,276.577L526.4,283.264L537.6,290.346L548.8,300.593L560,314.969"></path><path class="line-path series-8" fill="none" stroke="#7f7f7f" stroke-width="2" d="M0,226.875L11.2,226.904L22.4,226.991L33.6,227.135L44.8,227.341L56,227.605L67.2,227.927L78.4,228.306L89.6,228.748L100.8,229.247L112,229.808L123.2,230.431L134.4,231.111L145.6,231.858L156.8,232.666L168,233.533L179.2,234.469L190.4,235.467L201.6,236.532L212.8,237.666L224,238.862L235.2,240.133L246.4,241.473L257.6,242.884L268.8,244.369L280,245.928L291.2,247.566L302.4,249.282L313.6,251.081L324.8,252.966L336,254.933L347.2,256.996L358.4,259.149L369.6,261.397L380.8,263.753L392,266.211L403.2,268.785L414.4,271.475L425.6,274.292L436.8,277.241L448,280.339L459.2,283.59L470.4,287.013L481.6,290.627L492.8,294.455L504,298.522L515.2,302.874L526.4,307.572L537.6,312.712L548.8,318.471L560,325.314"></path></g><g class="highlight-group"></g><g transform="translate(570, 20)" style="font-stretch: condensed;"><g transform="translate(0,0)" class="legend-item"><rect width="15" height="15" fill="#1f9bd9"></rect><text x="20" y="12" font-size="12px" fill="currentColor">gamma-coded gaps</text></g><g transform="translate(0,20)" class="legend-item"><rect width="15" height="15" fill="#ff6d22"></rect><text x="20" y="12" font-size="12px" fill="currentColor">gamma-coded run lengths</text></g><g transform="translate(0,40)" class="legend-item"><rect width="15" height="15" fill="#48bc7f"></rect><text x="20" y="12" font-size="12px" fill="currentColor">flip coding (gamma)</text></g><g transform="translate(0,60)" class="legend-item"><rect width="15" height="15" fill="#ffb92d"></rect><text x="20" y="12" font-size="12px" fill="currentColor">LEB128 + ranges</text></g><g transform="translate(0,80)" class="legend-item"><rect width="15" height="15" fill="#f43550"></rect><text x="20" y="12" font-size="12px" fill="currentColor">zlib'd bitset</text></g><g transform="translate(0,100)" class="legend-item"><rect width="15" height="15" fill="#b834cc"></rect><text x="20" y="12" font-size="12px" fill="currentColor">triple partitioned</text></g><g transform="translate(0,120)" class="legend-item"><rect width="15" height="15" fill="#9b7058"></rect><text x="20" y="12" font-size="12px" fill="currentColor">Elias-Fano</text></g><g transform="translate(0,140)" class="legend-item"><rect width="15" height="15" fill="#ff77b9"></rect><text x="20" y="12" font-size="12px" fill="currentColor">seq. binary interp. (leftmost)</text></g><g transform="translate(0,160)" class="legend-item"><rect width="15" height="15" fill="#7f7f7f"></rect><text x="20" y="12" font-size="12px" fill="currentColor">lower bound</text></g></g></g></svg>