<svg width="800" height="450" xmlns="http://www.w3.org/2000/svg" id="chart"><g transform="translate(80,40)"><text x="280" y="-10" text-anchor="middle" font-size="20px" font-weight="bold" fill="currentColor">synthetic - Per-Entry Size</text><g opacity="0.1" fill="none" font-size="10" text-anchor="end"><g class="tick" opacity="1" transform="translate(0,330.5)"><line stroke="currentColor" x2="560"></line><text fill="currentColor" x="-3" dy="0.32em"></text></g><g class="tick" opacity="1" transform="translate(0,289.25)"><line stroke="currentColor" x2="560"></line><text fill="currentColor" x="-3" dy="0.32em"></text></g><g class="tick" opacity="1" transform="translate(0,248)"><line stroke="currentColor" x2="560"></line><text fill="currentColor" x="-3" dy="0.32em"></text></g><g class="tick" opacity="1" transform="translate(0,206.75)"><line stroke="currentColor" x2="560"></line><text fill="currentColor" x="-3" dy="0.32em"></text></g><g class="tick" opacity="1" transform="translate(0,165.5)"><line stroke="currentColor" x2="560"></line><text fill="currentColor" x="-3" dy="0.32em"></text></g><g class="tick" opacity="1" transform="translate(0,124.25)"><line stroke="currentColor" x2="560"></line><text fill="currentColor" x="-3" dy="0.32em"></text></g><g class="tick" opacity="1" transform="translate(0,83)"><line stroke="currentColor" x2="560"></line><text fill="currentColor" x="-3" dy="0.32em"></text></g><g class="tick" opacity="1" transform="translate(0,41.75)"><line stroke="currentColor" x2="560"></line><text fill="currentColor" x="-3" dy="0.32em"></text></g><g class="tick" opacity="1" transform="translate(0,0.5)"><line stroke="currentColor" x2="560"></line><text fill="currentColor" x="-3" dy="0.32em"></text></g></g><g font-size="10" transform="translate(0,330)" fill="none" text-anchor="middle"><path class="domain" stroke="currentColor" d="M0.5,6V0.5H560.5V6"></path><g class="tick" opacity="1" transform="translate(0.5,0)"><line stroke="currentColor" y2="6"></line><text fill="currentColor" y="9" dy="0.5em" transform="rotate(-35)" dx="-0.5em" font-size="9px" style="font-stretch: condensed; text-anchor: end;">0% density (uniform)</text></g><g class="tick" opacity="1" transform="translate(22.900000000000002,0)"><line stroke="currentColor" y2="6"></line><text fill="currentColor" y="9" dy="0.5em" transform="rotate(-35)" dx="-0.5em" font-size="9px" style="font-stretch: condensed; text-anchor: end;">4% density (uniform)</text></g><g class="tick" opacity="1" transform="translate(45.300000000000004,0)"><line stroke="currentColor" y2="6"></line><text fill="currentColor" y="9" dy="0.5em" transform="rotate(-35)" dx="-0.5em" font-size="9px" style="font-stretch: condensed; text-anchor: end;">8% density (uniform)</text></g><g class="tick" opacity="1" transform="translate(67.7,0)"><line stroke="currentColor" y2="6"></line><text fill="currentColor" y="9" dy="0.5em" transform="rotate(-35)" dx="-0.5em" font-size="9px" style="font-stretch: condensed; text-anchor: end;">12% density (uniform)</text></g><g class="tick" opacity="1" transform="translate(90.10000000000001,0)"><line stroke="currentColor" y2="6"></line><text fill="currentColor" y="9" dy="0.5em" transform="rotate(-35)" dx="-0.5em" font-size="9px" style="font-stretch: condensed; text-anchor: end;">16% density (uniform)</text></g><g class="tick" opacity="1" transform="translate(112.5,0)"><line stroke="currentColor" y2="6"></line><text fill="currentColor" y="9" dy="0.5em" transform="rotate(-35)" dx="-0.5em" font-size="9px" style="font-stretch: condensed; text-anchor: end;">20% density (uniform)</text></g><g class="tick" opacity="1" transform="translate(134.9,0)"><line stroke="currentColor" y2="6"></line><text fill="currentColor" y="9" dy="0.5em" transform="rotate(-35)" dx="-0.5em" font-size="9px" style="font-stretch: condensed; text-anchor: end;">24% density (uniform)</text></g><g class="tick" opacity="1" transform="translate(157.3,0)"><line stroke="currentColor" y2="6"></line><text fill="currentColor" y="9" dy="0.5em" transform="rotate(-35)" dx="-0.5em" font-size="9px" style="font-stretch: condensed; text-anchor: end;">28% density (uniform)</text></g><g class="tick" opacity="1" transform="translate(179.70000000000002,0)"><line stroke="currentColor" y2="6"></line><text fill="currentColor" y="9" dy="0.5em" transform="rotate(-35)" dx="-0.5em" font-size="9px" style="font-stretch: condensed; text-anchor: end;">32% density (uniform)</text></g><g class="tick" opacity="1" transform="translate(202.1,0)"><line stroke="currentColor" y2="6"></line><text fill="currentColor" y="9" dy="0.5em" transform="rotate(-35)" dx="-0.5em" font-size="9px" style="font-stretch: condensed; text-anchor: end;">36% density (uniform)</text></g><g class="tick" opacity="1" transform="translate(224.5,0)"><line stroke="currentColor" y2="6"></line><text fill="currentColor" y="9" dy="0.5em" transform="rotate(-35)" dx="-0.5em" font-size="9px" style="font-stretch: condensed; text-anchor: end;">40% density (uniform)</text></g><g class="tick" opacity="1" transform="translate(246.9,0)"><line stroke="currentColor" y2="6"></line><text fill="currentColor" y="9" dy="0.5em" transform="rotate(-35)" dx="-0.5em" font-size="9px" style="font-stretch: condensed; text-anchor: end;">44% density (uniform)</text></g><g class="tick" opacity="1" transform="translate(269.3,0)"><line stroke="currentColor" y2="6"></line><text fill="currentColor" y="9" dy="0.5em" transform="rotate(-35)" dx="-0.5em" font-size="9px" style="font-stretch: condensed; text-anchor: end;">48% density (uniform)</text></g><g class="tick" opacity="1" transform="translate(291.7,0)"><line stroke="currentColor" y2="6"></line><text fill="currentColor" y="9" dy="0.5em" transform="rotate(-35)" dx="-0.5em" font-size="9px" style="font-stretch: condensed; text-anchor: end;">52% density (uniform)</text></g><g class="tick" opacity="1" transform="translate(314.1,0)"><line stroke="currentColor" y2="6"></line><text fill="currentColor" y="9" dy="0.5em" transform="rotate(-35)" dx="-0.5em" font-size="9px" style="font-stretch: condensed; text-anchor: end;">56% density (uniform)</text></g><g class="tick" opacity="1" transform="translate(336.5,0)"><line stroke="currentColor" y2="6"></line><text fill="currentColor" y="9" dy="0.5em" transform="rotate(-35)" dx="-0.5em" font-size="9px" style="font-stretch: condensed; text-anchor: end;">60% density (uniform)</text></g><g class="tick" opacity="1" transform="translate(358.90000000000003,0)"><line stroke="currentColor" y2="6"></line><text fill="currentColor" y="9" dy="0.5em" transform="rotate(-35)" dx="-0.5em" font-size="9px" style="font-stretch: condensed; text-anchor: end;">64% density (uniform)</text></g><g class="tick" opacity="1" transform="translate(381.3,0)"><line stroke="currentColor" y2="6"></line><text fill="currentColor" y="9" dy="0.5em" transform="rotate(-35)" dx="-0.5em" font-size="9px" style="font-stretch: condensed; text-anchor: end;">68% density (uniform)</text></g><g class="tick" opacity="1" transform="translate(403.7,0)"><line stroke="currentColor" y2="6"></line><text fill="currentColor" y="9" dy="0.5em" transform="rotate(-35)" dx="-0.5em" font-size="9px" style="font-stretch: condensed; text-anchor: end;">72% density (uniform)</text></g><g class="tick" opacity="1" transform="translate(426.1,0)"><line stroke="currentColor" y2="6"></line><text fill="currentColor" y="9" dy="0.5em" transform="rotate(-35)" dx="-0.5em" font-size="9px" style="font-stretch: condensed; text-anchor: end;">76% density (uniform)</text></g><g class="tick" opacity="1" transform="translate(448.5,0)"><line stroke="currentColor" y2="6"></line><text fill="currentColor" y="9" dy="0.5em" transform="rotate(-35)" dx="-0.5em" font-size="9px" style="font-stretch: condensed; text-anchor: end;">80% density (uniform)</text></g><g class="tick" opacity="1" transform="translate(470.9,0)"><line stroke="currentColor" y2="6"></line><text fill="currentColor" y="9" dy="0.5em" transform="rotate(-35)" dx="-0.5em" font-size="9px" style="font-stretch: condensed; text-anchor: end;">84% density (uniform)</text></g><g class="tick" opacity="1" transform="translate(493.3,0)"><line stroke="currentColor" y2="6"></line><text fill="currentColor" y="9" dy="0.5em" transform="rotate(-35)" dx="-0.5em" font-size="9px" style="font-stretch: condensed; text-anchor: end;">88% density (uniform)</text></g><g class="tick" opacity="1" transform="translate(515.7,0)"><line stroke="currentColor" y2="6"></line><text fill="currentColor" y="9" dy="0.5em" transform="rotate(-35)" dx="-0.5em" font-size="9px" style="font-stretch: condensed; text-anchor: end;">92% density (uniform)</text></g><g class="tick" opacity="1" transform="translate(538.1,0)"><line stroke="currentColor" y2="6"></line><text fill="currentColor" y="9" dy="0.5em" transform="rotate(-35)" dx="-0.5em" font-size="9px" style="font-stretch: condensed; text-anchor: end;">96% density (uniform)</text></g><g class="tick" opacity="1" transform="translate(560.5,0)"><line stroke="currentColor" y2="6"></line><text fill="currentColor" y="9" dy="0.5em" transform="rotate(-35)" dx="-0.5em" font-size="9px" style="font-stretch: condensed; text-anchor: end;">100% density (uniform)</text></g></g><g font-size="10" fill="none" text-anchor="end"><path class="domain" stroke="currentColor" d="M-6,330.5H0.5V0.5H-6"></path><g class="tick" opacity="1" transform="translate(0,330.5)"><line stroke="currentColor" x2="-6"></line><text fill="currentColor" x="-9" dy="0.32em">0</text></g><g class="tick" opacity="1" transform="translate(0,289.25)"><line stroke="currentColor" x2="-6"></line><text fill="currentColor" x="-9" dy="0.32em">10,000</text></g><g class="tick" opacity="1" transform="translate(0,248)"><line stroke="currentColor" x2="-6"></line><text fill="currentColor" x="-9" dy="0.32em">20,000</text></g><g class="tick" opacity="1" transform="translate(0,206.75)"><line stroke="currentColor" x2="-6"></line><text fill="currentColor" x="-9" dy="0.32em">30,000</text></g><g class="tick" opacity="1" transform="translate(0,165.5)"><line stroke="currentColor" x2="-6"></line><text fill="currentColor" x="-9" dy="0.32em">40,000</text></g><g class="tick" opacity="1" transform="translate(0,124.25)"><line stroke="currentColor" x2="-6"></line><text fill="currentColor" x="-9" dy="0.32em">50,000</text></g><g class="tick" opacity="1" transform="translate(0,83)"><line stroke="currentColor" x2="-6"></line><text fill="currentColor" x="-9" dy="0.32em">60,000</text></g><g class="tick" opacity="1" transform="translate(0,41.75)"><line stroke="currentColor" x2="-6"></line><text fill="currentColor" x="-9" dy="0.32em">70,000</text></g><g class="tick" opacity="1" transform="translate(0,0.5)"><line stroke="currentColor" x2="-6"></line><text fill="currentColor" x="-9" dy="0.32em">80,000</text></g></g><text transform="rotate(-90)" y="-80" x="-165" dy="1em" text-anchor="middle" font-size="14px" fill="currentColor">Size (bytes)</text><g class="lines-group"><path class="line-path series-0" fill="none" stroke="#1f9bd9" stroke-width="2" d="M0,330L11.2,309.771L22.4,296.468L33.6,287.191L44.8,278.405L56,271.215L67.2,265.023L78.4,258.926L89.6,253.989L100.8,249.15L112,245.442L123.2,241.308L134.4,237.633L145.6,234.836L156.8,231.916L168,229.181L179.2,227.003L190.4,224.478L201.6,222.449L212.8,220.989L224,219.046L235.2,217.482L246.4,216.233L257.6,215.205L268.8,214.137L280,213.023L291.2,212.384L302.4,211.584L313.6,211.299L324.8,210.792L336,210.532L347.2,210.466L358.4,210.21L369.6,210.206L380.8,210.264L392,210.577L403.2,210.944L414.4,211.361L425.6,211.835L436.8,212.512L448,213.205L459.2,213.968L470.4,214.921L481.6,216.002L492.8,217.177L504,218.472L515.2,219.863L526.4,221.405L537.6,222.952L548.8,224.817L560,226.875"></path><path class="line-path series-1" fill="none" stroke="#ff6d22" stroke-width="2" d="M0,330L11.2,308.105L22.4,293.453L33.6,283.194L44.8,273.702L56,265.869L67.2,259.161L78.4,252.953L89.6,247.748L100.8,242.628L112,238.957L123.2,234.886L134.4,231.528L145.6,228.686L156.8,226.067L168,223.715L179.2,221.711L190.4,219.644L201.6,218.047L212.8,216.95L224,215.779L235.2,214.731L246.4,214.137L257.6,213.506L268.8,213.242L280,213.155L291.2,213.131L302.4,213.63L313.6,214.158L324.8,214.648L336,215.754L347.2,216.69L358.4,217.924L369.6,219.743L380.8,221.36L392,223.761L403.2,226.067L414.4,228.735L425.6,231.652L436.8,235.253L448,239.04L459.2,242.835L470.4,247.851L481.6,253.073L492.8,259.099L504,266.174L515.2,273.797L526.4,282.88L537.6,293.213L548.8,307.317L560,329.979"></path><path class="line-path series-2" fill="none" stroke="#48bc7f" stroke-width="2" d="M0,330L11.2,309.726L22.4,296.348L33.6,286.906L44.8,277.943L56,270.583L67.2,264.161L78.4,257.87L89.6,252.528L100.8,247.446L112,243.569L123.2,239.238L134.4,235.294L145.6,232.2L156.8,229.061L168,226.232L179.2,223.942L190.4,221.447L201.6,219.533L212.8,218.056L224,216.447L235.2,215.139L246.4,214.385L257.6,213.729L268.8,213.312L280,213.093L291.2,213.213L302.4,213.749L313.6,214.508L324.8,215.148L336,216.323L347.2,217.845L358.4,219.537L369.6,221.645L380.8,223.484L392,226.368L403.2,229.189L414.4,232.172L425.6,235.546L436.8,239.473L448,243.548L459.2,247.504L470.4,252.71L481.6,257.858L492.8,263.876L504,270.724L515.2,278.079L526.4,286.634L537.6,296.183L548.8,309.041L560,329.979"></path><path class="line-path series-3" fill="none" stroke="#ffb92d" stroke-width="2" d="M0,330L11.2,309L22.4,293.927L33.6,279.877L44.8,264.062L56,248.457L67.2,232.807L78.4,216.641L89.6,201.717L100.8,185.402L112,171.963L123.2,157.183L134.4,143.063L145.6,130.404L156.8,117.191L168,105.427L179.2,94.487L190.4,81.758L201.6,71.408L212.8,63.067L224,53.365L235.2,44.798L246.4,37.005L257.6,31.032L268.8,25.286L280,19.775L291.2,16.517L302.4,13.625L313.6,13.872L324.8,12L336,14.153L347.2,15.436L358.4,17.671L369.6,22.898L380.8,27.836L392,35.743L403.2,44.41L414.4,54.359L425.6,65.344L436.8,79.052L448,93.39L459.2,107.613L470.4,126.027L481.6,145.241L492.8,166.621L504,189.498L515.2,213.613L526.4,239.667L537.6,265.877L548.8,295.705L560,329.984"></path><path class="line-path series-4" fill="none" stroke="#f43550" stroke-width="2" d="M0,329.992L11.2,309.491L22.4,296.596L33.6,286.919L44.8,278.648L56,271.751L67.2,265.992L78.4,260.642L89.6,256.521L100.8,252.57L112,249.769L123.2,247.133L134.4,244.612L145.6,242.171L156.8,239.885L168,237.658L179.2,235.715L190.4,233.549L201.6,231.899L212.8,230.513L224,229.255L235.2,228.187L246.4,227.349L257.6,226.85L268.8,226.85L280,226.85L291.2,226.85L302.4,226.85L313.6,227.386L324.8,228.108L336,229.189L347.2,230.46L358.4,232.023L369.6,233.702L380.8,235.249L392,237.802L403.2,240.075L414.4,242.344L425.6,244.617L436.8,247.137L448,249.917L459.2,252.603L470.4,256.48L481.6,260.568L492.8,265.877L504,271.932L515.2,278.842L526.4,286.886L537.6,296.237L548.8,309.029L560,329.835"></path><path class="line-path series-5" fill="none" stroke="#b834cc" stroke-width="2" d="M0,329.988L11.2,311.211L22.4,290.924L33.6,271.475L44.8,254.368L56,242.476L67.2,234.733L78.4,229.313L89.6,226.537L100.8,225.291L112,225.031L123.2,224.813L134.4,224.862L145.6,225.085L156.8,225.427L168,225.658L179.2,225.873L190.4,226.178L201.6,226.302L212.8,226.504L224,226.632L235.2,226.768L246.4,226.685L257.6,226.809L268.8,226.809L280,226.805L291.2,226.846L302.4,226.788L313.6,226.751L324.8,226.797L336,226.652L347.2,226.665L358.4,226.388L369.6,226.067L380.8,225.654L392,225.369L403.2,224.507L414.4,223.295L425.6,222.061L436.8,220.642L448,219.046L459.2,217.705L470.4,216.03L481.6,215.766L492.8,216.641L504,221.104L515.2,228.566L526.4,243.812L537.6,266.013L548.8,295.329L560,329.971"></path><path class="line-path series-6" fill="none" stroke="#9b7058" stroke-width="2" d="M0,330L11.2,314.391L22.4,302.503L33.6,292.751L44.8,284.01L56,275.921L67.2,267.853L78.4,260.894L89.6,254.764L100.8,248.073L112,242.529L123.2,236.107L134.4,229.787L145.6,224.862L156.8,220.568L168,216.629L179.2,212.887L190.4,208.181L201.6,203.99L212.8,200.219L224,196.053L235.2,191.8L246.4,187.522L257.6,183.529L268.8,179.322L280,175.259L291.2,173.238L302.4,170.882L313.6,169.022L324.8,167.141L336,164.946L347.2,162.962L358.4,160.776L369.6,158.656L380.8,156.866L392,154.485L403.2,152.468L414.4,150.48L425.6,148.43L436.8,146.301L448,144.227L459.2,142.362L470.4,140.155L481.6,138.196L492.8,136.067L504,133.972L515.2,131.913L526.4,129.884L537.6,127.958L548.8,125.841L560,123.713"></path><path class="line-path series-7" fill="none" stroke="#ff77b9" stroke-width="2" d="M0,330L11.2,314.915L22.4,303.604L33.6,294.818L44.8,286.568L56,279.184L67.2,272.823L78.4,266.657L89.6,260.989L100.8,255.465L112,251.357L123.2,247.013L134.4,243.14L145.6,239.803L156.8,236.408L168,233.347L179.2,230.926L190.4,228.319L201.6,226.43L212.8,224.957L224,223.571L235.2,222.148L246.4,221.133L257.6,220.254L268.8,219.718L280,219.64L291.2,219.834L302.4,220.568L313.6,221.178L324.8,221.995L336,223.175L347.2,224.355L358.4,225.893L369.6,228.03L380.8,230.291L392,233.281L403.2,236.16L414.4,239.159L425.6,242.752L436.8,246.634L448,250.911L459.2,255.255L470.4,260.857L481.6,266.083L492.8,272.159L504,279.11L515.2,286.469L526.4,294.434L537.6,303.241L548.8,314.395L560,329.984"></path><path class="line-path series-8" fill="none" stroke="#7f7f7f" stroke-width="2" d="M0,330L11.2,315.41L22.4,305.011L33.6,296.229L44.8,288.523L56,281.634L67.2,275.406L78.4,269.75L89.6,264.586L100.8,259.867L112,255.548L123.2,251.604L134.4,248.007L145.6,244.74L156.8,241.779L168,239.114L179.2,236.734L190.4,234.626L201.6,232.782L212.8,231.198L224,229.87L235.2,228.785L246.4,227.948L257.6,227.349L268.8,226.991L280,226.875L291.2,226.991L302.4,227.349L313.6,227.948L324.8,228.785L336,229.87L347.2,231.198L358.4,232.782L369.6,234.626L380.8,236.734L392,239.114L403.2,241.779L414.4,244.74L425.6,248.007L436.8,251.604L448,255.548L459.2,259.867L470.4,264.586L481.6,269.75L492.8,275.406L504,281.634L515.2,288.523L526.4,296.229L537.6,305.011L548.8,315.41L560,330"></path></g><g class="highlight-group"></g><g transform="translate(570, 20)" style="font-stretch: condensed;"><g transform="translate(0,0)" class="legend-item"><rect width="15" height="15" fill="#1f9bd9"></rect><text x="20" y="12" font-size="12px" fill="currentColor">gamma-coded gaps</text></g><g transform="translate(0,20)" class="legend-item"><rect width="15" height="15" fill="#ff6d22"></rect><text x="20" y="12" font-size="12px" fill="currentColor">gamma-coded run lengths</text></g><g transform="translate(0,40)" class="legend-item"><rect width="15" height="15" fill="#48bc7f"></rect><text x="20" y="12" font-size="12px" fill="currentColor">flip coding (gamma)</text></g><g transform="translate(0,60)" class="legend-item"><rect width="15" height="15" fill="#ffb92d"></rect><text x="20" y="12" font-size="12px" fill="currentColor">LEB128 + ranges</text></g><g transform="translate(0,80)" class="legend-item"><rect width="15" height="15" fill="#f43550"></rect><text x="20" y="12" font-size="12px" fill="currentColor">zlib'd bitset</text></g><g transform="translate(0,100)" class="legend-item"><rect width="15" height="15" fill="#b834cc"></rect><text x="20" y="12" font-size="12px" fill="currentColor">triple partitioned</text></g><g transform="translate(0,120)" class="legend-item"><rect width="15" height="15" fill="#9b7058"></rect><text x="20" y="12" font-size="12px" fill="currentColor">Elias-Fano</text></g><g transform="translate(0,140)" class="legend-item"><rect width="15" height="15" fill="#ff77b9"></rect><text x="20" y="12" font-size="12px" fill="currentColor">seq. binary interp. (leftmost)</text></g><g transform="translate(0,160)" class="legend-item"><rect width="15" height="15" fill="#7f7f7f"></rect><text x="20" y="12" font-size="12px" fill="currentColor">lower bound</text></g></g></g></svg>